<svg width="400" height="176" viewBox="0 0 400 176" fill="none" xmlns="http://www.w3.org/2000/svg">
<g filter="url(#filter0_dd_102_7140)">
<rect x="17.2634" y="9.5" width="353" height="127" rx="25" fill="white"/>
<path d="M382.763 150.544C382.763 150.544 370.263 142 370.263 109.5L334.763 135.044C334.763 135.044 348.763 152.481 382.763 150.544Z" fill="white"/>
</g>
<path d="M44.1994 90.58C43.1541 90.58 42.2048 90.4307 41.3514 90.132C40.4981 89.8333 39.7728 89.4067 39.1754 88.852C38.5781 88.3187 38.1194 87.6573 37.7994 86.868C37.4794 86.1 37.3194 85.2467 37.3194 84.308C37.3194 83.348 37.4794 82.4947 37.7994 81.748C38.1408 80.98 38.5781 80.3293 39.1114 79.796C39.6661 79.2627 40.2848 78.836 40.9674 78.516C41.6501 78.1747 42.3541 77.94 43.0794 77.812V74.868H46.4074V79.956C44.6794 80.0413 43.3461 80.4147 42.4074 81.076C41.4901 81.716 41.0314 82.676 41.0314 83.956V84.404C41.0314 85.3853 41.3301 86.1427 41.9274 86.676C42.5248 87.2307 43.3248 87.508 44.3274 87.508C45.3941 87.508 46.2474 87.1987 46.8874 86.58C47.5274 85.9613 47.9648 85.172 48.1994 84.212L51.2394 85.428C51.0474 86.0893 50.7594 86.7293 50.3754 87.348C50.0128 87.9667 49.5434 88.5107 48.9674 88.98C48.3914 89.4707 47.7088 89.8547 46.9194 90.132C46.1301 90.4307 45.2234 90.58 44.1994 90.58ZM44.7114 72.244C43.9008 72.244 43.3034 72.052 42.9194 71.668C42.5568 71.2627 42.3754 70.7507 42.3754 70.132V69.588C42.3754 68.9693 42.5568 68.468 42.9194 68.084C43.3034 67.6787 43.9008 67.476 44.7114 67.476C45.5221 67.476 46.1088 67.6787 46.4714 68.084C46.8554 68.468 47.0474 68.9693 47.0474 69.588V70.132C47.0474 70.7507 46.8554 71.2627 46.4714 71.668C46.1088 72.052 45.5221 72.244 44.7114 72.244ZM54.1679 84.5V62.164H63.7679C65.8373 62.164 67.4373 62.772 68.5679 63.988C69.6986 65.204 70.2639 66.836 70.2639 68.884C70.2639 70.932 69.6986 72.564 68.5679 73.78C67.4373 74.996 65.8373 75.604 63.7679 75.604H57.7839V84.5H54.1679ZM57.7839 72.436H63.5439C64.4613 72.436 65.1759 72.2013 65.6879 71.732C66.1999 71.2413 66.4559 70.548 66.4559 69.652V68.116C66.4559 67.22 66.1999 66.5373 65.6879 66.068C65.1759 65.5773 64.4613 65.332 63.5439 65.332H57.7839V72.436ZM85.6314 84.5C84.7141 84.5 84.0101 84.244 83.5194 83.732C83.0288 83.1987 82.7301 82.5267 82.6234 81.716H82.4634C82.1434 82.7613 81.5568 83.5507 80.7034 84.084C79.8501 84.6173 78.8154 84.884 77.5994 84.884C75.8714 84.884 74.5381 84.436 73.5994 83.54C72.6821 82.644 72.2234 81.4387 72.2234 79.924C72.2234 78.26 72.8208 77.012 74.0154 76.18C75.2314 75.348 77.0021 74.932 79.3274 74.932H82.3354V73.524C82.3354 72.5 82.0581 71.7107 81.5034 71.156C80.9488 70.6013 80.0848 70.324 78.9114 70.324C77.9301 70.324 77.1301 70.5373 76.5114 70.964C75.8928 71.3907 75.3701 71.9347 74.9434 72.596L72.8634 70.708C73.4181 69.7693 74.1968 69.0013 75.1994 68.404C76.2021 67.7853 77.5141 67.476 79.1354 67.476C81.2901 67.476 82.9434 67.9773 84.0954 68.98C85.2474 69.9827 85.8234 71.4227 85.8234 73.3V81.652H87.5834V84.5H85.6314ZM78.5914 82.228C79.6794 82.228 80.5754 81.9933 81.2794 81.524C81.9834 81.0333 82.3354 80.3827 82.3354 79.572V77.172H79.3914C76.9808 77.172 75.7754 77.9187 75.7754 79.412V79.988C75.7754 80.7347 76.0208 81.3 76.5114 81.684C77.0234 82.0467 77.7168 82.228 78.5914 82.228ZM90.8419 84.5V67.86H94.3299V71.06H94.4899C94.7246 70.2067 95.2153 69.46 95.9619 68.82C96.7086 68.18 97.7433 67.86 99.0659 67.86H99.9939V71.22H98.6179C97.2313 71.22 96.1646 71.444 95.4179 71.892C94.6926 72.34 94.3299 73.0013 94.3299 73.876V84.5H90.8419ZM114.874 84.5C113.957 84.5 113.253 84.244 112.762 83.732C112.271 83.1987 111.973 82.5267 111.866 81.716H111.706C111.386 82.7613 110.799 83.5507 109.946 84.084C109.093 84.6173 108.058 84.884 106.842 84.884C105.114 84.884 103.781 84.436 102.842 83.54C101.925 82.644 101.466 81.4387 101.466 79.924C101.466 78.26 102.063 77.012 103.258 76.18C104.474 75.348 106.245 74.932 108.57 74.932H111.578V73.524C111.578 72.5 111.301 71.7107 110.746 71.156C110.191 70.6013 109.327 70.324 108.154 70.324C107.173 70.324 106.373 70.5373 105.754 70.964C105.135 71.3907 104.613 71.9347 104.186 72.596L102.106 70.708C102.661 69.7693 103.439 69.0013 104.442 68.404C105.445 67.7853 106.757 67.476 108.378 67.476C110.533 67.476 112.186 67.9773 113.338 68.98C114.49 69.9827 115.066 71.4227 115.066 73.3V81.652H116.826V84.5H114.874ZM107.834 82.228C108.922 82.228 109.818 81.9933 110.522 81.524C111.226 81.0333 111.578 80.3827 111.578 79.572V77.172H108.634C106.223 77.172 105.018 77.9187 105.018 79.412V79.988C105.018 80.7347 105.263 81.3 105.754 81.684C106.266 82.0467 106.959 82.228 107.834 82.228ZM137.951 81.748H137.791C137.428 82.7293 136.831 83.4973 135.999 84.052C135.188 84.6067 134.228 84.884 133.119 84.884C131.007 84.884 129.375 84.1267 128.223 82.612C127.071 81.076 126.495 78.932 126.495 76.18C126.495 73.428 127.071 71.2947 128.223 69.78C129.375 68.244 131.007 67.476 133.119 67.476C134.228 67.476 135.188 67.7533 135.999 68.308C136.831 68.8413 137.428 69.6093 137.791 70.612H137.951V67.86H141.439V90.9H137.951V81.748ZM134.175 81.876C135.242 81.876 136.138 81.62 136.863 81.108C137.588 80.5747 137.951 79.8813 137.951 79.028V73.332C137.951 72.4787 137.588 71.796 136.863 71.284C136.138 70.7507 135.242 70.484 134.175 70.484C132.959 70.484 131.988 70.8787 131.263 71.668C130.538 72.436 130.175 73.46 130.175 74.74V77.62C130.175 78.9 130.538 79.9347 131.263 80.724C131.988 81.492 132.959 81.876 134.175 81.876ZM156.344 81.748H156.216C156.067 82.1533 155.864 82.548 155.608 82.932C155.374 83.316 155.064 83.6573 154.68 83.956C154.318 84.2333 153.87 84.4573 153.336 84.628C152.824 84.7987 152.227 84.884 151.544 84.884C149.816 84.884 148.472 84.3293 147.512 83.22C146.574 82.1107 146.104 80.5213 146.104 78.452V67.86H149.592V78.004C149.592 80.5853 150.659 81.876 152.792 81.876C153.24 81.876 153.678 81.8227 154.104 81.716C154.531 81.588 154.904 81.4067 155.224 81.172C155.566 80.9373 155.832 80.6387 156.024 80.276C156.238 79.9133 156.344 79.4867 156.344 78.996V67.86H159.832V84.5H156.344V81.748ZM171.195 84.884C170 84.884 168.934 84.6813 167.995 84.276C167.056 83.8707 166.256 83.2947 165.595 82.548C164.934 81.78 164.422 80.8627 164.059 79.796C163.718 78.708 163.547 77.5027 163.547 76.18C163.547 74.8573 163.718 73.6627 164.059 72.596C164.422 71.508 164.934 70.5907 165.595 69.844C166.256 69.076 167.056 68.4893 167.995 68.084C168.934 67.6787 170 67.476 171.195 67.476C172.411 67.476 173.478 67.6893 174.395 68.116C175.334 68.5427 176.112 69.14 176.731 69.908C177.35 70.6547 177.808 71.5293 178.107 72.532C178.427 73.5347 178.587 74.612 178.587 75.764V77.076H167.163V77.62C167.163 78.9 167.536 79.956 168.283 80.788C169.051 81.5987 170.139 82.004 171.547 82.004C172.571 82.004 173.435 81.78 174.139 81.332C174.843 80.884 175.44 80.276 175.931 79.508L177.979 81.524C177.36 82.548 176.464 83.3693 175.291 83.988C174.118 84.5853 172.752 84.884 171.195 84.884ZM171.195 70.196C170.598 70.196 170.043 70.3027 169.531 70.516C169.04 70.7293 168.614 71.028 168.251 71.412C167.91 71.796 167.643 72.2547 167.451 72.788C167.259 73.3213 167.163 73.908 167.163 74.548V74.772H174.907V74.452C174.907 73.172 174.576 72.148 173.915 71.38C173.254 70.5907 172.347 70.196 171.195 70.196ZM171.611 65.876L169.435 64.82L172.347 59.06L175.387 60.532L171.611 65.876ZM194.971 84.884C193.392 84.884 192.069 84.6067 191.003 84.052C189.936 83.4973 189.008 82.7293 188.219 81.748L190.459 79.7C191.077 80.4467 191.76 81.0333 192.507 81.46C193.275 81.8653 194.16 82.068 195.163 82.068C196.187 82.068 196.944 81.876 197.435 81.492C197.947 81.0867 198.203 80.532 198.203 79.828C198.203 79.2947 198.021 78.8467 197.659 78.484C197.317 78.1 196.709 77.8547 195.835 77.748L194.299 77.556C192.592 77.3427 191.248 76.852 190.267 76.084C189.307 75.2947 188.827 74.132 188.827 72.596C188.827 71.7853 188.976 71.0707 189.275 70.452C189.573 69.812 189.989 69.2787 190.523 68.852C191.077 68.404 191.728 68.0627 192.475 67.828C193.243 67.5933 194.085 67.476 195.003 67.476C196.496 67.476 197.712 67.7107 198.651 68.18C199.611 68.6493 200.464 69.3 201.211 70.132L199.067 72.18C198.64 71.668 198.075 71.2307 197.371 70.868C196.688 70.484 195.899 70.292 195.003 70.292C194.043 70.292 193.328 70.484 192.859 70.868C192.411 71.252 192.187 71.7533 192.187 72.372C192.187 73.012 192.389 73.492 192.795 73.812C193.2 74.132 193.851 74.3667 194.747 74.516L196.283 74.708C198.117 74.9853 199.451 75.5293 200.283 76.34C201.136 77.1293 201.563 78.196 201.563 79.54C201.563 80.3507 201.403 81.0867 201.083 81.748C200.784 82.388 200.347 82.9427 199.771 83.412C199.195 83.8813 198.501 84.244 197.691 84.5C196.88 84.756 195.973 84.884 194.971 84.884ZM211.871 84.884C210.719 84.884 209.663 84.6813 208.703 84.276C207.765 83.8707 206.965 83.2947 206.303 82.548C205.642 81.78 205.13 80.8627 204.767 79.796C204.405 78.708 204.223 77.5027 204.223 76.18C204.223 74.8573 204.405 73.6627 204.767 72.596C205.13 71.508 205.642 70.5907 206.303 69.844C206.965 69.076 207.765 68.4893 208.703 68.084C209.663 67.6787 210.719 67.476 211.871 67.476C213.023 67.476 214.069 67.6787 215.007 68.084C215.967 68.4893 216.778 69.076 217.439 69.844C218.101 70.5907 218.613 71.508 218.975 72.596C219.338 73.6627 219.519 74.8573 219.519 76.18C219.519 77.5027 219.338 78.708 218.975 79.796C218.613 80.8627 218.101 81.78 217.439 82.548C216.778 83.2947 215.967 83.8707 215.007 84.276C214.069 84.6813 213.023 84.884 211.871 84.884ZM211.871 82.004C213.066 82.004 214.026 81.6413 214.751 80.916C215.477 80.1693 215.839 79.06 215.839 77.588V74.772C215.839 73.3 215.477 72.2013 214.751 71.476C214.026 70.7293 213.066 70.356 211.871 70.356C210.677 70.356 209.717 70.7293 208.991 71.476C208.266 72.2013 207.903 73.3 207.903 74.772V77.588C207.903 79.06 208.266 80.1693 208.991 80.916C209.717 81.6413 210.677 82.004 211.871 82.004ZM233.235 67.86H236.595L229.587 87.796C229.395 88.3507 229.171 88.82 228.915 89.204C228.68 89.6093 228.392 89.9293 228.051 90.164C227.731 90.42 227.336 90.6013 226.867 90.708C226.398 90.836 225.843 90.9 225.203 90.9H223.187V88.052H226.003L226.963 85.236L220.915 67.86H224.403L227.731 77.652L228.691 81.268H228.851L229.907 77.652L233.235 67.86ZM246.707 60.82H250.195V70.612H250.355C250.718 69.6093 251.304 68.8413 252.115 68.308C252.947 67.7533 253.918 67.476 255.027 67.476C257.139 67.476 258.771 68.244 259.923 69.78C261.075 71.2947 261.651 73.428 261.651 76.18C261.651 78.932 261.075 81.076 259.923 82.612C258.771 84.1267 257.139 84.884 255.027 84.884C253.918 84.884 252.947 84.6067 252.115 84.052C251.304 83.4973 250.718 82.7293 250.355 81.748H250.195V84.5H246.707V60.82ZM253.971 81.876C255.187 81.876 256.158 81.492 256.883 80.724C257.608 79.9347 257.971 78.9 257.971 77.62V74.74C257.971 73.46 257.608 72.436 256.883 71.668C256.158 70.8787 255.187 70.484 253.971 70.484C252.904 70.484 252.008 70.7507 251.283 71.284C250.558 71.796 250.195 72.4787 250.195 73.332V79.028C250.195 79.8813 250.558 80.5747 251.283 81.108C252.008 81.62 252.904 81.876 253.971 81.876ZM275.564 81.748H275.436C275.287 82.1533 275.084 82.548 274.828 82.932C274.594 83.316 274.284 83.6573 273.9 83.956C273.538 84.2333 273.09 84.4573 272.556 84.628C272.044 84.7987 271.447 84.884 270.764 84.884C269.036 84.884 267.692 84.3293 266.732 83.22C265.794 82.1107 265.324 80.5213 265.324 78.452V67.86H268.812V78.004C268.812 80.5853 269.879 81.876 272.012 81.876C272.46 81.876 272.898 81.8227 273.324 81.716C273.751 81.588 274.124 81.4067 274.444 81.172C274.786 80.9373 275.052 80.6387 275.244 80.276C275.458 79.9133 275.564 79.4867 275.564 78.996V67.86H279.052V84.5H275.564V81.748ZM290.415 84.884C289.22 84.884 288.154 84.6813 287.215 84.276C286.276 83.8707 285.476 83.2947 284.815 82.548C284.154 81.78 283.642 80.8627 283.279 79.796C282.938 78.708 282.767 77.5027 282.767 76.18C282.767 74.8573 282.938 73.6627 283.279 72.596C283.642 71.508 284.154 70.5907 284.815 69.844C285.476 69.076 286.276 68.4893 287.215 68.084C288.154 67.6787 289.22 67.476 290.415 67.476C291.631 67.476 292.698 67.6893 293.615 68.116C294.554 68.5427 295.332 69.14 295.951 69.908C296.57 70.6547 297.028 71.5293 297.327 72.532C297.647 73.5347 297.807 74.612 297.807 75.764V77.076H286.383V77.62C286.383 78.9 286.756 79.956 287.503 80.788C288.271 81.5987 289.359 82.004 290.767 82.004C291.791 82.004 292.655 81.78 293.359 81.332C294.063 80.884 294.66 80.276 295.151 79.508L297.199 81.524C296.58 82.548 295.684 83.3693 294.511 83.988C293.338 84.5853 291.972 84.884 290.415 84.884ZM290.415 70.196C289.818 70.196 289.263 70.3027 288.751 70.516C288.26 70.7293 287.834 71.028 287.471 71.412C287.13 71.796 286.863 72.2547 286.671 72.788C286.479 73.3213 286.383 73.908 286.383 74.548V74.772H294.127V74.452C294.127 73.172 293.796 72.148 293.135 71.38C292.474 70.5907 291.567 70.196 290.415 70.196ZM301.508 84.5V67.86H304.996V70.612H305.156C305.519 69.716 306.063 68.9693 306.788 68.372C307.535 67.7747 308.548 67.476 309.828 67.476C311.535 67.476 312.858 68.0413 313.796 69.172C314.756 70.2813 315.236 71.8707 315.236 73.94V84.5H311.748V74.388C311.748 71.7853 310.703 70.484 308.612 70.484C308.164 70.484 307.716 70.548 307.268 70.676C306.842 70.7827 306.458 70.9533 306.116 71.188C305.775 71.4227 305.498 71.7213 305.284 72.084C305.092 72.4467 304.996 72.8733 304.996 73.364V84.5H301.508ZM326.439 84.884C325.287 84.884 324.231 84.6813 323.271 84.276C322.332 83.8707 321.532 83.2947 320.871 82.548C320.209 81.78 319.697 80.8627 319.335 79.796C318.972 78.708 318.791 77.5027 318.791 76.18C318.791 74.8573 318.972 73.6627 319.335 72.596C319.697 71.508 320.209 70.5907 320.871 69.844C321.532 69.076 322.332 68.4893 323.271 68.084C324.231 67.6787 325.287 67.476 326.439 67.476C327.591 67.476 328.636 67.6787 329.575 68.084C330.535 68.4893 331.345 69.076 332.007 69.844C332.668 70.5907 333.18 71.508 333.543 72.596C333.905 73.6627 334.087 74.8573 334.087 76.18C334.087 77.5027 333.905 78.708 333.543 79.796C333.18 80.8627 332.668 81.78 332.007 82.548C331.345 83.2947 330.535 83.8707 329.575 84.276C328.636 84.6813 327.591 84.884 326.439 84.884ZM326.439 82.004C327.633 82.004 328.593 81.6413 329.319 80.916C330.044 80.1693 330.407 79.06 330.407 77.588V74.772C330.407 73.3 330.044 72.2013 329.319 71.476C328.593 70.7293 327.633 70.356 326.439 70.356C325.244 70.356 324.284 70.7293 323.559 71.476C322.833 72.2013 322.471 73.3 322.471 74.772V77.588C322.471 79.06 322.833 80.1693 323.559 80.916C324.284 81.6413 325.244 82.004 326.439 82.004ZM340.757 77.492V72.404C342.485 72.3187 343.808 71.956 344.725 71.316C345.664 70.6547 346.133 69.684 346.133 68.404V67.956C346.133 66.9747 345.835 66.2173 345.237 65.684C344.64 65.1293 343.84 64.852 342.837 64.852C341.771 64.852 340.917 65.1613 340.277 65.78C339.637 66.3987 339.2 67.188 338.965 68.148L335.925 66.932C336.117 66.2707 336.395 65.6307 336.757 65.012C337.141 64.3933 337.621 63.8493 338.197 63.38C338.773 62.8893 339.456 62.5053 340.245 62.228C341.035 61.9293 341.941 61.78 342.965 61.78C344.011 61.78 344.96 61.9293 345.813 62.228C346.667 62.5267 347.392 62.9533 347.989 63.508C348.587 64.0413 349.045 64.7027 349.365 65.492C349.685 66.26 349.845 67.1133 349.845 68.052C349.845 69.012 349.675 69.876 349.333 70.644C349.013 71.3907 348.576 72.0307 348.021 72.564C347.488 73.0973 346.88 73.5347 346.197 73.876C345.515 74.196 344.811 74.42 344.085 74.548V77.492H340.757ZM342.453 84.884C341.643 84.884 341.045 84.692 340.661 84.308C340.299 83.9027 340.117 83.3907 340.117 82.772V82.228C340.117 81.6093 340.299 81.108 340.661 80.724C341.045 80.3187 341.643 80.116 342.453 80.116C343.264 80.116 343.851 80.3187 344.213 80.724C344.597 81.108 344.789 81.6093 344.789 82.228V82.772C344.789 83.3907 344.597 83.9027 344.213 84.308C343.851 84.692 343.264 84.884 342.453 84.884Z" fill="#023365"/>
<defs>
<filter id="filter0_dd_102_7140" x="0.263428" y="0.5" width="399.5" height="175.195" filterUnits="userSpaceOnUse" color-interpolation-filters="sRGB">
<feFlood flood-opacity="0" result="BackgroundImageFix"/>
<feColorMatrix in="SourceAlpha" type="matrix" values="0 0 0 0 0 0 0 0 0 0 0 0 0 0 0 0 0 0 127 0" result="hardAlpha"/>
<feOffset dy="1.6"/>
<feGaussianBlur stdDeviation="1.38125"/>
<feColorMatrix type="matrix" values="0 0 0 0 0.415686 0 0 0 0 0.654902 0 0 0 0 0.772549 0 0 0 0.075 0"/>
<feBlend mode="normal" in2="BackgroundImageFix" result="effect1_dropShadow_102_7140"/>
<feColorMatrix in="SourceAlpha" type="matrix" values="0 0 0 0 0 0 0 0 0 0 0 0 0 0 0 0 0 0 127 0" result="hardAlpha"/>
<feOffset dy="8"/>
<feGaussianBlur stdDeviation="8.5"/>
<feColorMatrix type="matrix" values="0 0 0 0 0.415686 0 0 0 0 0.654902 0 0 0 0 0.772549 0 0 0 0.15 0"/>
<feBlend mode="normal" in2="effect1_dropShadow_102_7140" result="effect2_dropShadow_102_7140"/>
<feBlend mode="normal" in="SourceGraphic" in2="effect2_dropShadow_102_7140" result="shape"/>
</filter>
</defs>
</svg>
