<svg width="447" height="586" viewBox="0 0 447 586" fill="none" xmlns="http://www.w3.org/2000/svg">
<path d="M331.179 427.4C374.665 410.053 377.459 396.612 387.305 399.523C402.797 404.114 411.197 461.861 373.161 481.163C336.922 499.565 296.952 441.349 331.179 427.4Z" fill="#676789"/>
<path d="M373.141 481.185C342.451 496.774 309.064 457.351 320.395 436.468C330.573 450.651 349.796 460.829 368.043 451.569C386.308 442.309 393.869 424.141 395.08 407.281C404.301 424.668 403.969 465.537 373.141 481.185Z" fill="white"/>
<path d="M358.529 488.548C350.597 488.548 342.509 485.93 335.047 480.773C321.528 471.415 313.069 455.904 314.476 443.03C315.433 434.297 320.844 427.499 329.733 423.865L329.753 423.846C352.707 414.683 363.862 406.81 371.227 401.614C377.732 397.023 382.05 393.975 388.379 395.851C396.369 398.215 402.464 409.838 403.891 425.467C405.766 445.98 399.124 472.294 374.9 484.582C369.684 487.239 364.135 488.548 358.529 488.548ZM332.605 430.957C326.275 433.535 322.739 437.872 322.075 443.85C320.981 453.892 328.248 466.766 339.384 474.463C345.479 478.682 357.728 484.699 371.403 477.764C392.228 467.195 397.874 444.182 396.233 426.17C395.06 413.316 390.196 404.408 386.191 403.216C383.671 402.474 382.05 403.372 375.642 407.885C368.453 412.964 356.399 421.462 332.605 430.957Z" fill="#000072"/>
<path d="M344.6 462.545C344.404 473.251 342.529 483.058 339.247 491.966C306.153 582.064 130.293 580.677 101.966 488.957C96.9846 473.29 96.086 456.372 99.4852 440.079C101.79 429.413 104.916 417.359 108.55 404.876C113.981 386.16 120.506 366.429 126.894 348.906C128.183 345.35 129.492 341.893 130.762 338.552C133.907 330.347 136.935 322.845 139.729 316.438H302.481C303.614 318.958 305.079 322.513 306.72 326.713C309.474 333.746 312.776 342.596 316.019 351.504C320.571 363.987 324.966 376.568 327.565 384.285C333.914 405.403 345.049 436.504 344.6 462.545Z" fill="#676789"/>
<path d="M227.854 530.585C268.045 530.585 300.625 493.229 300.625 447.148C300.625 401.067 268.045 363.711 227.854 363.711C187.664 363.711 155.084 401.067 155.084 447.148C155.084 493.229 187.664 530.585 227.854 530.585Z" fill="white"/>
<path d="M220.646 562.487C219.102 562.487 217.559 562.467 215.996 562.428C189.408 561.725 163.602 555.024 143.343 543.518C120.701 530.663 105.131 512.202 98.2936 490.107C93.0971 473.755 92.1985 456.173 95.7149 439.314C97.942 428.96 101.009 417.024 104.838 403.818C110.054 385.806 116.599 365.86 123.26 347.594C124.413 344.429 125.683 341.01 127.148 337.181C130.41 328.664 133.438 321.162 136.193 314.891L137.189 312.586H304.923L305.939 314.833C306.837 316.825 307.97 319.521 309.299 322.862H309.318L310.276 325.304C312.854 331.887 316.078 340.502 319.614 350.173C323.814 361.699 328.346 374.592 331.198 383.032L331.237 383.149C332.136 386.118 333.113 389.264 334.148 392.585C340.693 413.527 348.82 439.568 348.429 462.562C348.233 473.365 346.358 483.699 342.842 493.233C334.598 515.679 317.289 534.062 292.772 546.35C272.005 556.841 246.55 562.487 220.646 562.487ZM142.229 320.263C139.807 325.948 137.15 332.532 134.317 339.916C132.872 343.706 131.622 347.086 130.469 350.231C123.866 368.321 117.38 388.111 112.203 405.947C108.433 418.997 105.405 430.757 103.217 440.896C99.9737 456.447 100.794 472.681 105.6 487.802C117.732 527.049 161.14 553.324 216.192 554.751C263.449 555.981 318.754 536.641 335.652 490.634C338.856 481.902 340.575 472.408 340.771 462.464C341.142 440.701 333.21 415.305 326.822 394.909C325.787 391.588 324.791 388.424 323.912 385.454C321.079 377.054 316.566 364.258 312.405 352.81C309.318 344.331 306.466 336.713 304.083 330.539H302.872V327.433C301.758 324.6 300.781 322.198 299.961 320.263H142.229Z" fill="#000072"/>
<path d="M370.856 437.553L321.196 433.334C321.196 433.334 318.735 396.352 312.522 370.116C312.444 369.784 312.366 369.471 312.288 369.139L291.15 306.938C292.205 307.992 370.856 371.288 370.856 437.553Z" fill="#676789"/>
<path d="M374.685 441.718L317.582 436.873L317.367 433.591C317.347 433.22 314.866 396.63 308.791 370.999C308.713 370.647 308.635 370.335 308.556 370.041C308.048 367.99 309.318 365.919 311.37 365.412C313.421 364.904 315.492 366.173 315.999 368.225C316.078 368.576 316.175 368.947 316.253 369.299C321.45 391.238 324.009 420.092 324.771 429.801L366.909 433.376C363.96 376.469 301.992 321.163 289.333 310.438C288.806 309.989 288.493 309.715 288.415 309.637C286.93 308.133 286.93 305.71 288.435 304.226C289.9 302.76 292.264 302.741 293.748 304.148C293.846 304.226 294.022 304.382 294.276 304.597C313.128 320.577 374.665 377.387 374.665 437.576V441.718H374.685Z" fill="#000072"/>
<g opacity="0.3">
<path d="M348.37 434.898L321.196 433.335C321.196 433.335 318.734 396.354 312.522 370.117C325.923 388.012 340.575 411.123 348.37 434.898Z" fill="#000072"/>
</g>
<path d="M70.768 423.625L70.6702 423.821C70.6702 423.821 70.6702 423.821 70.6506 423.821C70.7093 423.762 70.7485 423.703 70.768 423.625Z" fill="#FCCACA"/>
<path d="M126.562 490.203C126.562 490.203 79.3831 436.226 51.5251 482.252V534.647H399.612L395.314 482.252C367.457 436.226 320.278 490.203 320.278 490.203H126.562Z" fill="#676789"/>
<g opacity="0.35">
<path d="M125.565 491.925C66.7629 452.19 68.3257 506.753 68.3257 506.753C63.9107 496.79 56.7801 488.565 52.0134 483.759C54.807 477.82 68.736 467.369 68.736 467.369C70.0058 466.079 71.0607 464.517 71.9789 462.622C72.2524 462.075 93.0775 466.88 93.3314 466.255L125.565 491.925Z" fill="white"/>
</g>
<g opacity="0.35">
<path d="M320.766 491.925C379.569 452.19 378.006 506.753 378.006 506.753C382.421 496.79 389.551 488.565 394.318 483.759C391.524 477.82 377.596 467.369 377.596 467.369C376.326 466.079 375.271 464.517 374.353 462.622C374.079 462.075 353.254 466.88 353 466.255L320.766 491.925Z" fill="white"/>
</g>
<path d="M403.773 538.479H47.696V481.181L48.243 480.263C55.7838 467.799 65.454 460.961 76.9605 459.965C102.923 457.699 128.379 486.455 129.433 487.686C130.82 489.288 130.664 491.691 129.062 493.098C127.48 494.485 125.057 494.328 123.651 492.726C123.416 492.453 99.661 465.669 77.5857 467.603C68.9118 468.365 61.4296 473.659 55.3345 483.33V530.801H395.432L391.564 483.466C385.429 473.699 377.908 468.346 369.195 467.584C347.1 465.669 323.384 492.433 323.149 492.707C321.762 494.309 319.34 494.465 317.738 493.078C316.136 491.691 315.98 489.268 317.367 487.667C318.441 486.436 343.877 457.699 369.84 459.945C381.346 460.942 391.016 467.779 398.557 480.243L399.026 481.024L403.773 538.479Z" fill="#000072"/>
<path d="M442.806 515.895C442.708 534.845 435.421 548.852 426.396 558.932C413.229 573.604 394.201 581.672 374.489 581.672H72.3697C52.6581 581.672 33.6499 573.623 20.4633 558.932C11.4183 548.852 4.13144 534.864 4.0533 515.895C3.7798 465.317 46.8951 472.819 58.6556 493.839C63.9888 503.353 70.7677 519.666 70.7677 519.666H376.111C376.111 519.666 382.89 503.353 388.203 493.839C399.983 472.819 443.079 465.317 442.806 515.895Z" fill="#676789"/>
<path d="M442.806 515.895C442.708 534.845 435.421 548.852 426.396 558.932C413.229 573.604 394.201 581.672 374.489 581.672H72.3697C52.6581 581.672 33.6499 573.623 20.4633 558.932C11.4183 548.852 4.13144 534.864 4.0533 515.895C3.7798 465.317 46.8951 472.819 58.6556 493.839C63.9888 503.353 70.7677 519.666 70.7677 519.666C70.7677 519.666 81.7468 538.908 86.4744 545.335C104.975 570.595 222.658 555.494 222.658 555.494C222.658 555.494 340.36 570.576 358.861 545.335C363.569 538.889 376.111 519.666 376.111 519.666C376.111 519.666 382.89 503.353 388.203 493.839C399.983 472.819 443.079 465.317 442.806 515.895Z" fill="white"/>
<g opacity="0.35">
<path d="M6.3586 510.623C6.3586 510.623 13.7822 492.514 27.7111 490.228C41.6401 487.942 56.37 499.839 65.5909 512.772C65.5909 512.772 53.6741 479.698 37.9283 477.745C22.2021 475.771 2.88124 492.514 6.3586 510.623Z" fill="white"/>
</g>
<g opacity="0.35">
<path d="M440.891 510.623C440.891 510.623 433.468 492.514 419.539 490.228C405.61 487.942 390.88 499.839 381.659 512.772C381.659 512.772 393.576 479.698 409.322 477.745C425.028 475.771 444.369 492.514 440.891 510.623Z" fill="white"/>
</g>
<path d="M374.919 519.156C375.994 515.327 377.283 511.576 378.631 507.845C379.315 505.989 380.018 504.133 380.76 502.277C381.522 500.441 382.284 498.604 383.105 496.768C383.495 495.85 383.945 494.932 384.374 494.033C384.843 493.115 385.234 492.236 385.82 491.239C386.875 489.266 388.223 487.508 389.649 485.848C392.599 482.605 396.096 479.889 399.964 477.857C403.852 475.865 408.071 474.458 412.506 473.892C416.941 473.403 421.61 473.716 425.986 475.279C430.342 476.861 434.308 479.635 437.297 483.093C440.325 486.531 442.395 490.575 443.783 494.678C445.17 498.78 445.912 502.961 446.361 507.122C446.518 509.193 446.693 511.264 446.693 513.334C446.693 514.37 446.752 515.386 446.732 516.421L446.635 519.527C446.166 527.81 444.271 536.093 440.852 543.732C434.034 559.048 421.453 571.414 406.391 578.408C398.889 581.983 390.763 584.151 382.538 585.069C378.436 585.499 374.196 585.519 370.348 585.499H358.548H311.35H216.934V577.841H271.595V585.499H166.786H114.371H88.1741H75.0657C73.9521 585.499 72.9167 585.519 71.7641 585.48C70.6115 585.441 69.4589 585.441 68.3258 585.382L64.8876 585.108C63.7545 584.991 62.6019 584.815 61.4688 584.679C52.3652 583.331 43.4959 580.342 35.4668 575.79C27.4376 571.238 20.3266 565.065 14.6222 557.837C8.89821 550.589 4.65897 542.071 2.39282 533.085C1.25975 528.592 0.595535 524.001 0.361106 519.41L0.263428 515.972L0.341575 512.553C0.341575 511.42 0.439254 510.267 0.536932 509.115C0.654147 507.962 0.673685 506.829 0.869042 505.676C1.41604 501.085 2.51004 496.455 4.42454 492.001C6.29997 487.547 9.23032 483.347 13.1375 480.065C13.3719 479.85 13.6063 479.655 13.8603 479.44L14.6417 478.893C15.1692 478.522 15.6771 478.151 16.2241 477.818C17.3572 477.213 18.4512 476.529 19.6429 476.08C21.9871 475.025 24.4877 474.439 26.9687 474.068C29.4693 473.677 31.9699 473.755 34.4509 473.95C36.9124 474.224 39.3348 474.712 41.6596 475.474C43.9843 476.236 46.2505 477.174 48.3603 478.404C49.4348 478.971 50.4507 479.655 51.4665 480.319C51.9549 480.671 52.4433 481.061 52.9317 481.413C53.4201 481.765 53.9085 482.155 54.3578 482.566C56.2528 484.109 57.8938 485.984 59.4176 487.938C60.1404 488.954 60.8632 489.95 61.4688 491.064C62.133 492.177 62.5433 493.134 63.0707 494.17C64.0475 496.201 64.9462 498.233 65.7862 500.284C66.6458 502.336 67.4272 504.406 68.1695 506.477C69.6347 510.638 70.9827 514.839 71.9986 519.175C72.1548 519.879 71.725 520.563 71.0413 520.738C70.4943 520.875 69.9473 520.621 69.6543 520.172C64.9657 512.729 60.8827 504.993 56.5849 497.628C56.0379 496.748 55.4909 495.752 54.9634 495.029C54.475 494.228 53.8889 493.506 53.3029 492.763C52.0526 491.337 50.7242 489.97 49.2199 488.778C46.2505 486.356 42.7731 484.5 39.159 483.249C37.3422 482.644 35.4668 482.214 33.5913 481.94C31.7159 481.765 29.8209 481.647 28.0041 481.882C26.1678 482.097 24.3705 482.507 22.71 483.23C21.8504 483.523 21.0885 484.011 20.268 484.421C19.8773 484.656 19.5256 484.929 19.1349 485.183L18.5684 485.555C18.3926 485.691 18.2167 485.848 18.0409 485.984C15.2278 488.29 13.0007 491.415 11.4769 495.01C9.93361 498.585 8.97636 502.551 8.48797 506.614C8.31215 507.61 8.2926 508.665 8.17539 509.681C8.07771 510.717 7.99957 511.732 7.99957 512.787L7.94097 515.913L8.03865 519.019C8.25354 523.141 8.8396 527.244 9.83592 531.209C11.8481 539.161 15.5599 546.643 20.6587 553.109C25.7771 559.575 32.0871 565.065 39.2762 569.128C46.4654 573.192 54.4164 575.888 62.5823 577.099L65.6494 577.49L68.7361 577.724L71.8423 577.822C72.8581 577.861 74.0107 577.822 75.0852 577.841H88.1936H114.391H166.805H271.614V585.499H216.953V577.841H311.37H358.568H370.367C374.392 577.861 378.025 577.841 381.757 577.45C389.161 576.61 396.448 574.676 403.168 571.473C409.908 568.347 416.061 563.99 421.316 558.774C426.572 553.519 430.889 547.346 433.878 540.606C436.906 533.866 438.488 526.54 438.86 519.117L438.938 516.323C438.957 515.386 438.899 514.448 438.879 513.51C438.879 511.635 438.664 509.779 438.508 507.942C438.059 504.289 437.336 500.695 436.164 497.354C434.972 494.033 433.331 490.966 431.143 488.485C428.955 486.004 426.259 484.167 423.231 483.034C420.183 481.999 416.823 481.608 413.424 481.94C410.044 482.331 406.645 483.269 403.5 484.793C400.374 486.355 397.424 488.348 394.943 490.79C393.771 492.06 392.56 493.33 391.642 494.775C391.153 495.44 390.665 496.319 390.177 497.12L388.731 499.62C384.882 506.341 381.21 513.315 377.322 520.152C376.97 520.777 376.189 520.992 375.564 520.641C374.997 520.328 374.763 519.723 374.919 519.156Z" fill="#000072"/>
<g opacity="0.3">
<path d="M441.301 530.953C439.524 543.925 433.429 553.869 426.122 561.39C413.522 574.342 395.314 581.453 376.443 581.453H68.8727C50.0012 581.453 31.7939 574.342 19.1934 561.39C11.8871 553.888 5.79191 543.925 4.01416 530.953C5.9482 530.035 7.06174 529.508 7.06174 529.508C7.06174 529.508 16.4779 557.151 39.6668 559.222C51.2124 560.257 59.6909 555.744 65.4735 550.626C70.9044 545.82 78.7969 544.863 85.1264 548.379C90.9481 551.622 100.149 554.67 114.625 555.881C122.889 556.565 224.064 558.616 224.064 558.616C259.326 556.741 324.966 556.35 330.671 555.881C344.404 554.728 352.883 551.7 358.138 548.379C364.643 544.238 373.063 544.726 379.295 549.258C384.55 553.087 391.212 556.291 398.733 556.291C433.077 556.291 438.234 529.508 438.234 529.508C438.234 529.508 439.367 530.035 441.301 530.953Z" fill="#000072"/>
</g>
<path d="M420.84 539.186C425.05 531.319 422.926 521.978 416.095 518.324C409.265 514.669 400.316 518.083 396.106 525.951C391.896 533.818 394.02 543.158 400.851 546.813C407.681 550.468 416.631 547.053 420.84 539.186Z" fill="#FFA1A8"/>
<path d="M403.416 512.963C404.772 509.788 403.667 506.273 400.949 505.112C398.23 503.951 394.927 505.584 393.571 508.759C392.215 511.934 393.32 515.449 396.039 516.61C398.757 517.771 402.06 516.138 403.416 512.963Z" fill="#FFA1A8"/>
<path d="M421.395 510.432C422.751 507.257 421.646 503.742 418.928 502.581C416.209 501.42 412.906 503.053 411.55 506.228C410.195 509.403 411.299 512.918 414.018 514.079C416.736 515.24 420.039 513.607 421.395 510.432Z" fill="#FFA1A8"/>
<path d="M434.907 521.791C436.263 518.616 435.159 515.101 432.44 513.94C429.721 512.779 426.418 514.412 425.063 517.587C423.707 520.762 424.812 524.277 427.53 525.438C430.249 526.599 433.552 524.966 434.907 521.791Z" fill="#FFA1A8"/>
<path d="M47.3553 546.848C54.1856 543.193 56.3099 533.853 52.1001 525.986C47.8904 518.119 38.9407 514.704 32.1104 518.359C25.2802 522.014 23.1558 531.354 27.3656 539.221C31.5753 547.088 40.525 550.503 47.3553 546.848Z" fill="#FFA1A8"/>
<path d="M52.065 516.583C54.7835 515.422 55.8883 511.907 54.5324 508.732C53.1766 505.557 49.8737 503.925 47.1551 505.085C44.4365 506.246 43.3318 509.761 44.6876 512.936C46.0434 516.111 49.3464 517.744 52.065 516.583Z" fill="#FFA1A8"/>
<path d="M34.0969 514.067C36.8155 512.907 37.9202 509.392 36.5644 506.217C35.2086 503.042 31.9056 501.409 29.1871 502.57C26.4685 503.731 25.3638 507.246 26.7196 510.421C28.0754 513.596 31.3784 515.228 34.0969 514.067Z" fill="#FFA1A8"/>
<path d="M20.5999 525.411C23.3184 524.25 24.4232 520.735 23.0674 517.56C21.7115 514.385 18.4086 512.753 15.69 513.914C12.9714 515.075 11.8667 518.589 13.2225 521.764C14.5783 524.939 17.8813 526.572 20.5999 525.411Z" fill="#FFA1A8"/>
<g opacity="0.3">
<path d="M88.6431 273.906C88.6431 273.906 104.545 333.686 169.853 351.483C245.984 372.229 313.519 343.258 324.126 311.298C334.734 279.337 88.6431 273.906 88.6431 273.906Z" fill="#000072"/>
</g>
<path d="M337.157 581.341H100.345C92.6867 581.341 86.4548 575.129 86.4548 567.451C86.4548 563.036 90.0298 559.461 94.4449 559.461H343.017C347.432 559.461 351.007 563.036 351.007 567.451C351.027 575.129 344.815 581.341 337.157 581.341Z" fill="#00E6B2"/>
<path d="M337.157 581.829H100.345C92.4329 581.829 85.9861 575.383 85.9861 567.471C85.9861 562.802 89.7956 558.992 94.4646 558.992H343.037C347.706 558.992 351.515 562.802 351.515 567.471C351.515 575.383 345.069 581.829 337.157 581.829ZM94.4646 559.93C90.323 559.93 86.9433 563.31 86.9433 567.451C86.9433 574.836 92.9603 580.853 100.345 580.853H337.157C344.541 580.853 350.558 574.836 350.558 567.451C350.558 563.31 347.178 559.93 343.037 559.93H94.4646Z" fill="#000072"/>
<g opacity="0.3">
<path d="M351.027 567.451C351.027 568.975 350.773 570.42 350.324 571.788C349.074 568.994 346.28 567.041 343.018 567.041H94.4647C92.2572 567.041 90.2645 567.939 88.7994 569.385C88.1156 570.069 87.5491 570.87 87.1584 571.768C86.709 570.401 86.4551 568.936 86.4551 567.432C86.4551 565.224 87.3537 563.231 88.7994 561.766C90.245 560.301 92.2572 559.422 94.4647 559.422H343.037C347.452 559.441 351.027 563.036 351.027 567.451Z" fill="white"/>
</g>
<g opacity="0.25">
<path d="M351.027 567.45C351.027 571.279 349.484 574.756 346.964 577.257C344.463 579.777 340.986 581.32 337.157 581.32H100.345C92.687 581.32 86.4551 575.108 86.4551 567.45C86.4551 565.985 86.8458 564.598 87.5491 563.406C89.6394 568.368 94.5819 571.865 100.325 571.865H337.118C340.947 571.865 344.424 570.322 346.925 567.802C348.175 566.551 349.191 565.067 349.894 563.406C350.636 564.598 351.027 565.985 351.027 567.45Z" fill="#000072"/>
</g>
<path d="M337.157 585.167H100.345C90.577 585.167 82.626 577.216 82.626 567.448C82.626 560.923 87.9397 555.609 94.4646 555.609H343.037C349.562 555.609 354.876 560.923 354.876 567.448C354.876 577.216 346.925 585.167 337.157 585.167ZM94.4646 563.287C92.1594 563.287 90.3035 565.162 90.3035 567.448C90.3035 572.996 94.8163 577.509 100.364 577.509H337.176C342.724 577.509 347.237 572.996 347.237 567.448C347.237 565.143 345.362 563.287 343.076 563.287H94.4646Z" fill="#000072"/>
<path d="M364.858 403.155L341.689 559.46H95.8126L94.9726 553.794L72.6433 403.155C71.9205 398.212 75.7495 393.758 80.7506 393.758H356.771C361.752 393.758 365.581 398.192 364.858 403.155Z" fill="#FF66AC"/>
<path d="M364.858 403.155L341.689 559.46H95.8126L94.9726 553.794L72.6433 403.155C71.9205 398.212 75.7495 393.758 80.7506 393.758H356.771C361.752 393.758 365.581 398.192 364.858 403.155Z" fill="#00E6B2"/>
<path d="M341.689 559.925H95.8126C95.5782 559.925 95.3633 559.749 95.3437 559.514L72.1744 403.209C71.8032 400.709 72.5456 398.189 74.1866 396.274C75.8276 394.36 78.2305 393.266 80.7506 393.266H356.771C359.291 393.266 361.694 394.36 363.335 396.274C364.976 398.189 365.718 400.709 365.347 403.209L342.177 559.514C342.138 559.749 341.943 559.925 341.689 559.925ZM96.2229 558.967H341.279L364.37 403.073C364.702 400.845 364.038 398.599 362.592 396.899C361.127 395.2 358.998 394.223 356.751 394.223H80.731C78.4844 394.223 76.355 395.2 74.8898 396.899C73.4247 398.599 72.78 400.845 73.0926 403.053L96.2229 558.967Z" fill="#000072"/>
<g opacity="0.4">
<path d="M81.4343 412.922C80.7115 407.98 84.5405 403.526 89.5417 403.526H364.819L364.878 403.155C365.601 398.212 361.772 393.758 356.771 393.758H80.7311C75.7299 393.758 71.9009 398.192 72.6237 403.155L94.9531 553.794L95.7931 559.46H103.139L81.4343 412.922Z" fill="white"/>
</g>
<g opacity="0.25">
<path d="M364.858 403.155L341.689 559.46H95.8124L94.9724 553.794C117.751 552.896 225.002 553.15 284.527 513.258C331.941 481.473 336.004 420.678 328.639 393.758H356.751C361.752 393.758 365.581 398.192 364.858 403.155Z" fill="#000072"/>
</g>
<path d="M344.99 563.29H92.511L68.8533 403.702C68.3454 400.245 69.3612 396.748 71.6469 394.091C73.9326 391.434 77.2536 389.93 80.7505 389.93H356.771C360.267 389.93 363.589 391.453 365.874 394.091C368.16 396.748 369.176 400.245 368.668 403.702L344.99 563.29ZM99.1141 555.632H338.387L361.068 402.589C361.264 401.319 360.893 400.088 360.053 399.111C359.212 398.135 358.04 397.607 356.751 397.607H80.731C79.4416 397.607 78.2695 398.135 77.4295 399.111C76.5894 400.088 76.2378 401.319 76.4136 402.589L99.1141 555.632Z" fill="#000072"/>
<g opacity="0.3">
<path d="M114.45 528.75C105.112 508.179 98.3327 473.092 99.8565 452.424C101.38 431.755 113.375 438.084 117.087 464.555C126.953 534.982 118.611 537.931 114.45 528.75Z" fill="white"/>
</g>
<path d="M151.548 330.62L145.277 341.853L115.446 395.225C115.446 395.225 58.265 379.733 28.1996 338.552C18.3926 325.131 11.477 308.955 10.383 289.673C7.92151 246.187 39.4912 241.44 60.9805 254.685C69.5567 259.96 76.7458 272.345 88.6235 286.333C91.886 290.181 95.5001 294.147 99.583 298.132C111.676 309.834 127.91 321.634 151.548 330.62Z" fill="#676789"/>
<path d="M88.643 286.331C87.3927 299.44 82.3329 318.057 66.1183 330.502C55.5495 338.609 41.3666 339.918 28.1995 338.55C18.3926 325.129 11.477 308.954 10.383 289.672C7.94099 246.185 39.4912 241.438 60.9804 254.664C69.5761 259.958 76.7458 272.344 88.643 286.331Z" fill="white"/>
<path d="M115.114 396.453C113.121 396.453 111.207 396.238 109.292 395.925C107.378 395.632 105.502 395.242 103.646 394.773C99.9345 393.874 96.3399 392.585 92.7844 391.198C85.6734 388.443 78.8555 384.946 72.2915 381.078C65.7275 377.191 59.2612 373.108 53.1074 368.517C46.9732 363.945 41.132 358.905 35.7597 353.357C30.3874 347.828 25.5035 341.772 21.3228 335.228C17.1031 328.703 13.743 321.592 11.2619 314.208L10.3242 311.434L9.58187 308.601C9.13254 306.706 8.52694 304.83 8.25344 302.896C7.92133 300.982 7.55016 299.048 7.25712 297.133L6.69058 291.312C6.37801 287.424 6.31941 283.497 6.63198 279.551C6.92501 275.605 7.55015 271.62 8.74183 267.693C9.93351 263.786 11.6917 259.937 14.2314 256.519C16.7319 253.08 20.0335 250.111 23.8429 248.079C25.7184 247.005 27.7501 246.262 29.7818 245.637C30.8172 245.383 31.833 245.071 32.888 244.914C33.4154 244.817 33.9233 244.719 34.4508 244.641L36.0137 244.485C40.1943 244.074 44.3554 244.504 48.3407 245.383C52.3455 246.262 56.155 247.747 59.7495 249.603C60.6677 250.052 61.5273 250.56 62.4064 251.088C62.8362 251.322 63.2855 251.615 63.7348 251.928C64.1842 252.24 64.6335 252.533 65.0633 252.846C66.7433 254.135 68.3062 255.503 69.6932 256.948C72.5259 259.801 74.9288 262.809 77.2731 265.798L84.1301 274.706C88.6624 280.567 93.3314 286.232 98.3912 291.507C103.451 296.782 108.843 301.685 114.645 306.081C117.517 308.308 120.525 310.379 123.573 312.371C125.096 313.368 126.698 314.247 128.261 315.165L133.087 317.724C134.728 318.525 136.329 319.385 137.912 320.264C139.533 321.084 141.116 322.022 142.718 322.921C144.32 323.819 145.882 324.815 147.426 325.89C148.969 326.945 150.512 328.058 151.978 329.445L152.017 329.484C152.564 330.012 152.583 330.872 152.056 331.419C151.782 331.692 151.431 331.829 151.079 331.848C149.067 331.848 147.133 331.575 145.218 331.243C143.323 330.852 141.467 330.325 139.651 329.719C138.732 329.426 137.853 329.035 136.974 328.684C136.076 328.332 135.196 327.961 134.317 327.55C133.438 327.179 132.579 326.73 131.739 326.281C130.879 325.851 130.039 325.382 129.199 324.933C127.538 323.975 125.897 322.94 124.276 321.944L119.431 318.818C116.227 316.708 113.043 314.54 110.015 312.176C103.9 307.526 98.1763 302.349 92.8821 296.821C87.5684 291.292 82.7235 285.392 78.0936 279.414L71.2561 270.545C68.9899 267.654 66.6847 264.821 64.2623 262.36C63.0511 261.11 61.7813 260.016 60.5114 259.019C60.1989 258.765 59.8472 258.57 59.5347 258.335C59.2221 258.121 58.89 257.886 58.4993 257.671C57.7569 257.241 57.0145 256.792 56.2527 256.421C53.2051 254.858 49.9817 253.608 46.6802 252.885C40.0966 251.381 33.1029 251.752 27.5156 254.839C21.8698 257.808 18.0408 263.473 16.0873 269.959C15.1105 273.202 14.5439 276.66 14.29 280.157C14.0165 283.654 14.0555 287.229 14.3486 290.804L14.8565 296.157C15.13 297.915 15.4817 299.673 15.7747 301.451C16.0091 303.228 16.5952 304.928 17.0054 306.667L17.6697 309.265L18.5488 311.805C20.8149 318.584 23.882 325.128 27.8087 331.165C31.6963 337.221 36.2481 342.866 41.2883 348.063C46.3285 353.259 51.8571 358.046 57.7178 362.402C63.5785 366.759 69.7323 370.763 76.1986 374.202C82.6649 377.66 89.3071 380.746 95.9492 383.911C102.611 386.998 109.292 390.065 115.797 394.011L115.817 394.03C116.442 394.402 116.638 395.222 116.266 395.847C115.993 396.218 115.563 396.453 115.114 396.453Z" fill="#000072"/>
<g opacity="0.3">
<path d="M115.446 395.219C115.446 395.219 58.2455 379.727 28.2191 338.546C18.4122 325.125 11.4966 308.949 10.4026 289.667C9.56253 274.586 12.7859 264.173 18.2755 257.531C16.1656 264.584 16.1265 273.687 19.0764 285.077C23.9017 303.772 34.705 317.408 46.0943 329.52C63.5397 348.099 86.123 362.751 104.428 370.428C114.079 374.492 118.923 385.334 115.446 395.219Z" fill="#000072"/>
</g>
<g opacity="0.3">
<path d="M151.548 330.621L145.277 341.854C122.362 329.761 108.081 312.316 99.6025 298.133C111.676 309.835 127.91 321.634 151.548 330.621Z" fill="#000072"/>
</g>
<path d="M362.944 399.266C362.944 399.266 346.827 399.617 334.422 403.603C318.402 408.74 307.599 442.674 315.863 463.011C322.134 478.444 342.998 487.958 355.97 474.849C375.368 455.294 374.568 411.241 362.944 399.266Z" fill="white"/>
<g opacity="0.35">
<path d="M371.09 434.121C370.504 422.712 367.593 412.827 362.944 408.041C362.944 408.041 346.827 408.373 334.422 412.358C323.189 415.973 314.495 433.77 313.186 451.098C311.604 431.503 321.255 407.826 334.422 403.587C346.827 399.602 362.944 399.25 362.944 399.25C368.746 405.247 371.852 419.215 371.09 434.121Z" fill="white"/>
</g>
<g opacity="0.3">
<path d="M355.97 474.869C342.978 487.958 322.134 478.463 315.843 463.03C312.327 454.395 312.268 443.299 314.573 433.004C314.925 434.293 315.355 435.543 315.843 436.755C322.134 452.207 342.978 461.702 355.97 448.593C363.764 440.74 368.297 428.921 370.172 416.828C373.278 435.133 369.645 461.076 355.97 474.869Z" fill="#000072"/>
</g>
<path d="M341.396 484.872C339.657 484.872 337.899 484.696 336.102 484.344C325.728 482.274 316.39 474.459 312.307 464.457C306.427 449.981 309.631 430.973 315.433 418.548C320.004 408.78 326.314 402.158 333.249 399.95C346.045 395.848 362.182 395.457 362.866 395.437L364.526 395.398L365.679 396.59C372.223 403.33 375.759 417.806 374.919 434.392C374.001 452.345 368.082 468.071 358.704 477.527C353.938 482.371 347.921 484.872 341.396 484.872ZM361.225 403.174C356.79 403.389 344.951 404.248 335.594 407.257C330.788 408.8 325.982 414.094 322.388 421.811C316.371 434.704 315.14 451.056 319.418 461.585C322.485 469.146 329.811 475.28 337.606 476.843C341.806 477.683 347.921 477.546 353.254 472.174C371.071 454.181 369.82 414.817 361.225 403.174Z" fill="#000072"/>
<path d="M372.438 263.69C364.018 275.822 348.917 294.068 325.67 310.068C299.433 328.138 262.823 343.357 213.789 343.669C164.735 343.357 128.125 328.119 101.888 310.048C78.6602 294.068 63.5591 275.822 55.1392 263.69C49.1808 255.094 47.1296 244.35 49.6692 234.172C57.1904 204.067 75.8666 164.097 75.8666 164.097C75.8666 164.097 71.9595 21.3692 105.405 5.95556C109.956 3.84571 114.782 3.92386 119.724 5.62346V5.643C151.079 16.4267 187.083 92.616 187.083 92.616C200.153 89.4707 213.789 89.8614 213.789 89.8614C213.789 89.8614 227.425 89.4707 240.494 92.616C240.494 92.616 288.708 -9.45811 322.173 5.95556C355.637 21.3692 351.711 164.097 351.711 164.097C351.711 164.097 370.406 204.067 377.908 234.172C380.448 244.35 378.416 255.094 372.438 263.69Z" fill="#676789"/>
<path d="M325.67 310.067C299.433 328.137 262.823 343.355 213.789 343.668C164.734 343.355 128.125 328.118 101.888 310.047C79.7541 285.061 53.1465 240.891 101.595 207.641C103.998 206 105.893 203.695 106.948 200.979C112.222 187.5 130.879 145.908 160.144 145.029C195.073 143.994 213.789 182.655 213.789 208.54C213.789 182.655 232.523 143.974 267.434 145.029C296.698 145.908 315.335 187.5 320.629 200.979C321.704 203.695 323.579 205.98 325.982 207.641C374.45 240.891 347.804 285.08 325.67 310.067Z" fill="white"/>
<g opacity="0.3">
<path d="M256.044 251.639C255.673 250.193 253.856 249.724 252.841 250.799C228.968 276.176 226.194 242.477 226.194 242.477H213.769H201.364C201.364 242.477 198.59 276.176 174.717 250.799C173.701 249.724 171.885 250.193 171.513 251.639C169.501 259.375 167.391 278.481 193.999 281.196L213.769 270.51L233.539 281.196C260.186 278.481 258.057 259.375 256.044 251.639Z" fill="#000072"/>
</g>
<path d="M217.657 244.077C217.657 245.034 217.618 245.757 217.559 246.597C217.501 247.398 217.442 248.199 217.325 248.98C217.129 250.563 216.875 252.145 216.504 253.727C215.781 256.873 214.746 259.998 213.183 263.026C212.402 264.531 211.464 265.996 210.39 267.402C209.256 268.77 208.026 270.079 206.561 271.212C203.669 273.478 200.016 274.924 196.461 275.275C192.866 275.646 189.467 275.178 186.263 274.279C183.02 273.341 179.738 271.778 177.12 269.297C175.811 268.067 174.737 266.621 173.877 265.097C173.076 263.554 172.432 261.932 172.1 260.291C171.396 257.009 171.513 253.766 172.236 250.738C172.354 250.23 172.881 249.918 173.389 250.035C173.741 250.113 173.995 250.367 174.092 250.699V250.738C174.932 253.61 175.714 256.326 176.944 258.67C177.511 259.862 178.234 260.897 178.957 261.874C179.738 262.811 180.558 263.671 181.477 264.374C183.313 265.839 185.579 266.758 188.06 267.285C190.58 267.793 193.179 267.969 195.464 267.617C196.031 267.52 196.597 267.383 197.144 267.246C197.672 267.051 198.219 266.914 198.707 266.64C199.723 266.211 200.661 265.586 201.54 264.902C202.419 264.198 203.2 263.319 203.923 262.401C204.626 261.424 205.31 260.409 205.877 259.275C207.029 257.029 207.908 254.509 208.592 251.891C208.905 250.582 209.217 249.254 209.432 247.906C209.55 247.241 209.647 246.558 209.745 245.894C209.843 245.249 209.921 244.506 209.96 243.979L209.979 243.803C210.155 241.693 212.011 240.111 214.14 240.287C216.153 240.384 217.676 242.084 217.657 244.077Z" fill="#000072"/>
<path d="M217.657 243.899C217.696 244.427 217.774 245.169 217.872 245.814C217.969 246.478 218.067 247.162 218.184 247.826C218.399 249.174 218.712 250.503 219.024 251.811C219.688 254.429 220.587 256.93 221.74 259.196C222.326 260.329 223.009 261.345 223.693 262.322C224.436 263.24 225.217 264.119 226.096 264.822C226.975 265.506 227.893 266.131 228.929 266.561C229.417 266.834 229.964 266.952 230.492 267.166C231.039 267.303 231.605 267.44 232.172 267.538C234.477 267.889 237.056 267.713 239.576 267.206C242.057 266.678 244.323 265.76 246.159 264.295C247.097 263.572 247.898 262.732 248.679 261.794C249.402 260.817 250.125 259.782 250.692 258.59C251.922 256.266 252.704 253.531 253.544 250.659V250.62C253.7 250.112 254.228 249.819 254.735 249.975C255.068 250.073 255.322 250.346 255.4 250.678C256.123 253.726 256.259 256.969 255.536 260.231C255.204 261.872 254.56 263.494 253.759 265.037C252.899 266.561 251.825 268.026 250.516 269.237C247.898 271.718 244.616 273.281 241.373 274.219C238.15 275.137 234.75 275.606 231.175 275.215C227.62 274.864 223.947 273.437 221.075 271.152C219.61 270.019 218.38 268.71 217.246 267.342C216.172 265.955 215.234 264.471 214.453 262.966C212.89 259.958 211.855 256.813 211.132 253.667C210.761 252.104 210.507 250.522 210.311 248.92C210.214 248.119 210.135 247.338 210.077 246.537C210.018 245.716 209.979 244.974 209.979 244.017C209.96 241.887 211.679 240.149 213.808 240.149C215.84 240.129 217.5 241.692 217.676 243.665L217.657 243.899Z" fill="#000072"/>
<path d="M213.789 306.178C224.787 306.178 235.551 273.26 235.551 273.26C217.032 276.679 213.789 263.883 213.789 263.883C213.789 263.883 210.546 276.698 192.026 273.26C192.026 273.26 202.79 306.178 213.789 306.178Z" fill="#000072"/>
<path d="M213.789 282.109C204.861 282.109 200.387 289.963 200.387 289.963C207.908 308.033 213.789 306.158 213.789 306.158C213.789 306.158 219.649 308.033 227.19 289.963C227.19 289.982 222.717 282.109 213.789 282.109Z" fill="#FF4379"/>
<path d="M213.789 309.697C207.693 309.697 201.755 303.68 195.64 291.275C191.518 282.914 188.802 274.689 188.685 274.357C188.295 273.185 188.568 271.876 189.389 270.958C190.209 270.02 191.459 269.59 192.671 269.825C207.283 272.521 210.116 263.984 210.389 262.987C210.819 261.463 212.226 260.35 213.828 260.408C215.41 260.428 216.797 261.502 217.188 263.026C217.461 263.964 220.294 272.521 234.907 269.825C236.137 269.61 237.368 270.04 238.189 270.958C239.009 271.895 239.263 273.185 238.892 274.357C238.775 274.709 236.079 282.914 231.937 291.275C225.823 303.68 219.884 309.697 213.789 309.697ZM197.203 277.346C202.145 290.376 209.334 302.684 213.789 302.684C218.243 302.684 225.451 290.376 230.394 277.346C222.209 277.541 216.914 274.455 213.789 270.919C210.663 274.435 205.369 277.522 197.203 277.346Z" fill="#000072"/>
<path d="M218.731 252.045C228.636 248.587 232.953 242.023 234.79 237.784C235.923 235.147 235.141 232.041 232.797 230.38C225.979 225.555 213.769 225.555 213.769 225.555C213.769 225.555 201.559 225.555 194.741 230.38C192.397 232.041 191.616 235.147 192.749 237.784C194.566 242.023 198.903 248.587 208.807 252.045C212.031 253.159 215.547 253.159 218.731 252.045Z" fill="#11116D"/>
<path d="M213.789 253.354C212.05 253.354 210.331 253.061 208.67 252.495C198.863 249.076 194.37 242.707 192.319 237.96C191.088 235.088 191.987 231.728 194.468 229.97C201.325 225.105 213.261 225.047 213.769 225.047C214.277 225.047 226.213 225.105 233.07 229.97C235.552 231.728 236.45 235.088 235.219 237.96C233.188 242.707 228.694 249.076 218.868 252.495C217.247 253.081 215.527 253.354 213.789 253.354ZM213.789 226.043C213.672 226.043 201.657 226.102 195.054 230.771C192.944 232.256 192.182 235.127 193.237 237.589C195.191 242.141 199.528 248.275 209.002 251.576C212.089 252.651 215.488 252.651 218.575 251.576C228.05 248.275 232.387 242.141 234.34 237.589C235.395 235.127 234.633 232.275 232.523 230.771C225.92 226.102 213.906 226.043 213.789 226.043Z" fill="#000072"/>
<path d="M213.808 234.423C220.195 234.423 225.373 233.373 225.373 232.079C225.373 230.784 220.195 229.734 213.808 229.734C207.421 229.734 202.243 230.784 202.243 232.079C202.243 233.373 207.421 234.423 213.808 234.423Z" fill="white"/>
<path d="M213.808 234.931C209.647 234.931 201.755 234.345 201.755 232.098C201.755 229.852 209.647 229.266 213.808 229.266C217.969 229.266 225.862 229.852 225.862 232.098C225.862 234.325 217.969 234.931 213.808 234.931ZM213.808 230.223C206.502 230.223 202.731 231.532 202.731 232.079C202.731 232.626 206.502 233.935 213.808 233.935C221.115 233.935 224.885 232.626 224.885 232.079C224.885 231.532 221.115 230.223 213.808 230.223Z" fill="#000072"/>
<path d="M108.55 138.269C119.783 129.361 140.256 114.045 159.206 104.805C162.097 103.398 163.308 99.9013 161.941 96.9905C155.67 83.6086 138.263 48.9718 119.411 33.9097C116.208 31.3506 111.402 32.8157 110.113 36.7229C105.268 51.4333 95.6365 87.418 98.9381 134.011C99.2702 138.777 104.799 141.258 108.55 138.269Z" fill="#FFBDE7"/>
<path d="M319.027 138.269C307.794 129.361 287.321 114.045 268.371 104.805C265.48 103.398 264.269 99.9013 265.636 96.9905C271.907 83.6086 289.314 48.9718 308.166 33.9097C311.369 31.3506 316.175 32.8157 317.465 36.7229C322.309 51.4333 331.941 87.418 328.639 134.011C328.307 138.777 322.778 141.258 319.027 138.269Z" fill="#FFBDE7"/>
<g opacity="0.3">
<path d="M377.908 226.357C375.915 218.387 373.141 209.713 370.133 201.273C371.325 205.122 372.399 208.912 373.317 212.565C375.779 222.45 373.806 232.882 367.984 241.243C359.799 253.043 345.108 270.781 322.524 286.312C297.011 303.875 261.436 318.663 213.769 318.976C166.102 318.663 130.508 303.875 104.994 286.293C82.4306 270.762 67.7397 253.024 59.5543 241.243C53.7522 232.882 51.7791 222.431 54.2406 212.565C55.1587 208.912 56.2332 205.122 57.4249 201.273C54.4164 209.713 51.6423 218.367 49.6497 226.357C47.11 236.516 49.1613 247.26 55.1197 255.876C63.5396 268.007 78.6406 286.254 101.869 302.234C128.105 320.324 164.735 335.542 213.769 335.855C262.784 335.542 299.394 320.324 325.65 302.254C348.898 286.254 363.999 268.007 372.419 255.876C378.416 247.28 380.448 236.535 377.908 226.357Z" fill="#11116D"/>
</g>
<g opacity="0.6">
<path d="M235.473 95.4651C235.473 95.4651 240.103 96.481 244.01 97.5359C246.413 98.1806 248.933 97.0475 250.008 94.8009C258.486 77.2969 293.826 8.10142 323.794 6.8316C323.794 6.8316 308.556 -8.40624 281.382 26.9143C281.363 26.9143 246.745 72.4325 235.473 95.4651Z" fill="white"/>
</g>
<g opacity="0.6">
<path d="M119.724 5.63908C85.9664 4.48648 83.837 129.3 83.7198 151.571C83.7003 153.837 83.2314 156.044 82.3132 158.115L75.7492 172.806C75.7492 172.806 71.9788 21.4044 105.424 5.97119C109.956 3.86134 114.782 3.93948 119.724 5.63908Z" fill="white"/>
</g>
<path d="M213.789 347.518H213.769C172.842 347.244 136.056 336.773 104.447 316.378C78.3866 299.557 61.5273 279.631 51.9939 265.878C45.3518 256.325 43.1638 244.428 45.9574 233.253C52.9707 205.161 69.2439 169.332 72.018 163.296C71.9008 157.455 71.3733 124.556 74.2646 90.4862C78.6992 38.3845 88.3694 9.58888 103.803 2.45834C119.626 -4.82847 139.201 8.2409 161.96 41.3149C175.069 60.3622 185.599 80.8942 189.213 88.2005C201.11 85.7977 212.46 85.993 213.789 86.0126C215.117 85.9735 226.467 85.7977 238.365 88.2005C241.979 80.8942 252.508 60.3817 265.617 41.3149C288.376 8.2409 307.951 -4.82847 323.775 2.45834C339.208 9.56934 348.878 38.365 353.313 90.4862C356.204 124.556 355.696 157.455 355.559 163.296C358.333 169.313 374.626 205.141 381.62 233.253C384.413 244.447 382.206 256.325 375.583 265.897C366.03 279.65 349.191 299.577 323.13 316.397C291.521 336.792 254.735 347.264 213.808 347.537C213.808 347.518 213.789 347.518 213.789 347.518ZM112.535 8.27998C110.581 8.27998 108.745 8.67069 107.026 9.47165C99.9736 12.7146 87.3535 27.6399 81.9421 91.0918C78.7969 128.053 79.7151 163.647 79.7346 163.999C79.7541 164.605 79.6369 165.191 79.3829 165.738C79.1876 166.128 60.7654 205.727 53.42 235.109C51.1734 244.135 52.9512 253.746 58.3235 261.482C74.5381 284.827 122.108 339.215 213.808 339.801C305.509 339.195 353.078 284.827 369.293 261.482C374.665 253.746 376.443 244.135 374.196 235.109C366.87 205.708 348.429 166.128 348.233 165.738C347.979 165.191 347.862 164.605 347.882 163.999C347.882 163.647 348.819 128.053 345.674 91.0918C340.263 27.6399 327.643 12.7146 320.59 9.47165C309.006 4.13841 291.775 16.9734 272.025 45.6323C256.142 68.6844 244.108 94.0027 243.991 94.2566C243.209 95.8976 241.393 96.7767 239.615 96.3469C227.229 93.3775 214.062 93.7096 213.925 93.7096C213.847 93.7096 213.769 93.7096 213.71 93.7096C213.574 93.7096 200.407 93.3775 188.021 96.3469C186.243 96.7767 184.426 95.8976 183.645 94.2566C183.528 94.0027 171.494 68.6844 155.611 45.6323C138.772 21.2322 123.749 8.27998 112.535 8.27998Z" fill="#000072"/>
<path d="M177.109 209.325C178.637 194.405 171.045 181.406 160.15 180.291C149.256 179.175 139.186 190.364 137.658 205.283C136.129 220.203 143.722 233.202 154.616 234.317C165.51 235.433 175.581 224.244 177.109 209.325Z" fill="#000072"/>
<path d="M165.513 196.599C165.995 191.898 163 187.74 158.825 187.313C154.65 186.885 150.875 190.349 150.393 195.05C149.912 199.751 152.906 203.909 157.081 204.337C161.257 204.765 165.032 201.3 165.513 196.599Z" fill="white"/>
<g opacity="0.3">
<path d="M150.63 214.092C147.602 213.779 144.886 215.987 144.574 219.015C144.261 222.043 146.469 224.758 149.497 225.071C152.525 225.384 155.24 223.176 155.553 220.148C155.885 217.1 153.677 214.405 150.63 214.092Z" fill="white"/>
</g>
<path d="M286.383 194.51C283.238 195.526 280.034 196.679 277.084 198.007C274.115 199.336 271.302 200.859 268.704 202.578C267.375 203.399 266.164 204.376 264.933 205.294L263.194 206.798C262.921 207.052 262.608 207.287 262.335 207.56L261.534 208.381C259.307 210.471 257.549 212.972 255.81 215.511L249.891 209.025C250.184 208.889 250.379 208.83 250.574 208.752C250.789 208.674 250.965 208.595 251.16 208.537C251.551 208.4 251.922 208.283 252.294 208.166C253.055 207.931 253.798 207.755 254.54 207.58C256.044 207.228 257.549 207.013 259.053 206.857C262.081 206.564 265.129 206.661 268.098 207.169C271.067 207.697 273.978 208.537 276.635 209.865C279.331 211.096 281.734 212.854 283.883 214.73C284.547 215.296 284.606 216.312 284.039 216.957C283.609 217.445 282.965 217.601 282.398 217.426L282.222 217.367C280.933 216.976 279.741 216.488 278.51 216.136C277.26 215.824 276.049 215.433 274.799 215.257C272.357 214.73 269.895 214.534 267.453 214.554C265.031 214.534 262.608 214.808 260.264 215.296C259.678 215.413 259.092 215.57 258.525 215.707L256.806 216.195C256.24 216.371 255.693 216.547 255.165 216.761C254.892 216.859 254.638 216.976 254.384 217.074C254.247 217.133 254.13 217.172 254.032 217.23L253.778 217.347L253.681 217.387C251.375 218.441 248.66 217.426 247.605 215.12C246.96 213.694 247.117 212.112 247.839 210.862C249.832 207.56 252.059 204.298 254.931 201.66C256.259 200.234 257.881 199.14 259.405 197.929C261.046 196.894 262.647 195.8 264.386 195.018C267.824 193.319 271.439 192.127 275.131 191.502C278.843 190.896 282.515 190.74 286.286 191.385C287.145 191.541 287.731 192.361 287.595 193.221C287.497 193.826 287.067 194.295 286.52 194.471L286.383 194.51Z" fill="#000072"/>
<path d="M258.213 448.109L228.792 478.643C227.21 480.304 224.533 480.304 222.873 478.741L207.791 464.402C206.131 462.819 206.033 460.045 207.615 458.385C209.198 456.724 211.874 456.626 213.632 458.209L225.666 469.676L252.411 442.014C245.749 436.466 237.232 433.125 227.894 433.125C206.697 433.125 189.584 450.238 189.584 471.435C189.584 492.631 206.697 509.744 227.894 509.744C249.09 509.744 266.203 492.631 266.203 471.435C266.164 462.624 263.214 454.575 258.213 448.109ZM240.455 489.739H212.148C209.843 489.739 207.889 487.805 207.889 485.481C207.889 483.175 209.823 481.222 212.148 481.222H240.455C242.76 481.222 244.714 483.156 244.714 485.481C244.714 487.884 242.858 489.739 240.455 489.739Z" fill="white"/>
</svg>
