<svg width="61" height="52" viewBox="0 0 61 52" fill="none" xmlns="http://www.w3.org/2000/svg">
<path d="M43.9136 23.273C44.2899 24.7574 44.5262 26.4488 44.43 28.2552C45.5924 27.5276 49.6359 24.7261 48.8351 21.4269C48.4337 19.7711 45.8496 23.6765 43.9136 23.273Z" fill="#676789"/>
<g opacity="0.5">
<path d="M48.6593 22.1701C48.6593 22.1701 44.9232 25.7076 44.0388 23.3807C44.0388 23.3807 47.6704 21.9945 48.3541 21.0391C48.352 21.0391 48.584 21.3025 48.6593 22.1701Z" fill="white"/>
</g>
<path d="M44.5638 28.4659C44.4446 28.4659 44.3275 28.4032 44.2669 28.2903C44.177 28.1272 44.2376 27.9202 44.4007 27.8303C44.4509 27.8031 49.3641 25.058 48.5027 21.5101C48.4839 21.4369 48.4671 21.393 48.4546 21.37C48.2622 21.4223 47.7981 21.8592 47.4845 22.154C46.4789 23.099 45.1011 24.3932 43.7965 23.3813C43.648 23.2663 43.6229 23.053 43.7358 22.9067C43.8508 22.7582 44.0641 22.7332 44.2104 22.8461C44.9965 23.4545 45.9081 22.706 47.0204 21.6606C47.6936 21.0292 48.1807 20.5714 48.6595 20.7135C48.9062 20.7867 49.0734 21.002 49.1592 21.3512C50.1418 25.4009 44.9464 28.3028 44.7248 28.4241C44.6746 28.4513 44.6202 28.4659 44.5638 28.4659Z" fill="#000072"/>
<g opacity="0.3">
<path d="M47.4593 25.3594C47.4593 25.3594 45.1282 23.6262 45.9248 23.0074C45.9248 23.0074 44.5512 23.9168 43.7441 22.9844L44.5365 27.8913C44.5386 27.8913 46.6795 26.7142 47.4593 25.3594Z" fill="#000072"/>
</g>
<path d="M59.6711 30.8846C56.9135 39.099 50.6831 46.0862 41.9983 49.5234C26.3597 55.7077 8.66387 48.0431 2.47952 32.4025C0.9073 28.4301 0.229907 24.3239 0.351169 20.3077C0.489157 15.6558 1.69759 11.1252 3.82803 7.06088C4.98211 4.85935 6.4038 2.79372 8.07219 0.920437C9.14473 -0.283817 11.1456 0.500202 11.1184 2.11215C11.0515 6.00925 11.7351 9.98161 13.2572 13.8306C13.7109 14.9742 14.2231 16.0761 14.7939 17.1319C16.3013 19.9251 18.2038 22.4047 20.4012 24.5267C22.011 26.0822 23.7798 27.4454 25.6677 28.5995C25.7618 28.6559 25.8538 28.7145 25.9478 28.7688C25.9917 28.796 26.0357 28.8211 26.0796 28.8462C26.1423 28.8838 26.2029 28.9193 26.2656 28.9549C26.5604 29.1263 26.8594 29.2936 27.1605 29.4546C28.5027 30.1759 29.8993 30.7947 31.3335 31.309C32.4165 31.6958 33.5225 32.022 34.6452 32.2854C34.9505 32.3565 35.2557 32.4234 35.5631 32.4861C36 32.5739 36.4391 32.6534 36.8802 32.7224C38.674 33.0046 40.4992 33.1259 42.337 33.0799C43.2778 33.0569 44.2228 32.99 45.1678 32.875C47.7185 32.5718 50.2734 31.9362 52.7759 30.9473C53.7795 30.5501 54.7538 30.1027 55.6904 29.6156C56.1796 29.3605 56.6605 29.0929 57.1309 28.8148C58.5254 27.9911 60.1875 29.35 59.6711 30.8846Z" fill="#FFDA22"/>
<g opacity="0.5">
<path d="M57.1331 28.7075C56.6627 28.9856 56.1818 29.2532 55.6926 29.5083C54.7559 29.9975 53.7817 30.4428 52.7781 30.8401C50.2755 31.8311 47.7207 32.4645 45.17 32.7677C44.225 32.8806 43.28 32.9496 42.3392 32.9726C40.5014 33.0186 38.6741 32.8973 36.8824 32.6151C36.4413 32.5461 36.0022 32.4687 35.5652 32.3788C35.2579 32.3161 34.9527 32.2492 34.6474 32.1781C33.5247 31.9147 32.4187 31.5885 31.3357 31.2017C29.9015 30.6895 28.5049 30.0686 27.1626 29.3473C26.8616 29.1863 26.5626 29.019 26.2678 28.8476C26.2051 28.8121 26.1445 28.7765 26.0817 28.7389C26.0378 28.7138 25.9939 28.6866 25.95 28.6615C25.8559 28.6051 25.7619 28.5486 25.6699 28.4922C23.7819 27.3381 22.0132 25.975 20.4034 24.4195C18.2018 22.2974 16.3014 19.8178 14.7919 17.0246C14.2211 15.9688 13.7068 14.867 13.2552 13.7233C11.7331 9.87433 11.0495 5.89987 11.1164 2.00277C11.1456 0.390828 9.14483 -0.393192 8.0702 0.811062C6.39972 2.68435 4.97803 4.74998 3.82604 6.9515C2.83922 8.83733 2.05311 10.8235 1.47607 12.8745C1.99248 11.3336 2.62806 9.83669 3.38072 8.39828C4.5348 6.19466 5.95648 4.13112 7.62488 2.25784C8.69742 1.05359 10.6982 1.8376 10.6711 3.44955C10.6042 7.34665 11.2878 11.319 12.8099 15.168C13.2635 16.3116 13.7758 17.4135 14.3465 18.4693C15.8539 21.2625 17.7565 23.7421 19.9538 25.8641C21.5637 27.4196 23.3324 28.7828 25.2204 29.9369C25.3144 29.9933 25.4064 30.0519 25.5005 30.1062C25.5444 30.1334 25.5883 30.1585 25.6322 30.1836C25.695 30.2212 25.7556 30.2567 25.8183 30.2923C26.1131 30.4637 26.4121 30.631 26.7131 30.792C28.0554 31.5133 29.452 32.1321 30.8862 32.6464C31.9692 33.0332 33.0752 33.3594 34.1979 33.6228C34.5032 33.6939 34.8084 33.7608 35.1157 33.8235C35.5527 33.9134 35.9917 33.9908 36.4329 34.0598C38.2267 34.342 40.0519 34.4633 41.8897 34.4173C42.8305 34.3943 43.7755 34.3274 44.7205 34.2124C47.2712 33.9092 49.826 33.2737 52.3286 32.2847C53.3322 31.8875 54.3064 31.4401 55.2431 30.953C55.7323 30.6979 56.2132 30.4303 56.6836 30.1522C57.9359 29.41 59.4057 30.4345 59.3137 31.7642C59.4371 31.4359 59.5562 31.1077 59.667 30.7752C60.1876 29.2407 58.5255 27.8817 57.1331 28.7075Z" fill="white"/>
</g>
<g opacity="0.3">
<path d="M22.4232 30.7598C22.4734 31.2679 22.212 31.7132 21.8692 32.0331C20.8384 32.9885 18.731 32.4554 17.165 30.8414C15.597 29.2273 15.1642 27.1429 16.195 26.1853C17.2257 25.2299 19.3331 25.763 20.8991 27.377C20.897 27.377 22.21 28.6461 22.4232 30.7598Z" fill="#000072"/>
</g>
<g opacity="0.3">
<path d="M59.4851 29.3737C56.2361 35.7608 50.7334 41.0336 43.5455 43.877C41.1077 44.8408 38.6197 45.468 36.1339 45.7816C36.1945 45.6206 36.2426 45.4555 36.276 45.284C36.7381 42.9487 34.4655 40.6615 31.1998 40.1764C27.932 39.6914 24.9109 41.1925 24.4468 43.5299C24.3485 44.0233 24.3736 44.5146 24.5032 44.9851C15.5006 42.5786 7.71474 36.087 4.02462 26.7582C2.4524 22.7837 1.77501 18.6775 1.89627 14.6613C1.92763 13.5887 2.01753 12.5246 2.1597 11.4688C1.39031 14.0152 0.949171 16.6705 0.869724 19.3654C0.748462 23.3817 1.42586 27.4878 2.99808 31.4602C9.18242 47.0988 26.8783 54.7633 42.5168 48.579C49.1591 45.951 54.3587 41.2489 57.6746 35.5078C58.4648 34.0234 59.1318 32.4763 59.667 30.8811C59.8594 30.3249 59.759 29.7876 59.4851 29.3737Z" fill="#000072"/>
</g>
<path d="M30.8382 52C26.6338 52 22.4314 51.1261 18.4528 49.3824C10.8802 46.0644 5.07009 40.0139 2.09291 32.3431C0.00218815 26.9595 -0.535127 21.1285 0.539503 15.4793C1.58486 9.98074 4.10209 4.86893 7.81938 0.697948C8.40479 0.0414628 9.31216 -0.173881 10.1338 0.145999C10.9534 0.465879 11.474 1.23944 11.4572 2.11546C11.3882 6.09618 12.1033 10.0058 13.5856 13.7399C16.5523 21.2142 22.2725 27.0849 29.6925 30.2753C37.1145 33.4658 45.3143 33.5745 52.7803 30.5848C54.2208 30.0077 55.6216 29.3178 56.9471 28.5338C57.7102 28.0822 58.6468 28.1491 59.3347 28.7073C60.0267 29.2676 60.2818 30.1395 59.9975 30.9862C57.0914 39.6439 50.5558 46.5244 42.0633 49.8612C38.4296 51.2892 34.6329 52 30.8382 52ZM9.35188 0.677041C9.00482 0.677041 8.63058 0.802484 8.32325 1.14745C0.754847 9.64204 -1.39023 21.5027 2.72221 32.0984C5.63458 39.5999 11.3172 45.5188 18.7246 48.7636C26.1278 52.0084 34.3297 52.1735 41.8145 49.2298C50.1188 45.9641 56.5122 39.2362 59.3535 30.7688C59.5814 30.0872 59.272 29.529 58.9061 29.2321C58.536 28.9331 57.9151 28.7449 57.2879 29.115C55.9331 29.9157 54.501 30.6224 53.0291 31.212C45.3959 34.2707 37.0121 34.1599 29.4228 30.8963C21.8356 27.6348 15.9857 21.6302 12.9542 13.9886C11.4384 10.171 10.7067 6.17354 10.7778 2.10291C10.7903 1.38579 10.3241 0.946744 9.88292 0.775305C9.72821 0.714674 9.54423 0.677041 9.35188 0.677041Z" fill="#000072"/>
<g opacity="0.3">
<path d="M10.0583 21.0051C11.4052 20.1113 11.6478 18.1069 10.6002 16.5282C9.55253 14.9494 7.61137 14.3941 6.26446 15.2879C4.91756 16.1817 4.67497 18.1861 5.72261 19.7649C6.77026 21.3436 8.71142 21.8989 10.0583 21.0051Z" fill="#000072"/>
</g>
<path d="M20.8537 32.2119C21.4952 31.6047 20.9215 29.9567 19.5721 28.531C18.2228 27.1053 16.6089 26.4418 15.9673 27.049C15.3257 27.6562 15.8995 29.3042 17.2488 30.7299C18.5982 32.1556 20.2121 32.8191 20.8537 32.2119Z" fill="#FFDA22"/>
<path d="M22.5465 30.7666C22.5465 30.9548 22.5256 31.1471 22.4796 31.3374C22.4315 31.5255 22.3542 31.7116 22.2475 31.881C22.0343 32.2217 21.6893 32.4831 21.3109 32.6232C20.9304 32.7611 20.5248 32.7904 20.138 32.757C19.7491 32.7193 19.3749 32.6211 19.0174 32.4831C18.6599 32.3472 18.3233 32.1674 18.0055 31.9604C17.6877 31.7534 17.3908 31.5193 17.1127 31.26C16.5671 30.7394 16.0925 30.1352 15.76 29.4432C15.5949 29.0982 15.4632 28.7323 15.3837 28.3497C15.3064 27.9671 15.2771 27.5615 15.3524 27.1559C15.4234 26.7524 15.6074 26.3468 15.9106 26.0416C16.2095 25.7342 16.6151 25.5503 17.0145 25.4834C17.4159 25.4164 17.8152 25.4415 18.1874 25.5293C18.5616 25.6151 18.917 25.7531 19.2495 25.9245C19.9143 26.2736 20.4934 26.7524 20.968 27.3085C21.0036 27.3504 20.9994 27.4152 20.9576 27.4507C20.9178 27.4842 20.8614 27.4821 20.8238 27.4486C20.2948 26.9761 19.7073 26.5747 19.0696 26.3071C18.7519 26.1733 18.4236 26.0688 18.0912 26.0186C17.7609 25.9663 17.4263 25.9621 17.1211 26.0311C16.8138 26.098 16.5441 26.2486 16.3454 26.4618C16.1447 26.6751 16.0256 26.9552 15.9796 27.2605C15.9357 27.5657 15.9587 27.8919 16.0277 28.2117C16.0987 28.5316 16.2158 28.8473 16.3643 29.1484C16.6611 29.7526 17.0772 30.3066 17.5706 30.7791C18.0577 31.2579 18.6264 31.6552 19.2432 31.929C19.5505 32.067 19.8746 32.1653 20.2007 32.2155C20.5269 32.2656 20.8572 32.2615 21.1625 32.1737C21.4656 32.09 21.7416 31.9165 21.9381 31.6635C22.1367 31.4126 22.2517 31.0907 22.2956 30.7499V30.7478C22.304 30.6788 22.3667 30.6307 22.4357 30.6391C22.5005 30.6516 22.5465 30.706 22.5465 30.7666Z" fill="#000072"/>
<path d="M16.3202 32.1501C15.6993 31.8866 15.1641 31.4183 14.7626 30.8664C14.3591 30.3123 14.0811 29.6684 13.941 28.9993C13.8009 28.3303 13.7842 27.6237 13.964 26.9484C14.0518 26.6117 14.1919 26.2835 14.3947 25.9971C14.5996 25.7127 14.8672 25.4681 15.1787 25.3218C15.2289 25.2988 15.2895 25.3197 15.3146 25.372C15.3334 25.4138 15.323 25.4619 15.2895 25.4911L15.2874 25.4932C14.8254 25.9093 14.5933 26.4759 14.5076 27.0654C14.4239 27.6571 14.4678 28.2676 14.5996 28.8551C14.7334 29.4447 14.955 30.0154 15.2623 30.5381C15.5697 31.0608 15.9648 31.5333 16.4478 31.9368L16.4498 31.9389C16.5042 31.9828 16.5105 32.0643 16.4666 32.1166C16.431 32.1584 16.3704 32.171 16.3202 32.1501Z" fill="#000072"/>
<path d="M7.66948 20.6082C8.76864 20.2737 9.3237 18.8984 8.90926 17.5364C8.49482 16.1743 7.26781 15.3412 6.16866 15.6757C5.06951 16.0101 4.51444 17.3854 4.92888 18.7475C5.34332 20.1095 6.57033 20.9426 7.66948 20.6082Z" fill="#FFDA22"/>
<path d="M10.3639 32.8047C10.1276 32.9636 9.91227 33.1559 9.71992 33.3775C8.36305 34.9456 8.74565 37.4503 10.5771 38.9702C11.9528 40.1118 13.7529 40.3752 15.137 39.7689" fill="#FFD243"/>
<path d="M10.4349 32.9062C10.2489 33.0631 10.0816 33.2324 9.93316 33.4185C9.79308 33.6108 9.65719 33.8032 9.55892 34.0143C9.49829 34.1147 9.46484 34.2276 9.42093 34.3342C9.37285 34.4387 9.35194 34.5558 9.32058 34.6645C9.28504 34.7733 9.27458 34.8903 9.25368 35.0032C9.22859 35.1161 9.23277 35.2332 9.22232 35.3461C9.20559 35.8061 9.2704 36.2681 9.42093 36.7051C9.56519 37.1441 9.78681 37.5581 10.0607 37.9323C10.6106 38.685 11.3988 39.2662 12.2831 39.5924C13.1696 39.9164 14.1648 39.9729 15.0993 39.6718H15.1014C15.1537 39.6551 15.2122 39.6844 15.229 39.7366C15.2436 39.7847 15.2227 39.8349 15.1809 39.8558C14.7251 40.1004 14.2087 40.2489 13.6839 40.2865C13.1591 40.322 12.6218 40.2739 12.1138 40.1213C11.6016 39.9771 11.1165 39.7408 10.6775 39.4397C10.2363 39.1387 9.84953 38.7582 9.52547 38.3338C9.20141 37.9052 8.95052 37.4201 8.79163 36.9037C8.63901 36.3873 8.5721 35.8374 8.63064 35.298C8.73309 34.2171 9.37285 33.1927 10.299 32.6951C10.3597 32.6616 10.437 32.6846 10.4705 32.7453C10.4935 32.8038 10.4788 32.8686 10.4349 32.9062Z" fill="#000072"/>
<path d="M45.3727 36.708C46.0041 36.1644 46.8091 35.6814 47.7373 35.3197C50.5222 34.2305 53.3697 34.6424 54.0994 36.2397C54.8291 37.837 53.1628 40.0134 50.3779 41.1027C47.5931 42.1919 44.7455 41.7801 44.0159 40.1828" fill="#FFDA22"/>
<path d="M54.3692 36.7265C54.3985 37.3015 54.2271 37.8764 53.9511 38.3719C53.6751 38.8716 53.3092 39.3086 52.9036 39.6974C52.498 40.0863 52.0548 40.4313 51.5844 40.7344C51.3481 40.887 51.1077 41.0292 50.8568 41.1588C50.7314 41.2236 50.6017 41.2864 50.4659 41.3428C50.3383 41.4014 50.2108 41.4599 50.077 41.5101C49.0295 41.924 47.8796 42.1247 46.7339 42.0056C46.4475 41.9721 46.1632 41.9199 45.883 41.8425C45.6049 41.7589 45.329 41.6543 45.0718 41.5122C44.8167 41.3679 44.5721 41.1923 44.3714 40.9749C44.1707 40.7574 44.0139 40.4982 43.9261 40.2201C43.9094 40.1657 43.9386 40.1093 43.993 40.0926C44.0369 40.0779 44.085 40.0968 44.108 40.1344L44.1101 40.1365C44.2522 40.356 44.432 40.54 44.6307 40.6926C44.8335 40.841 45.0572 40.9623 45.2913 41.0543C45.5255 41.1484 45.7722 41.2174 46.0252 41.2655C46.2761 41.3177 46.5332 41.347 46.7904 41.3616C47.3068 41.3972 47.8295 41.3637 48.348 41.2947C48.8685 41.2278 49.3849 41.117 49.8951 40.9728C50.0226 40.9372 50.1481 40.8954 50.2777 40.8599C50.3948 40.8181 50.5139 40.7637 50.6331 40.7072C50.8694 40.5943 51.1035 40.4647 51.3314 40.3288C51.7872 40.0528 52.2241 39.7434 52.6214 39.3922C53.0186 39.0388 53.3803 38.6479 53.6563 38.2005C53.9302 37.7572 54.1142 37.2534 54.1204 36.7328C54.1204 36.6638 54.179 36.6073 54.248 36.6094C54.3128 36.6073 54.3671 36.6617 54.3692 36.7265Z" fill="#000072"/>
<path d="M36.7443 41.1856C37.4656 41.9884 37.911 42.9355 37.9779 43.96C38.097 45.8144 36.945 47.3887 35.0759 48.4592C33.8487 49.1617 32.3141 49.6007 30.629 49.6509C26.3723 49.7826 22.7595 47.3992 22.5609 44.3258C22.4877 43.1822 22.8954 42.1055 23.6585 41.196C24.9443 39.6635 27.2378 38.7164 29.9119 38.6328" fill="#FFDA22"/>
<path d="M38.1013 43.9546C38.1535 44.402 38.1305 44.8619 38.026 45.3052C37.9235 45.7505 37.7417 46.177 37.5054 46.568C37.0287 47.352 36.3471 47.9876 35.5966 48.4851C34.8481 48.9911 34.0076 49.357 33.1442 49.6079C32.2765 49.8546 31.3775 49.9758 30.4806 49.9926C29.5816 50.0009 28.6805 49.9089 27.8066 49.6915C26.9347 49.472 26.0859 49.1416 25.3144 48.6712C24.5429 48.2071 23.8446 47.6008 23.3178 46.8607C23.0585 46.4906 22.8411 46.085 22.6927 45.6585C22.5421 45.232 22.4627 44.7825 22.4585 44.3351C22.4585 44.2786 22.5024 44.2326 22.5589 44.2326C22.6111 44.2326 22.655 44.2703 22.6613 44.3204V44.3225C22.7637 45.1693 23.1296 45.9575 23.6586 46.6056C24.1854 47.2579 24.8628 47.7806 25.5967 48.1862C26.3347 48.5876 27.1333 48.8845 27.9571 49.0664C28.7787 49.2524 29.6255 49.3382 30.4701 49.3193C31.3148 49.3047 32.1573 49.1939 32.9706 48.9744C33.786 48.759 34.5658 48.4329 35.283 47.9938C35.9959 47.5527 36.6482 47.0028 37.1207 46.3192C37.359 45.9805 37.5451 45.6041 37.6727 45.209C37.7981 44.8118 37.8608 44.3936 37.8566 43.9713C37.8566 43.9023 37.911 43.8458 37.98 43.8438C38.0406 43.8438 38.0929 43.8918 38.1013 43.9546Z" fill="#000072"/>
<path d="M5.77047 19.8517C6.21162 20.3953 6.77193 20.8322 7.40333 21.0789C8.02845 21.3277 8.72466 21.3842 9.33724 21.1898C9.94982 20.9974 10.46 20.5479 10.7464 19.9813C11.0433 19.4126 11.1081 18.7311 11.0056 18.085C10.7945 16.7867 9.84528 15.5866 8.58667 15.1455C7.96364 14.9176 7.26325 14.903 6.64649 15.1497C6.48968 15.2061 6.34542 15.2918 6.20116 15.3755C6.06108 15.4675 5.92937 15.5741 5.80811 15.6933C5.68685 15.8124 5.57813 15.9441 5.48196 16.0863C5.37951 16.2264 5.31052 16.3853 5.22689 16.54L5.22062 16.5525C5.19344 16.6006 5.13281 16.6194 5.08472 16.5944C5.03872 16.5693 5.01991 16.517 5.03872 16.471C5.10563 16.2975 5.15998 16.1156 5.25198 15.9504C5.33979 15.7832 5.4485 15.6243 5.56977 15.4758C5.81229 15.1789 6.12799 14.9385 6.47505 14.7671C7.17544 14.4221 8.018 14.3824 8.7602 14.6165C9.13235 14.7294 9.49195 14.8925 9.81183 15.112C10.1317 15.3316 10.4223 15.5929 10.6795 15.8856C10.9283 16.1825 11.1415 16.5107 11.313 16.8599C11.476 17.2132 11.5994 17.5874 11.6705 17.9721C11.7416 18.3589 11.7437 18.7582 11.6914 19.1492C11.637 19.5402 11.5283 19.9311 11.336 20.2866C11.1457 20.642 10.8844 20.9598 10.5708 21.2148C10.2613 21.4762 9.89128 21.6602 9.5045 21.7626C9.11562 21.8671 8.71421 21.886 8.32533 21.8421C7.93646 21.7919 7.56222 21.6748 7.21516 21.5096C6.52522 21.1688 5.95237 20.6315 5.56767 19.9939C5.53213 19.9353 5.55095 19.858 5.61158 19.8224C5.66176 19.7911 5.73075 19.8036 5.77047 19.8517Z" fill="#000072"/>
<path d="M7.14419 13.6493C6.46262 13.7267 5.81241 13.965 5.28136 14.3644C5.21237 14.4104 5.15383 14.4689 5.08902 14.5232L4.90294 14.6842L4.73569 14.8661C4.68133 14.9268 4.62279 14.9853 4.57679 15.0543L4.43044 15.2529C4.37817 15.3156 4.34472 15.393 4.30082 15.462C4.26109 15.5331 4.21719 15.6021 4.17955 15.6752L4.08129 15.901L4.03111 16.0139C4.01648 16.0516 4.00602 16.0913 3.99348 16.131L3.91612 16.3652C3.88894 16.4425 3.87849 16.5241 3.85758 16.6035C3.84086 16.6851 3.81786 16.7624 3.80532 16.8439C3.75932 17.1701 3.73005 17.5004 3.75305 17.8308C3.77814 18.4914 3.9433 19.1458 4.21092 19.7563C4.74823 20.9731 5.71832 22.0164 6.93721 22.5725C7.54352 22.8464 8.20837 23.0137 8.88158 22.9969C9.5527 22.9823 10.2217 22.7941 10.8134 22.4387H10.8155C10.8636 22.4094 10.9263 22.4262 10.9535 22.4743C10.9807 22.5182 10.9681 22.5746 10.9305 22.6039C10.3639 23.0617 9.64678 23.3398 8.90667 23.4193C8.16446 23.4924 7.40971 23.3607 6.71769 23.0847C6.02357 22.8109 5.39217 22.3864 4.86322 21.8617C4.33218 21.3369 3.90567 20.7118 3.59624 20.0323C3.28891 19.3507 3.11538 18.6064 3.09029 17.8559C3.07356 17.1053 3.20319 16.3401 3.5377 15.6585C3.86386 14.9769 4.3719 14.3727 5.01375 13.9755C5.65142 13.5762 6.40199 13.3754 7.13165 13.4005C7.20064 13.4026 7.255 13.4612 7.25291 13.5302C7.25291 13.5929 7.20482 13.6431 7.14419 13.6493Z" fill="#000072"/>
<g opacity="0.3">
<path d="M14.6905 38.6428C15.8421 37.8787 16.0278 36.1322 15.1053 34.742C14.1828 33.3518 12.5014 32.8443 11.3498 33.6085C10.1982 34.3727 10.0125 36.1192 10.935 37.5094C11.8575 38.8996 13.5389 39.407 14.6905 38.6428Z" fill="#000072"/>
</g>
<path d="M14.1312 38.4578C13.3179 38.8237 12.2475 38.6292 11.4133 37.8808C10.3052 36.8835 10.0397 35.282 10.8216 34.3014C10.9324 34.1635 11.0579 34.0443 11.1959 33.946C11.9025 33.9293 12.6615 34.2095 13.297 34.7802C14.4239 35.7921 14.7605 37.3727 14.1312 38.4578Z" fill="#FFDA22"/>
<path d="M14.658 34.3284C14.2085 34.0252 13.7005 33.8245 13.182 33.7806C12.9248 33.7555 12.6656 33.7681 12.4189 33.8224C12.1722 33.8747 11.938 33.9646 11.731 34.0942C11.6809 34.1298 11.6286 34.159 11.5805 34.1967C11.5324 34.2343 11.4864 34.2719 11.4425 34.3137C11.3547 34.3953 11.2732 34.4852 11.2063 34.5835C11.0641 34.7758 10.9637 34.9953 10.9052 35.2274C10.7923 35.6936 10.8571 36.2017 11.0578 36.6554C11.4592 37.5669 12.4126 38.2422 13.4266 38.3133C13.9305 38.3447 14.4511 38.2318 14.8671 37.9349C15.2873 37.6443 15.5884 37.178 15.695 36.6491C15.7055 36.5947 15.7599 36.5592 15.8142 36.5696C15.8644 36.5801 15.8978 36.624 15.8957 36.6721C15.8853 36.9669 15.8163 37.2658 15.6825 37.5397C15.5529 37.8157 15.3605 38.0624 15.1264 38.2673C14.656 38.6771 14.0225 38.8778 13.4036 38.8715C12.1555 38.8632 10.9679 38.0812 10.4411 36.9313C10.1797 36.3585 10.094 35.6894 10.2613 35.058C10.3491 34.7444 10.4996 34.4496 10.7003 34.1946C10.8947 33.9374 11.1519 33.7221 11.4321 33.5736C11.7122 33.421 12.0196 33.3228 12.329 33.2809C12.6384 33.2412 12.9499 33.2538 13.2489 33.3102C13.8468 33.4273 14.3988 33.72 14.8169 34.1319C14.8671 34.1799 14.8671 34.2594 14.819 34.3096C14.7772 34.3556 14.7082 34.3618 14.658 34.3284Z" fill="#000072"/>
<g opacity="0.3">
<path d="M36.1077 44.6679C36.3322 42.3267 33.9034 40.1784 30.6829 39.8697C27.4624 39.5609 24.6697 41.2086 24.4452 43.5499C24.2208 45.8911 26.6496 48.0394 29.8701 48.3481C33.0906 48.6568 35.8833 47.0092 36.1077 44.6679Z" fill="#000072"/>
</g>
<path d="M34.4915 46.0007C34.7959 44.298 32.8543 42.5264 30.1547 42.0438C27.4552 41.5611 25.0199 42.5502 24.7155 44.2529C24.4111 45.9556 26.3527 47.7272 29.0523 48.2099C31.7519 48.6925 34.1871 47.7035 34.4915 46.0007Z" fill="#FFDA22"/>
<path d="M25.2454 46.4701C25.051 46.2673 24.8691 46.0478 24.7165 45.8053C24.5639 45.5649 24.4384 45.3035 24.3464 45.0296C24.1624 44.4798 24.129 43.8756 24.2502 43.3006C24.3757 42.7257 24.6496 42.1884 25.0134 41.7347C25.3792 41.2831 25.8266 40.9026 26.3138 40.5973C26.7988 40.2879 27.3278 40.0579 27.8714 39.8844C28.417 39.715 28.9795 39.6042 29.546 39.554C30.6792 39.46 31.8354 39.5791 32.9184 39.9617C33.1881 40.0579 33.4536 40.1708 33.7107 40.2963C33.9679 40.4259 34.2167 40.5701 34.4571 40.7332C34.9359 41.0573 35.3729 41.4587 35.7178 41.9375C36.0649 42.4142 36.3116 42.9786 36.3994 43.5724C36.4914 44.1641 36.412 44.7829 36.1903 45.3328C35.9708 45.8847 35.6217 46.3698 35.2014 46.7649C34.7833 47.1622 34.3045 47.4821 33.7944 47.7288C33.5393 47.8521 33.278 47.9566 33.0104 48.0445C32.7448 48.1344 32.473 48.2075 32.1992 48.264C31.9253 48.3225 31.6493 48.3643 31.3733 48.3915C31.0974 48.4187 30.8193 48.425 30.5412 48.4271C30.4848 48.4271 30.4409 48.3832 30.4409 48.3267C30.4409 48.2744 30.4806 48.2305 30.5329 48.2263H30.5349C31.0744 48.1824 31.6075 48.0967 32.1239 47.9546C32.3811 47.8835 32.6361 47.7998 32.8828 47.6974C33.1295 47.597 33.37 47.4862 33.5999 47.3545C33.8299 47.2249 34.0536 47.0869 34.2648 46.928C34.4739 46.7712 34.6704 46.5977 34.8502 46.4116C35.2077 46.0395 35.5004 45.6067 35.6698 45.1342C35.8412 44.6638 35.883 44.1557 35.8015 43.6686C35.7178 43.1814 35.5067 42.7173 35.2035 42.3159C34.593 41.511 33.6794 40.9339 32.6968 40.5973C31.712 40.2565 30.6478 40.1311 29.6004 40.2147C28.555 40.29 27.5201 40.5806 26.6232 41.1054C26.1737 41.3667 25.7681 41.6949 25.4315 42.0817C25.0928 42.4664 24.8377 42.918 24.7081 43.4093C24.5764 43.8965 24.5743 44.4233 24.706 44.9209C24.8356 45.4206 25.0949 45.891 25.4315 46.3008V46.3029C25.4754 46.3572 25.467 46.4346 25.4148 46.4785C25.3625 46.5203 25.2893 46.5161 25.2454 46.4701Z" fill="#000072"/>
<g opacity="0.3">
<path d="M50.5997 39.5434C49.8073 39.9637 48.9418 40.1936 48.1577 40.2313C47.2378 40.2752 46.4287 40.0557 45.9792 39.5706C45.1471 38.6716 45.8642 37.2018 47.5828 36.2882C49.2219 35.4143 51.1809 35.3641 52.082 36.1439C52.1259 36.1816 52.1657 36.2192 52.2033 36.261C53.0354 37.1579 52.3183 38.6298 50.5997 39.5434Z" fill="#000072"/>
</g>
<path d="M47.8642 40.066C49.4185 39.8582 50.5846 38.9874 50.4687 38.121C50.3529 37.2547 48.9991 36.7207 47.4448 36.9285C45.8906 37.1363 44.7245 38.007 44.8403 38.8734C44.9561 39.7398 46.31 40.2738 47.8642 40.066Z" fill="#FFDA22"/>
<path d="M46.4579 36.9473C46.9199 36.4874 47.4886 36.1382 48.0928 35.8853L48.3207 35.7933L48.5549 35.7159L48.6719 35.6762L48.7911 35.6448L49.0315 35.5821C49.3556 35.5131 49.6859 35.4671 50.0225 35.4546C50.3592 35.4462 50.702 35.4734 51.0407 35.5549C51.3794 35.6365 51.7223 35.7724 52.0192 36.0149C52.3161 36.2532 52.546 36.6212 52.6025 37.0205C52.6631 37.4198 52.567 37.8108 52.406 38.1328C52.245 38.4589 52.0255 38.7349 51.7829 38.9774C51.5404 39.222 51.2749 39.4332 50.9906 39.6088C50.8505 39.7029 50.702 39.7782 50.5578 39.8597C50.4072 39.9287 50.2609 40.0082 50.1041 40.0667L49.8741 40.1587L49.6379 40.236L49.5208 40.2737L49.4016 40.305L49.1612 40.3678C48.8371 40.4368 48.511 40.4911 48.1785 40.5037C47.8461 40.5141 47.5137 40.4995 47.1834 40.4388C46.8551 40.3719 46.529 40.2674 46.2383 40.0876C45.9477 39.912 45.6927 39.6486 45.5714 39.3266C45.5526 39.2743 45.5777 39.2158 45.6299 39.197C45.678 39.1802 45.7282 39.1991 45.7533 39.2409L45.7554 39.243C45.9017 39.4959 46.1338 39.682 46.3952 39.8033C46.6586 39.9245 46.9492 39.9935 47.244 40.0228C47.5409 40.0479 47.8398 40.0416 48.1388 40.0082C48.4357 39.9726 48.7305 39.9099 49.0211 39.8304C49.3075 39.7405 49.5919 39.6402 49.8637 39.5127C50.0016 39.4562 50.1313 39.3789 50.2651 39.3119C50.3905 39.2325 50.5243 39.1635 50.6414 39.0757C50.886 38.9105 51.1139 38.7224 51.3146 38.5154C51.5132 38.3084 51.6868 38.0805 51.8018 37.838C51.9167 37.5955 51.9732 37.3446 51.9376 37.1167C51.9042 36.8909 51.7871 36.6839 51.5969 36.5229C51.4087 36.3599 51.1557 36.2428 50.8839 36.1675C50.6121 36.0943 50.3215 36.0609 50.0267 36.0483C49.4371 36.04 48.8329 36.1382 48.2559 36.3264C47.6747 36.5041 47.1206 36.778 46.6209 37.1355L46.6189 37.1376C46.5624 37.1773 46.4851 37.1648 46.4432 37.1083C46.4077 37.0582 46.4161 36.9892 46.4579 36.9473Z" fill="#000072"/>
<path d="M45.8306 27.1926C45.055 33.285 40.6498 33.0592 38.2351 33.1532C36.3952 33.2264 33.3052 32.1664 30.3489 30.9204C28.739 30.2409 27.1689 29.5049 25.8601 28.8673C25.6301 28.7544 25.4064 28.6457 25.1932 28.539C23.5812 27.7362 22.5066 27.1529 22.5066 27.1529L28.4338 16.1641C28.4338 16.1641 29.8701 16.9334 33.0104 17.4499C34.3568 17.6694 36.0147 17.8429 38.0093 17.8889C44.0013 18.029 46.4014 22.7101 45.8306 27.1926Z" fill="#676789"/>
<g opacity="0.5">
<path d="M45.1994 22.2349C44.3631 20.3135 42.7762 18.758 40.3719 18.1057C39.659 17.9133 38.8729 17.7983 38.0115 17.7795C36.0169 17.7335 34.359 17.56 33.0126 17.3405C29.8723 16.8262 28.436 16.0547 28.436 16.0547L27.9656 16.9265C28.4548 17.1481 29.8702 17.7105 32.3456 18.1182C33.6921 18.3378 35.35 18.5113 37.3445 18.5573C38.6032 18.5865 39.7008 18.8165 40.6479 19.2033C40.7942 19.588 40.9908 19.9748 41.2395 20.349C42.0737 21.6055 43.255 22.3833 44.2544 22.4397C45.1157 24.0454 45.4043 25.9689 45.1638 27.8589C44.9631 29.4353 44.5178 30.5894 43.9282 31.434C44.846 30.5643 45.559 29.2095 45.8308 27.0811C46.044 25.4107 45.8433 23.713 45.1994 22.2349Z" fill="white"/>
</g>
<g opacity="0.3">
<path d="M44.6663 30.6674C42.9875 33.1909 40.0521 33.0801 38.2374 33.1532C33.8824 33.3247 22.511 27.1529 22.511 27.1529L28.4382 16.1641C28.4382 16.1641 28.572 16.2351 28.848 16.3501L23.7006 25.8943C23.7006 25.8943 35.0699 32.0661 39.427 31.8925C40.8633 31.8382 43.0042 31.8946 44.6663 30.6674Z" fill="#000072"/>
</g>
<path d="M38.0552 33.491C33.5351 33.491 22.8097 27.6976 22.3477 27.4467L22.0508 27.2857L28.2999 15.7031L28.5968 15.862C28.6261 15.8787 31.5573 17.3987 38.0197 17.5471C40.654 17.6078 42.8221 18.5423 44.2877 20.2463C45.8202 22.0275 46.5038 24.572 46.1651 27.2293C45.3957 33.2673 41.1871 33.3948 38.6699 33.4721C38.5236 33.4763 38.3814 33.4805 38.2476 33.4868C38.1849 33.4889 38.1221 33.491 38.0552 33.491ZM22.9686 27.0097C24.7834 27.9715 34.3986 32.9599 38.2225 32.8094C38.3605 32.8031 38.5026 32.7989 38.6511 32.7948C41.0993 32.7195 44.7999 32.6066 45.494 27.1435C45.8076 24.6765 45.1804 22.3223 43.7733 20.6874C42.4353 19.1319 40.4387 18.2789 38.003 18.2224C32.4709 18.0949 29.4958 17.0036 28.5822 16.6021L22.9686 27.0097Z" fill="#000072"/>
<g opacity="0.3">
<path d="M31.3336 31.3144C31.2981 31.4838 31.2584 31.6615 31.2103 31.8497C30.9991 32.6859 30.6521 33.6874 30.0918 34.624C29.6213 35.406 29.0025 36.1419 28.1829 36.6939C25.1096 38.7637 23.46 36.1628 23.6837 34.9084C23.9241 33.562 24.6392 32.7779 25.2246 31.8392C25.5654 31.2956 25.8622 30.6977 26.0002 29.9074C26.0253 29.7673 26.0441 29.6209 26.0588 29.4683C26.0755 29.2739 26.0839 29.069 26.0818 28.8516C26.1445 28.8892 26.2051 28.9247 26.2678 28.9603C26.5626 29.1317 26.8616 29.299 27.1627 29.46C28.5028 30.1813 29.8973 30.8001 31.3336 31.3144Z" fill="#000072"/>
</g>
<path d="M30.6751 29.0211C30.6751 29.0211 30.627 29.8281 30.349 30.9195C30.1378 31.7557 29.7907 32.7572 29.2304 33.6938C28.76 34.4758 28.1412 35.2117 27.3216 35.7637C24.2482 37.8335 22.5987 35.2326 22.8224 33.9782C23.0628 32.6318 23.7778 31.8477 24.3632 30.909C24.704 30.3654 25.0009 29.7675 25.1389 28.9772C25.164 28.8371 25.1828 28.6907 25.1974 28.5381C25.256 27.8858 25.21 27.1102 25.0114 26.1484L28.7224 28.028L30.6751 29.0211Z" fill="#676789"/>
<path d="M29.2304 33.6911C28.76 34.4751 28.1412 35.211 27.3216 35.7609C24.2482 37.8307 22.5987 35.2299 22.8224 33.9754C23.0628 32.629 23.7778 31.845 24.3632 30.9062C25.7996 31.0317 28.7663 31.5481 29.2304 33.6911Z" fill="white"/>
<path d="M25.12 26.1262C25.3834 26.5527 25.5026 27.0273 25.5528 27.5123C25.6071 27.9973 25.582 28.497 25.4921 28.9863C25.396 29.4755 25.2496 29.9605 25.0301 30.4059C24.8168 30.8554 24.545 31.2589 24.2837 31.6477C24.0203 32.0345 23.7673 32.4088 23.5729 32.7997C23.3742 33.1907 23.2383 33.6026 23.1589 34.0291C23.1317 34.1984 23.1422 34.3908 23.1903 34.5852C23.2383 34.7775 23.3136 34.9678 23.414 35.1455C23.6147 35.4988 23.9095 35.7978 24.2607 35.9818C24.612 36.1658 25.0176 36.2327 25.4252 36.1846C25.8329 36.1386 26.2427 35.9923 26.6274 35.7895C27.0142 35.5825 27.3801 35.3316 27.7062 35.0389C28.0345 34.7462 28.3293 34.4138 28.5906 34.0542C29.1133 33.3329 29.5042 32.5091 29.7886 31.6498C29.8617 31.4345 29.9245 31.2171 29.9851 30.9996C30.0436 30.7801 30.0813 30.5564 30.121 30.3327C30.1607 30.109 30.2088 29.8894 30.2736 29.6678C30.3405 29.4483 30.4241 29.2309 30.5684 29.0155L30.5726 29.0093C30.6123 28.9507 30.6897 28.9361 30.7482 28.9737C30.7691 28.9883 30.7838 29.0072 30.7942 29.0281C30.9029 29.279 30.928 29.5236 30.9259 29.7661C30.9196 30.0086 30.8841 30.247 30.8297 30.479C30.7733 30.7132 30.7022 30.9411 30.6416 31.1731C30.5768 31.4031 30.512 31.6352 30.4346 31.8631C30.1335 32.7746 29.7154 33.659 29.1425 34.4514C28.8561 34.8465 28.53 35.2166 28.1599 35.5448C27.7898 35.8752 27.3822 36.1553 26.9473 36.3895C26.5082 36.6195 26.0232 36.7993 25.5026 36.8578C24.9841 36.9184 24.428 36.8327 23.9513 36.5818C23.4725 36.333 23.0878 35.9379 22.8307 35.48C22.701 35.2501 22.6007 35.0054 22.538 34.7441C22.4752 34.4848 22.4501 34.2026 22.5003 33.912C22.5902 33.4207 22.7512 32.9398 22.977 32.4987C23.1986 32.0554 23.4725 31.654 23.7338 31.2693C23.9952 30.8846 24.244 30.5104 24.4301 30.1152C24.6224 29.7222 24.752 29.3061 24.8127 28.8755C24.867 28.4427 24.867 28.0036 24.8628 27.5583C24.8524 27.1109 24.8315 26.6614 24.9109 26.1742V26.1722C24.9214 26.1073 24.9841 26.0613 25.0489 26.0718C25.0719 26.0781 25.1012 26.099 25.12 26.1262Z" fill="#000072"/>
<g opacity="0.3">
<path d="M42.3204 38.5471C42.0423 39.6385 39.6025 41.0267 37.6727 38.1039C37.1166 37.2613 36.8469 36.3435 36.7445 35.4633C36.6253 34.441 36.734 33.4688 36.8804 32.7266C38.6742 33.0088 40.4994 33.1301 42.3371 33.0841C42.0821 33.7259 42.0193 34.2904 42.0465 34.8173C42.1134 36.0759 42.6821 37.1254 42.3204 38.5471Z" fill="#000072"/>
</g>
<path d="M41.202 34.8107C41.2668 36.0693 41.8355 37.1189 41.4738 38.5406C41.1957 39.634 38.7559 41.0201 36.8261 38.0973C36.27 37.2548 36.0003 36.3369 35.8979 35.4567C35.6449 33.2824 36.4164 31.3359 36.4164 31.3359L42.5045 31.3987C41.3881 32.8141 41.1539 33.872 41.202 34.8107Z" fill="#676789"/>
<path d="M41.4737 38.5421C41.1956 39.6355 38.7557 41.0217 36.826 38.0989C36.2699 37.2563 36.0002 36.3385 35.8977 35.4583C37.2483 34.8959 39.7948 34.0303 41.2019 34.8123C41.2667 36.0709 41.8353 37.1204 41.4737 38.5421Z" fill="white"/>
<path d="M42.5944 31.4768C42.4731 31.9138 42.2808 32.2734 42.101 32.6309C42.0111 32.8107 41.9295 32.9905 41.8522 33.1703C41.8104 33.2602 41.7811 33.3522 41.7435 33.4421C41.7142 33.5341 41.6786 33.6261 41.6536 33.7202C41.5971 33.9062 41.5678 34.0986 41.5469 34.2909C41.5302 34.4833 41.5323 34.6798 41.5448 34.8763C41.572 35.2715 41.6536 35.6708 41.7393 36.0889C41.825 36.505 41.9086 36.9441 41.9274 37.4019C41.9337 37.6298 41.9316 37.8619 41.9024 38.0898C41.8877 38.2048 41.871 38.3197 41.848 38.4326L41.8104 38.602C41.8062 38.6271 41.7936 38.6626 41.7832 38.6982C41.7727 38.7316 41.7623 38.7672 41.7497 38.7964C41.6473 39.0515 41.4926 39.2585 41.317 39.4341C41.1413 39.6097 40.9427 39.754 40.7295 39.8711C40.303 40.1031 39.8095 40.216 39.3224 40.1868C39.0799 40.1721 38.8395 40.1261 38.6116 40.0509C38.3837 39.9735 38.1683 39.869 37.9676 39.7456C37.5683 39.4947 37.2296 39.1749 36.9411 38.8278L36.7341 38.5623L36.5418 38.2863L36.364 37.9978L36.2031 37.7009C36.0003 37.2995 35.8455 36.873 35.7368 36.4402C35.5173 35.5725 35.4713 34.6756 35.5445 33.7996C35.5633 33.5801 35.5884 33.3627 35.6197 33.1452C35.6532 32.9278 35.6762 32.7103 35.7159 32.4929C35.7556 32.2776 35.8163 32.0643 35.9062 31.8615C35.9982 31.6587 36.1173 31.4664 36.3139 31.3033C36.3682 31.2573 36.4498 31.2657 36.4958 31.32C36.5104 31.3367 36.5188 31.3556 36.5229 31.3765L36.525 31.3869C36.571 31.6211 36.5647 31.8343 36.5397 32.0392C36.5125 32.2441 36.4728 32.4448 36.4226 32.6434C36.3724 32.8421 36.3222 33.0407 36.2909 33.2435C36.2595 33.4463 36.2365 33.6491 36.2198 33.854C36.1508 34.6694 36.1947 35.491 36.3933 36.2708C36.4916 36.6597 36.6296 37.0381 36.8094 37.3936L36.9515 37.657L37.1083 37.91L37.2798 38.1567L37.4638 38.3929C37.7167 38.6982 38.0053 38.9637 38.3251 39.1665C38.4861 39.2627 38.6555 39.3442 38.829 39.4048C39.0025 39.4634 39.1823 39.4968 39.3642 39.5073C39.7259 39.5282 40.0918 39.4466 40.4096 39.2731C40.5685 39.1874 40.7169 39.0787 40.8403 38.9532C40.9657 38.8299 41.0661 38.6856 41.1204 38.5476C41.1288 38.5309 41.1309 38.5142 41.1372 38.4975C41.1434 38.4807 41.1476 38.4661 41.1539 38.4389L41.1852 38.2967C41.2041 38.2027 41.2187 38.1065 41.2312 38.0103C41.2563 37.818 41.2584 37.6235 41.2521 37.4291C41.2354 37.036 41.1622 36.6388 41.0765 36.2248C40.9929 35.8109 40.903 35.3781 40.8695 34.9244C40.8549 34.6965 40.8549 34.4665 40.8716 34.2366C40.8925 34.0066 40.9218 33.7766 40.9762 33.5529C41.0723 33.1013 41.248 32.6727 41.4863 32.2922C41.7205 31.9096 42.0153 31.5688 42.4167 31.3388C42.4752 31.3054 42.5484 31.3263 42.5818 31.3827C42.5986 31.412 42.6027 31.4455 42.5944 31.4747V31.4768Z" fill="#000072"/>
<path d="M12.7659 22.7151C12.7889 22.7151 12.8119 22.713 12.8349 22.7109C12.8349 22.7109 12.8349 22.7109 12.8328 22.713C12.8286 22.7172 12.8223 22.7214 12.8098 22.7318C12.7951 22.7256 12.7805 22.7214 12.7659 22.7151Z" fill="#982E20"/>
<path d="M12.8163 22.7722L12.5947 22.6886L12.7641 22.6823C12.785 22.6823 12.8059 22.6802 12.8247 22.6781L12.9062 22.6719L12.854 22.7388L12.8163 22.7722Z" fill="#000072"/>
<g opacity="0.3">
<path d="M33.4995 22.372C32.5023 23.0598 31.2896 24.5233 31.0325 24.7512C30.7732 24.977 28.6303 27.1994 23.8111 27.7869C21.8061 28.0315 20.1858 27.8894 18.9502 27.628C17.217 27.2642 16.249 26.6642 16.0713 26.5722C15.7661 26.4154 14.2377 25.2822 13.1046 24.8557C11.9714 24.4271 11.3944 23.9316 11.9777 23.4361C12.0697 23.3588 12.1533 23.2877 12.2286 23.225C14.7458 24.7366 19.061 26.7813 23.6209 26.2252C28.1807 25.669 31.8792 22.65 33.9616 20.5781C34.0494 20.622 34.1477 20.6701 34.2543 20.7245C34.9379 21.0653 34.4968 21.6841 33.4995 22.372Z" fill="#000072"/>
</g>
<g opacity="0.3">
<path d="M30.6751 29.0193C30.6751 29.0193 30.627 29.8263 30.349 30.9176C30.1378 31.7539 29.7907 32.7554 29.2304 33.692C28.76 34.4739 28.1412 35.2099 27.3216 35.7618C24.2482 37.8316 22.5987 35.2308 22.8224 33.9764C22.8956 33.5687 23.0126 33.2111 23.1548 32.885C23.7088 34.0077 25.1912 34.9799 27.4303 33.4704C28.2499 32.9184 28.8687 32.1825 29.3391 31.4006C29.8451 30.5559 30.1775 29.6548 30.3929 28.875L30.6751 29.0193Z" fill="#000072"/>
</g>
<g opacity="0.3">
<path d="M41.593 37.6395C41.5888 37.9259 41.5554 38.2249 41.4738 38.5406C41.1957 39.6319 38.7559 41.0201 36.8261 38.0973C36.27 37.2548 36.0003 36.3369 35.8979 35.4567C35.6449 33.2803 36.4164 31.3359 36.4164 31.3359H36.4519C36.3118 32.0677 36.2157 33.0106 36.3306 33.9995C36.4331 34.8797 36.7028 35.7975 37.2589 36.6401C38.8625 39.0674 40.8194 38.5217 41.593 37.6395Z" fill="#000072"/>
</g>
<path d="M34.0515 19.651C33.6543 20.5709 32.8954 21.9885 31.5657 23.3662C30.0624 24.9217 27.8337 26.427 24.5764 27.1086C21.3086 27.7484 18.668 27.2278 16.6797 26.379C14.9194 25.6284 13.6691 24.6186 12.9457 23.9245C12.4335 23.4331 12.1533 22.7453 12.1847 22.0344C12.2788 19.9312 12.9834 17.0209 12.9834 17.0209C12.9834 17.0209 10.8006 7.57922 12.8182 6.10317C13.0921 5.90246 13.414 5.84183 13.7674 5.88783C15.9982 6.18262 19.4207 10.7655 19.4207 10.7655C20.2486 10.3808 21.1602 10.2219 21.1602 10.2219C21.1602 10.2219 22.0612 10.0128 22.9728 10.0442C22.9728 10.0442 24.8064 2.60331 27.2379 3.18034C29.6715 3.75529 31.3336 13.3036 31.3336 13.3036C31.3336 13.3036 33.1149 15.71 34.0202 17.6126C34.3233 18.2565 34.3317 18.9987 34.0515 19.651Z" fill="#676789"/>
<path d="M31.5638 23.3637C30.0606 24.9192 27.8319 26.4245 24.5746 27.106C21.3068 27.7458 18.6662 27.2252 16.6779 26.3764C14.8695 25.0132 12.5049 22.4312 15.2792 19.5669C15.4172 19.4247 15.5113 19.247 15.5468 19.0526C15.7162 18.0846 16.3978 15.0656 18.3317 14.614C20.6398 14.0746 22.4044 16.3953 22.7536 18.118C22.4044 16.3953 23.1299 13.5707 25.4673 13.1714C27.4263 12.8348 29.2264 15.352 29.7596 16.1779C29.8662 16.3451 30.023 16.4706 30.2049 16.5479C33.8783 18.1055 32.7012 21.4047 31.5638 23.3637Z" fill="white"/>
<path d="M14.8066 14.8603C15.4339 14.116 16.59 12.8218 17.7253 11.9521C17.8988 11.8183 17.9323 11.5716 17.8026 11.3938C17.2047 10.5868 15.5802 8.51911 14.123 7.77064C13.8742 7.6431 13.5752 7.80618 13.5418 8.08215C13.4163 9.12542 13.2616 11.6489 14.1083 14.7035C14.1962 15.0192 14.5976 15.1091 14.8066 14.8603Z" fill="#FFBDE7"/>
<path d="M28.8081 12.0302C27.9405 11.5891 26.3724 10.8469 24.9884 10.4873C24.7772 10.4329 24.6497 10.2155 24.6999 10.0043C24.9361 9.03004 25.6281 6.49191 26.6798 5.23539C26.8596 5.02214 27.1983 5.05559 27.3363 5.29602C27.8569 6.20967 28.9817 8.47391 29.3894 11.6163C29.4333 11.9403 29.0987 12.1787 28.8081 12.0302Z" fill="#FFBDE7"/>
<g opacity="0.3">
<path d="M33.9326 17.2826C33.6922 16.7787 33.3911 16.2393 33.0775 15.7188C33.2092 15.9592 33.3326 16.1975 33.4413 16.4275C33.7382 17.0526 33.7465 17.7739 33.4726 18.4074C33.088 19.3022 32.3499 20.68 31.0558 22.0181C29.5944 23.5297 27.4284 24.9932 24.2609 25.6559C21.0851 26.2769 18.5177 25.773 16.5838 24.9472C14.8736 24.2175 13.6568 23.237 12.9543 22.5617C12.4567 22.0829 12.1829 21.416 12.2142 20.7239C12.2247 20.4689 12.2456 20.2013 12.2728 19.9295C12.187 20.5316 12.118 21.1442 12.093 21.7024C12.0616 22.4132 12.3418 23.1011 12.854 23.5924C13.5774 24.2865 14.8276 25.2963 16.588 26.0469C18.5784 26.8957 21.2189 27.4163 24.4846 26.7766C27.742 26.095 29.9728 24.5897 31.4739 23.0342C32.8057 21.6564 33.5646 20.2389 33.9598 19.319C34.2483 18.6667 34.2378 17.9245 33.9326 17.2826Z" fill="#11116D"/>
</g>
<g opacity="0.6">
<path d="M22.6741 10.3013C22.6741 10.3013 22.996 10.3076 23.2699 10.3243C23.4393 10.3348 23.5898 10.2261 23.6316 10.0609C23.9599 8.78348 25.3795 3.70304 27.3552 3.21381C27.3552 3.21381 26.1363 2.40679 24.8045 5.12055C24.8045 5.12264 23.1131 8.61832 22.6741 10.3013Z" fill="white"/>
</g>
<g opacity="0.6">
<path d="M13.7632 5.88976C11.5032 6.26818 13.0398 14.5997 13.3325 16.0841C13.3618 16.2346 13.3597 16.3893 13.3263 16.5378L13.0879 17.6041C13.0879 17.6041 10.7986 7.58324 12.8161 6.1072C13.09 5.9023 13.412 5.84376 13.7632 5.88976Z" fill="white"/>
</g>
<path d="M24.6267 27.3643C24.6246 27.3643 24.6246 27.3643 24.6267 27.3643C21.8983 27.8974 19.31 27.6967 16.9328 26.7664C14.9717 25.9991 13.5835 24.8994 12.7618 24.1132C12.1911 23.5676 11.8858 22.8045 11.9193 22.0246C12.0071 20.0614 12.6071 17.4585 12.7117 17.0194C12.6239 16.6327 12.1472 14.452 11.8816 12.146C11.476 8.61893 11.7311 6.57421 12.6615 5.89264C13.6169 5.19434 15.0951 5.80064 17.0541 7.69484C18.1831 8.78619 19.1594 10.0093 19.4981 10.4462C20.2571 10.1263 21.0139 9.98626 21.1038 9.96954C21.1916 9.94863 21.9443 9.78346 22.768 9.78346C22.9102 9.24824 23.3346 7.74292 23.9493 6.29824C25.0176 3.79146 26.1445 2.65829 27.2965 2.93009C28.4192 3.19561 29.45 4.98108 30.4472 8.38686C31.0995 10.6135 31.5072 12.8087 31.5783 13.1997C31.8438 13.5635 33.4098 15.7274 34.2544 17.5024C34.591 18.2091 34.6036 19.0307 34.2921 19.7541C33.8426 20.7974 32.9895 22.3508 31.4821 23.8205C29.6528 25.6018 27.3467 26.7956 24.6267 27.3643ZM13.3201 6.16025C13.1904 6.18743 13.0734 6.23761 12.9688 6.31287C12.5444 6.62439 11.9046 7.78683 12.4001 12.0812C12.6887 14.5817 13.2302 16.9379 13.2343 16.9609C13.2427 17.0006 13.2427 17.0424 13.2343 17.0822C13.2281 17.1114 12.534 19.9924 12.442 22.0476C12.4127 22.679 12.6615 23.2937 13.1235 23.7369C14.516 25.0729 18.4151 28.048 24.5221 26.8542C30.6145 25.5788 33.0481 21.3221 33.8112 19.5492C34.0642 18.9617 34.0537 18.299 33.7819 17.7282C32.8975 15.8695 31.1393 13.4861 31.1204 13.4631C31.0954 13.4297 31.0807 13.392 31.0724 13.3523C31.0682 13.3293 30.65 10.948 29.9434 8.53112C28.7287 4.38314 27.6875 3.56148 27.1753 3.44022C26.3327 3.2416 25.3584 4.32878 24.4322 6.49894C23.6858 8.24679 23.228 10.0929 23.2217 10.1117C23.1924 10.2309 23.0816 10.3145 22.9583 10.3103C22.0948 10.279 21.223 10.4797 21.2125 10.4818C21.2083 10.4839 21.2021 10.4839 21.1979 10.4839C21.1895 10.4859 20.3072 10.6407 19.5232 11.0065C19.4103 11.0588 19.2786 11.0253 19.2033 10.925C19.1929 10.9104 18.0514 9.38832 16.684 8.06698C15.2393 6.66829 14.0685 6.00972 13.3201 6.16025Z" fill="#000072"/>
<path d="M24.8587 21.4573C24.9172 21.9403 24.3067 22.6741 23.4537 22.7766C22.6007 22.8811 21.8313 22.3166 21.7728 21.8337C21.7142 21.3507 22.4 21.2253 23.2509 21.1207C24.1039 21.0183 24.8001 20.9744 24.8587 21.4573Z" fill="#000072"/>
<path d="M20.0228 19.5545C20.0521 19.9454 19.889 20.3615 19.5837 20.6625C19.2806 20.9657 18.8311 21.1476 18.3795 21.1141C18.1558 21.0995 17.9363 21.0368 17.7418 20.9343C17.5474 20.8319 17.3801 20.6939 17.2484 20.5371C17.1146 20.3803 17.0143 20.2047 16.939 20.027C16.8679 19.8472 16.824 19.6611 16.8052 19.475C16.7989 19.4018 16.8533 19.3349 16.9264 19.3287C16.9724 19.3245 17.0163 19.3454 17.0435 19.3788L17.0477 19.3851C17.1543 19.5231 17.2547 19.6548 17.3613 19.7719C17.4679 19.889 17.5808 19.9914 17.6958 20.0771C17.9279 20.2465 18.1725 20.3364 18.4192 20.3447C18.6659 20.351 18.9105 20.2758 19.1405 20.1357C19.3726 19.9956 19.5754 19.7803 19.7719 19.4959L19.7761 19.4917C19.82 19.429 19.9036 19.4144 19.9663 19.4562C19.9998 19.4771 20.0207 19.5147 20.0228 19.5545Z" fill="#000072"/>
<path d="M26.2783 18.6508C26.5397 18.862 26.7885 19.0062 27.0435 19.0752C27.2965 19.1442 27.5432 19.1484 27.7711 19.0773C27.9969 19.0062 28.2018 18.8578 28.3732 18.6362C28.4569 18.5254 28.5363 18.3999 28.6053 18.262C28.6743 18.124 28.7328 17.9734 28.7977 17.8166L28.7997 17.8104C28.8269 17.7414 28.9064 17.7079 28.9754 17.7372C29.0193 17.7539 29.0485 17.7936 29.0569 17.8354C29.0924 18.0152 29.1008 18.2013 29.0841 18.3916C29.0632 18.5797 29.0172 18.7721 28.9315 18.9561C28.8499 19.1401 28.7287 19.3157 28.5739 19.4662C28.4192 19.6146 28.229 19.7338 28.022 19.8091C27.6059 19.9638 27.1313 19.9136 26.7655 19.7108C26.3954 19.508 26.1299 19.1589 26.0546 18.7825C26.04 18.7094 26.0881 18.6362 26.1613 18.6216C26.2031 18.6132 26.2428 18.6236 26.2742 18.6487L26.2783 18.6508Z" fill="#000072"/>
<path d="M25.44 23.0497C25.4588 23.1877 25.44 23.2922 25.4107 23.4009C25.3793 23.5075 25.3333 23.61 25.2685 23.7041C25.1389 23.8943 24.9173 24.0365 24.6915 24.0783C24.635 24.0909 24.5786 24.095 24.5221 24.0992C24.495 24.1013 24.4678 24.1013 24.4385 24.1013C24.403 24.1013 24.3653 24.095 24.3319 24.0888C24.1939 24.0616 24.0873 23.9989 23.9953 23.9361C23.9033 23.8734 23.8301 23.8023 23.7611 23.7313L23.665 23.6288L23.6231 23.5849C23.619 23.5807 23.6127 23.5745 23.6148 23.5765L23.6169 23.5786C23.621 23.5828 23.6252 23.5849 23.6294 23.587C23.6336 23.5891 23.6566 23.6037 23.6712 23.6079C23.6712 23.6079 23.6879 23.6142 23.7026 23.6184C23.7172 23.6225 23.7319 23.6246 23.7465 23.6246C23.7758 23.6246 23.8029 23.6225 23.8343 23.6121C23.8615 23.6058 23.897 23.5807 23.8991 23.5786C23.9075 23.5724 23.9158 23.5661 23.9242 23.5577L23.9367 23.5452L23.943 23.5368L23.9493 23.5285C23.9493 23.5264 23.9514 23.5243 23.9514 23.5264L23.943 23.541L23.9158 23.5974C23.8949 23.6393 23.8719 23.6832 23.8468 23.7292C23.7967 23.8191 23.736 23.909 23.6566 23.9926C23.5792 24.0762 23.481 24.1515 23.3702 24.2058C23.3137 24.233 23.2573 24.2518 23.2008 24.2665C23.1444 24.2811 23.0837 24.2916 23.0231 24.2957C22.9018 24.3041 22.7764 24.2853 22.6635 24.2414C22.5506 24.1975 22.4502 24.1348 22.3666 24.0595C22.2851 23.9821 22.2161 23.8985 22.1596 23.8044C22.1053 23.7083 22.0572 23.6184 22.0405 23.4699C22.0279 23.3696 22.1011 23.2776 22.2014 23.2671C22.2851 23.2567 22.3603 23.3047 22.3917 23.3779L22.4126 23.426C22.4168 23.4386 22.4293 23.4678 22.4461 23.495C22.4628 23.5243 22.4816 23.5535 22.5025 23.5807C22.5443 23.6372 22.5966 23.6853 22.651 23.725C22.7597 23.8044 22.8726 23.8358 22.9855 23.8212C23.0147 23.817 23.0419 23.8107 23.0712 23.8002C23.1005 23.7898 23.1297 23.7793 23.1527 23.7668C23.2008 23.7417 23.2468 23.7041 23.2886 23.656C23.3304 23.6079 23.3723 23.5494 23.4078 23.4825C23.4266 23.449 23.4433 23.4156 23.4622 23.3758L23.4935 23.311C23.4998 23.2985 23.5061 23.2859 23.5165 23.2671L23.527 23.2504C23.5311 23.2441 23.5332 23.2399 23.5416 23.2295L23.5541 23.2148C23.5583 23.2107 23.5604 23.2065 23.573 23.196C23.5834 23.1856 23.5939 23.1772 23.6043 23.1689C23.6064 23.1647 23.6482 23.1396 23.6754 23.1312C23.7068 23.1208 23.7381 23.1166 23.7716 23.1187C23.7883 23.1187 23.805 23.1208 23.8197 23.1249C23.8343 23.1291 23.8531 23.1354 23.8552 23.1354C23.874 23.1417 23.9033 23.1584 23.9117 23.1647L23.9367 23.1835L23.9514 23.196C23.9702 23.2128 23.9807 23.2232 23.9911 23.2337L24.0413 23.288L24.127 23.3821C24.1835 23.4406 24.2378 23.4908 24.2922 23.5326C24.3465 23.5745 24.3988 23.6016 24.4364 23.61C24.4469 23.6121 24.4532 23.6142 24.4636 23.6142L24.5138 23.6163C24.5472 23.6163 24.5807 23.6163 24.612 23.61C24.7375 23.5933 24.8441 23.5389 24.9277 23.4406C24.9716 23.3926 25.0072 23.334 25.0344 23.2713C25.0595 23.2107 25.0783 23.1354 25.0804 23.0936L25.0825 23.0643C25.0887 22.964 25.1745 22.8866 25.2748 22.8908C25.3584 22.8971 25.4274 22.964 25.44 23.0497Z" fill="#000072"/>
<g opacity="0.5">
<path d="M24.0664 21.4356C24.0769 21.5443 23.78 21.7199 23.3974 21.7555C23.0148 21.7889 22.6907 21.6698 22.6824 21.5611C22.6719 21.4523 22.9814 21.4147 23.364 21.3792C23.7466 21.3436 24.056 21.3248 24.0664 21.4356Z" fill="white"/>
</g>
</svg>
