<svg width="74" height="75" viewBox="0 0 74 75" fill="none" xmlns="http://www.w3.org/2000/svg">
<path d="M70.814 56.8813C68.9943 59.5031 65.7307 63.4464 60.7066 66.9042C55.0365 70.8095 47.1245 74.0984 36.5274 74.166C25.926 74.0984 18.0141 70.8053 12.344 66.9C7.32407 63.4464 4.06049 59.5031 2.24082 56.8813C0.953123 55.0236 0.509817 52.7015 1.05867 50.5019C2.68413 43.9958 6.72033 35.3577 6.72033 35.3577C6.72033 35.3577 5.87593 4.51203 13.1039 1.1809C14.0877 0.724927 15.1305 0.741815 16.1986 1.10913V1.11335C22.9749 3.44387 30.756 19.9095 30.756 19.9095C33.5805 19.2298 36.5274 19.3142 36.5274 19.3142C36.5274 19.3142 39.4743 19.2298 42.2988 19.9095C42.2988 19.9095 52.7186 -2.15023 59.9508 1.1809C67.1831 4.51203 66.3345 35.3577 66.3345 35.3577C66.3345 35.3577 70.3749 43.9958 71.9961 50.5019C72.545 52.6973 72.1017 55.0194 70.814 56.8813Z" fill="#676789"/>
<path d="M60.7066 66.8983C55.0365 70.8036 47.1245 74.0925 36.5274 74.1601C25.926 74.0925 18.0141 70.7994 12.344 66.8941C7.5605 61.4942 1.81018 51.9483 12.2807 44.7625C12.8 44.4079 13.2095 43.9097 13.4375 43.3228C14.5774 40.4097 18.6094 31.4211 24.9339 31.2311C32.4828 31.0074 36.5274 39.3626 36.5274 44.9567C36.5274 39.3626 40.5763 31.0031 48.1209 31.2311C54.4454 31.4211 58.4732 40.4097 59.6173 43.3228C59.8495 43.9097 60.2548 44.4037 60.7741 44.7625C71.2446 51.9525 65.4901 61.5026 60.7066 66.8983Z" fill="white"/>
<g opacity="0.3">
<path d="M45.6595 54.277C45.5793 53.9646 45.1866 53.8632 44.9671 54.0954C39.8079 59.5798 39.2083 52.2969 39.2083 52.2969H36.5232H33.838C33.838 52.2969 33.2385 59.5798 28.0792 54.0954C27.8597 53.8632 27.4671 53.9646 27.3868 54.277C26.952 55.9489 26.496 60.078 32.2463 60.6648L36.5189 58.3554L40.7916 60.6648C46.5546 60.078 46.0944 55.9489 45.6595 54.277Z" fill="#000072"/>
</g>
<path d="M37.3633 52.6423C37.3633 52.8491 37.3549 53.0053 37.3422 53.1869C37.3296 53.36 37.3169 53.5331 37.2916 53.702C37.2493 54.0439 37.1945 54.3859 37.1142 54.7279C36.958 55.4076 36.7343 56.0832 36.3965 56.7376C36.2276 57.0627 36.025 57.3793 35.7928 57.6833C35.5479 57.9788 35.2819 58.2617 34.9653 58.5066C34.3404 58.9963 33.5509 59.3087 32.7825 59.3847C32.0057 59.465 31.271 59.3636 30.5786 59.1694C29.8778 58.9668 29.1685 58.629 28.6028 58.0928C28.3199 57.8268 28.0877 57.5144 27.9019 57.1851C27.7288 56.8516 27.5895 56.5011 27.5177 56.1465C27.3657 55.4372 27.3911 54.7364 27.5473 54.0819C27.5726 53.9722 27.6866 53.9046 27.7964 53.93C27.8724 53.9468 27.9272 54.0017 27.9484 54.0735V54.0819C28.1299 54.7026 28.2988 55.2894 28.5648 55.7961C28.6872 56.0536 28.8434 56.2774 28.9996 56.4885C29.1685 56.6911 29.3458 56.8769 29.5443 57.0289C29.9411 57.3455 30.4309 57.544 30.9671 57.658C31.5117 57.7677 32.0732 57.8057 32.5672 57.7297C32.6896 57.7086 32.8121 57.6791 32.9303 57.6495C33.0443 57.6073 33.1625 57.5777 33.268 57.5186C33.4876 57.4257 33.6902 57.2906 33.8802 57.1429C34.0702 56.9909 34.2391 56.8009 34.3953 56.6025C34.5473 56.3914 34.6951 56.1718 34.8175 55.9269C35.0666 55.4414 35.2566 54.8968 35.4043 54.331C35.4719 54.0482 35.5395 53.7611 35.5859 53.4698C35.6112 53.3262 35.6323 53.1785 35.6534 53.0349C35.6746 52.8956 35.6914 52.7351 35.6999 52.6211L35.7041 52.5832C35.7421 52.1272 36.1432 51.7852 36.6034 51.8232C37.034 51.8401 37.3633 52.2116 37.3633 52.6423Z" fill="#000072"/>
<path d="M37.3633 52.5997C37.3718 52.7137 37.3887 52.8741 37.4098 53.0135C37.4309 53.157 37.452 53.3048 37.4773 53.4483C37.5238 53.7397 37.5913 54.0267 37.6589 54.3096C37.8024 54.8754 37.9966 55.4158 38.2457 55.9055C38.3724 56.1504 38.5202 56.3699 38.6679 56.581C38.8284 56.7795 38.9972 56.9695 39.1872 57.1214C39.3772 57.2692 39.5756 57.4043 39.7994 57.4972C39.905 57.5563 40.0232 57.5816 40.1372 57.6281C40.2554 57.6576 40.3778 57.6872 40.5003 57.7083C40.9985 57.7843 41.5558 57.7463 42.1004 57.6365C42.6366 57.5225 43.1263 57.3241 43.5232 57.0074C43.7258 56.8512 43.8989 56.6697 44.0678 56.467C44.224 56.2559 44.3802 56.0322 44.5027 55.7746C44.7687 55.2722 44.9375 54.6811 45.1191 54.0605V54.0521C45.1529 53.9423 45.2669 53.879 45.3766 53.9128C45.4484 53.9339 45.5033 53.993 45.5202 54.0647C45.6764 54.7234 45.7059 55.4242 45.5497 56.1293C45.478 56.4839 45.3386 56.8344 45.1655 57.1679C44.9798 57.4972 44.7476 57.8138 44.4647 58.0756C43.8989 58.6118 43.1896 58.9496 42.4888 59.1522C41.7922 59.3506 41.0576 59.452 40.2849 59.3675C39.5165 59.2915 38.7228 58.9833 38.1022 58.4894C37.7855 58.2445 37.5196 57.9616 37.2747 57.6661C37.0425 57.3663 36.8398 57.0454 36.6709 56.7204C36.3332 56.0702 36.1094 55.3904 35.9532 54.7107C35.873 54.3729 35.8181 54.031 35.7759 53.6848C35.7548 53.5117 35.7379 53.3428 35.7252 53.1697C35.7126 52.9924 35.7041 52.8319 35.7041 52.6251C35.6999 52.1649 36.0714 51.7891 36.5316 51.7891C36.9707 51.7849 37.3296 52.1226 37.3676 52.5491L37.3633 52.5997Z" fill="#000072"/>
<path d="M36.5274 66.0624C38.9044 66.0624 41.2307 58.9484 41.2307 58.9484C37.2282 59.6873 36.5274 56.9219 36.5274 56.9219C36.5274 56.9219 35.8265 59.6915 31.8241 58.9484C31.8241 58.9484 34.1504 66.0624 36.5274 66.0624Z" fill="#000072"/>
<path d="M36.5232 60.8594C34.5937 60.8594 33.6269 62.5566 33.6269 62.5566C35.2524 66.4619 36.5232 66.0566 36.5232 66.0566C36.5232 66.0566 37.7898 66.4619 39.4194 62.5566C39.4194 62.5566 38.4568 60.8594 36.5232 60.8594Z" fill="#FF4379"/>
<path d="M36.5274 66.8244C35.2101 66.8244 33.9267 65.524 32.6052 62.8431C31.7144 61.0361 31.1275 59.2586 31.1022 59.1868C31.0177 58.9335 31.0768 58.6506 31.2542 58.4522C31.4315 58.2496 31.7017 58.1567 31.9635 58.2073C35.1215 58.79 35.7337 56.945 35.7928 56.7297C35.8857 56.4003 36.1896 56.1597 36.5358 56.1724C36.8778 56.1766 37.1776 56.4088 37.262 56.7381C37.3211 56.9408 37.9333 58.79 41.0913 58.2073C41.3573 58.1609 41.6233 58.2538 41.8006 58.4522C41.9779 58.6549 42.0328 58.9335 41.9526 59.1868C41.9273 59.2628 41.3447 61.0361 40.4496 62.8431C39.1281 65.5198 37.8446 66.8244 36.5274 66.8244ZM32.9387 59.8286C34.0069 62.6446 35.5606 65.3045 36.5232 65.3045C37.4858 65.3045 39.0437 62.6446 40.1118 59.8286C38.3428 59.8708 37.1987 59.2037 36.5232 58.4396C35.8519 59.2037 34.7077 59.8708 32.9387 59.8286Z" fill="#000072"/>
<path d="M37.5955 54.3656C39.7361 53.6183 40.6691 52.1997 41.066 51.2836C41.3109 50.7136 41.142 50.0423 40.6354 49.6835C39.1619 48.6406 36.5232 48.6406 36.5232 48.6406C36.5232 48.6406 33.8844 48.6406 32.411 49.6835C31.9043 50.0423 31.7355 50.7136 31.9803 51.2836C32.373 52.1997 33.3103 53.6183 35.4508 54.3656C36.1474 54.6105 36.9031 54.6105 37.5955 54.3656Z" fill="#11116D"/>
<path d="M36.5274 54.6489C36.1516 54.6489 35.7801 54.5855 35.4212 54.4631C33.3018 53.7243 32.3308 52.3479 31.8875 51.322C31.6215 50.7013 31.8157 49.9752 32.3519 49.5952C33.8338 48.5439 36.4134 48.5312 36.5232 48.5312C36.6329 48.5312 39.2126 48.5439 40.6945 49.5952C41.2307 49.9752 41.4249 50.7013 41.1589 51.322C40.7198 52.3479 39.7487 53.7243 37.6251 54.4631C37.2747 54.5855 36.8989 54.6489 36.5274 54.6489ZM36.5274 48.7423C36.5021 48.7423 33.9056 48.755 32.4785 49.7641C32.0226 50.0849 31.8579 50.7056 32.0859 51.2375C32.5081 52.2213 33.4454 53.5469 35.493 54.2605C36.1601 54.4927 36.8947 54.4927 37.5618 54.2605C39.6094 53.5469 40.5467 52.2213 40.9689 51.2375C41.1969 50.7056 41.0322 50.0892 40.5763 49.7641C39.1492 48.755 36.5527 48.7423 36.5274 48.7423Z" fill="#000072"/>
<path d="M36.5316 50.5601C37.912 50.5601 39.031 50.3333 39.031 50.0535C39.031 49.7737 37.912 49.5469 36.5316 49.5469C35.1512 49.5469 34.0322 49.7737 34.0322 50.0535C34.0322 50.3333 35.1512 50.5601 36.5316 50.5601Z" fill="white"/>
<path d="M36.5316 50.6619C35.6323 50.6619 33.9267 50.5352 33.9267 50.0497C33.9267 49.5642 35.6323 49.4375 36.5316 49.4375C37.4309 49.4375 39.1366 49.5642 39.1366 50.0497C39.1366 50.5352 37.4309 50.6619 36.5316 50.6619ZM36.5316 49.6486C34.9526 49.6486 34.1378 49.9315 34.1378 50.0497C34.1378 50.1679 34.9526 50.4508 36.5316 50.4508C38.1106 50.4508 38.9255 50.1679 38.9255 50.0497C38.9255 49.9315 38.1106 49.6486 36.5316 49.6486Z" fill="#000072"/>
<path d="M13.7837 29.775C16.2113 27.8498 20.6359 24.5398 24.7312 22.5428C25.3561 22.2388 25.6178 21.4831 25.3223 20.854C23.9671 17.962 20.2053 10.4764 16.1311 7.22127C15.4387 6.6682 14.4001 6.98484 14.1214 7.82924C13.0744 11.0084 10.993 18.7852 11.7065 28.8546C11.7782 29.8848 12.9731 30.4167 13.7837 29.775Z" fill="#FFBDE7"/>
<path d="M59.2711 29.775C56.8435 27.8498 52.4189 24.5398 48.3236 22.5428C47.6987 22.2388 47.4369 21.4831 47.7325 20.854C49.0877 17.962 52.8495 10.4764 56.9237 7.22127C57.6161 6.6682 58.6547 6.98484 58.9334 7.82924C59.9804 11.0084 62.0618 18.7852 61.3483 28.8546C61.2765 29.8848 60.0817 30.4167 59.2711 29.775Z" fill="#FFBDE7"/>
<g opacity="0.3">
<path d="M71.9961 48.8116C71.5655 47.0891 70.966 45.2145 70.3158 43.3906C70.5733 44.2224 70.8055 45.0414 71.004 45.8309C71.5359 47.9672 71.1095 50.2218 69.8514 52.0288C68.0824 54.5788 64.9074 58.4124 60.0268 61.7688C54.513 65.5644 46.8248 68.7604 36.5232 68.828C26.2216 68.7604 18.5292 65.5644 13.0153 61.7646C8.1389 58.4081 4.96398 54.5746 3.19498 52.0288C1.94106 50.2218 1.51464 47.963 2.04661 45.8309C2.24504 45.0414 2.47725 44.2224 2.73479 43.3906C2.0846 45.2145 1.48509 47.0848 1.05445 48.8116C0.505591 51.007 0.948897 53.3291 2.2366 55.191C4.05626 57.8129 7.31984 61.7562 12.3398 65.2097C18.0099 69.1193 25.926 72.4082 36.5232 72.4757C47.1161 72.4082 55.028 69.1193 60.7024 65.214C65.7265 61.7562 68.9901 57.8129 70.8097 55.191C72.1017 53.3291 72.545 51.007 71.9961 48.8116Z" fill="#11116D"/>
</g>
<g opacity="0.6">
<path d="M41.2138 20.5256C41.2138 20.5256 42.2144 20.7452 43.0588 20.9731C43.5781 21.1125 44.1227 20.8676 44.3549 20.3821C46.1872 16.5992 53.8248 1.64499 60.3013 1.37057C60.3013 1.37057 57.0081 -1.92257 51.1354 5.71075C51.1312 5.71075 43.6498 15.5437 41.2138 20.5256Z" fill="white"/>
</g>
<g opacity="0.6">
<path d="M16.1986 1.10913C8.90308 0.86003 8.43866 27.8299 8.41333 32.6472C8.40911 33.1369 8.30778 33.614 8.10935 34.0616L6.69077 37.2365C6.69077 37.2365 5.87593 4.51625 13.1039 1.1809C14.0876 0.724927 15.1263 0.741815 16.1986 1.10913Z" fill="white"/>
</g>
<path d="M36.5274 74.9958H36.5232C27.6782 74.9367 19.7282 72.6737 12.8971 68.266C7.26496 64.6309 3.6214 60.3245 1.56108 57.3522C0.125616 55.2876 -0.347244 52.7165 0.256497 50.3015C1.77218 44.2303 5.28908 36.4872 5.8886 35.1827C5.86327 33.9203 5.74927 26.8105 6.37412 19.4474C7.33251 8.18742 9.42238 1.96424 12.7577 0.423228C16.1775 -1.15156 20.4079 1.67293 25.3265 8.82071C28.1595 12.9371 30.4351 17.3744 31.2162 18.9534C33.7873 18.4341 36.2403 18.4763 36.5274 18.4806C36.8145 18.4721 39.2674 18.4341 41.8386 18.9534C42.6197 17.3744 44.8953 12.9414 47.7283 8.82071C52.6468 1.67293 56.8773 -1.15156 60.297 0.423228C63.6324 1.96002 65.7223 8.1832 66.6806 19.4474C67.3055 26.8105 67.1957 33.9203 67.1662 35.1827C67.7657 36.483 71.2868 44.2261 72.7983 50.3015C73.402 52.7207 72.9249 55.2877 71.4937 57.3564C69.4292 60.3287 65.7898 64.6351 60.1577 68.2702C53.3266 72.6779 45.3766 74.9409 36.5316 75C36.5316 74.9958 36.5274 74.9958 36.5274 74.9958ZM14.6407 1.68137C14.2185 1.68137 13.8217 1.76581 13.4501 1.93891C11.926 2.63976 9.19862 5.86534 8.02913 19.5783C7.3494 27.5662 7.54783 35.2587 7.55205 35.3347C7.55627 35.4655 7.53094 35.5922 7.47606 35.7104C7.43384 35.7948 3.45252 44.3528 1.86507 50.7026C1.37954 52.6531 1.76374 54.7304 2.92478 56.4022C6.42901 61.4475 16.7095 73.2014 36.5274 73.3281C56.3453 73.1972 66.6258 61.4475 70.13 56.4022C71.291 54.7304 71.6752 52.6531 71.1897 50.7026C69.6065 44.3485 65.6209 35.7948 65.5787 35.7104C65.5238 35.5922 65.4985 35.4655 65.5027 35.3347C65.5027 35.2587 65.7054 27.5662 65.0256 19.5783C63.8562 5.86534 61.1288 2.63976 59.6046 1.93891C57.101 0.786316 53.3772 3.56015 49.1088 9.75377C45.6764 14.7357 43.0757 20.2074 43.0503 20.2622C42.8814 20.6169 42.4888 20.8069 42.1046 20.714C39.4279 20.0723 36.5781 20.144 36.5485 20.1482C36.5316 20.1482 36.5147 20.1482 36.5021 20.1482C36.4725 20.1482 33.6269 20.0765 30.9502 20.7182C30.566 20.8111 30.1733 20.6211 30.0045 20.2665C29.9791 20.2116 27.3784 14.7399 23.9459 9.75799C20.3108 4.47631 17.0684 1.68137 14.6407 1.68137Z" fill="#000072"/>
<path d="M28.596 45.1291C28.9263 41.9048 27.2854 39.0956 24.931 38.8544C22.5766 38.6132 20.4002 41.0315 20.07 44.2557C19.7397 47.48 21.3806 50.2893 23.735 50.5304C26.0894 50.7716 28.2657 48.3533 28.596 45.1291Z" fill="#000072"/>
<path d="M26.0939 42.3779C26.198 41.3619 25.5509 40.4634 24.6486 40.371C23.7463 40.2785 22.9304 41.0272 22.8263 42.0432C22.7223 43.0592 23.3694 43.9577 24.2717 44.0502C25.174 44.1426 25.9899 43.3939 26.0939 42.3779Z" fill="white"/>
<g opacity="0.3">
<path d="M22.8778 46.1548C22.2234 46.0873 21.6365 46.5643 21.569 47.2187C21.5014 47.8732 21.9785 48.46 22.6329 48.5276C23.2873 48.5951 23.8742 48.118 23.9417 47.4636C24.0093 46.805 23.5322 46.2181 22.8778 46.1548Z" fill="white"/>
</g>
<path d="M48.9979 50.5284C51.3523 50.2873 52.9932 47.478 52.6629 44.2537C52.3326 41.0295 50.1563 38.6112 47.8019 38.8524C45.4475 39.0936 43.8066 41.9028 44.1369 45.1271C44.4672 48.3513 46.6435 50.7696 48.9979 50.5284Z" fill="#000072"/>
<path d="M48.4618 44.0509C49.3641 43.9585 50.0112 43.0599 49.9071 42.044C49.8031 41.028 48.9872 40.2793 48.0849 40.3717C47.1826 40.4641 46.5355 41.3627 46.6395 42.3787C46.7436 43.3947 47.5594 44.1433 48.4618 44.0509Z" fill="white"/>
<g opacity="0.3">
<path d="M49.8561 46.1548C50.5105 46.0873 51.0974 46.5643 51.1649 47.2187C51.2325 47.8732 50.7554 48.46 50.101 48.5276C49.4466 48.5951 48.8598 48.118 48.7922 47.4636C48.7204 46.805 49.1975 46.2181 49.8561 46.1548Z" fill="white"/>
</g>
</svg>
