<svg width="350" height="101" viewBox="0 0 350 101" fill="none" xmlns="http://www.w3.org/2000/svg">
<g filter="url(#filter0_dd_102_7147)">
<rect x="17.2634" y="9.5" width="315.392" height="66.3924" rx="33.1962" fill="white"/>
<path fill-rule="evenodd" clip-rule="evenodd" d="M89.6405 43.2437C89.6405 41.5315 89.4868 39.8852 89.2014 38.3047H66.46V47.6449H79.4551C78.8953 50.6632 77.1941 53.2206 74.6368 54.9328V60.9913H82.4405C87.0063 56.7876 89.6405 50.5974 89.6405 43.2437Z" fill="#4285F4"/>
<path fill-rule="evenodd" clip-rule="evenodd" d="M66.4597 66.8398C72.9792 66.8398 78.445 64.6776 82.4402 60.9898L74.6365 54.9313C72.4743 56.38 69.7084 57.2361 66.4597 57.2361C60.1706 57.2361 54.8475 52.9886 52.9487 47.2812H44.8816V53.5374C48.8548 61.4288 57.0206 66.8398 66.4597 66.8398Z" fill="#34A853"/>
<path fill-rule="evenodd" clip-rule="evenodd" d="M52.9489 47.2833C52.4659 45.8345 52.1915 44.2869 52.1915 42.6955C52.1915 41.104 52.4659 39.5564 52.9489 38.1077V31.8516H44.8818C43.2464 35.1113 42.3135 38.7991 42.3135 42.6955C42.3135 46.5918 43.2464 50.2796 44.8818 53.5394L52.9489 47.2833Z" fill="#FBBC05"/>
<path fill-rule="evenodd" clip-rule="evenodd" d="M66.4597 28.1505C70.0048 28.1505 73.1877 29.3688 75.6902 31.7615L82.6158 24.8359C78.4341 20.9396 72.9682 18.5469 66.4597 18.5469C57.0206 18.5469 48.8548 23.9579 44.8816 31.8493L52.9487 38.1054C54.8475 32.3981 60.1706 28.1505 66.4597 28.1505Z" fill="#EA4335"/>
<path d="M106.063 49.9113C104.419 49.9113 103.129 49.3593 102.193 48.2553C101.257 47.1393 100.789 45.5253 100.789 43.4133C100.789 42.3573 100.909 41.4273 101.149 40.6233C101.389 39.8193 101.737 39.1413 102.193 38.5893C102.649 38.0373 103.201 37.6233 103.849 37.3473C104.509 37.0593 105.247 36.9153 106.063 36.9153C107.155 36.9153 108.067 37.1553 108.799 37.6353C109.543 38.1153 110.125 38.8233 110.545 39.7593L108.835 40.6953C108.619 40.0953 108.283 39.6213 107.827 39.2733C107.383 38.9133 106.795 38.7333 106.063 38.7333C105.091 38.7333 104.329 39.0633 103.777 39.7233C103.225 40.3833 102.949 41.2953 102.949 42.4593V44.3673C102.949 45.5313 103.225 46.4433 103.777 47.1033C104.329 47.7633 105.091 48.0933 106.063 48.0933C106.819 48.0933 107.431 47.9013 107.899 47.5173C108.379 47.1213 108.733 46.6173 108.961 46.0053L110.599 46.9953C110.179 47.9073 109.591 48.6213 108.835 49.1373C108.079 49.6533 107.155 49.9113 106.063 49.9113ZM116.284 49.9113C115.636 49.9113 115.042 49.7973 114.502 49.5693C113.974 49.3413 113.524 49.0173 113.152 48.5973C112.78 48.1653 112.492 47.6493 112.288 47.0493C112.084 46.4373 111.982 45.7593 111.982 45.0153C111.982 44.2713 112.084 43.5993 112.288 42.9993C112.492 42.3873 112.78 41.8713 113.152 41.4513C113.524 41.0193 113.974 40.6893 114.502 40.4613C115.042 40.2333 115.636 40.1193 116.284 40.1193C116.932 40.1193 117.52 40.2333 118.048 40.4613C118.588 40.6893 119.044 41.0193 119.416 41.4513C119.788 41.8713 120.076 42.3873 120.28 42.9993C120.484 43.5993 120.586 44.2713 120.586 45.0153C120.586 45.7593 120.484 46.4373 120.28 47.0493C120.076 47.6493 119.788 48.1653 119.416 48.5973C119.044 49.0173 118.588 49.3413 118.048 49.5693C117.52 49.7973 116.932 49.9113 116.284 49.9113ZM116.284 48.2913C116.956 48.2913 117.496 48.0873 117.904 47.6793C118.312 47.2593 118.516 46.6353 118.516 45.8073V44.2233C118.516 43.3953 118.312 42.7773 117.904 42.3693C117.496 41.9493 116.956 41.7393 116.284 41.7393C115.612 41.7393 115.072 41.9493 114.664 42.3693C114.256 42.7773 114.052 43.3953 114.052 44.2233V45.8073C114.052 46.6353 114.256 47.2593 114.664 47.6793C115.072 48.0873 115.612 48.2913 116.284 48.2913ZM122.772 49.6953V40.3353H124.734V41.8833H124.824C125.028 41.3793 125.334 40.9593 125.742 40.6233C126.162 40.2873 126.732 40.1193 127.452 40.1193C128.412 40.1193 129.156 40.4373 129.684 41.0733C130.224 41.6973 130.494 42.5913 130.494 43.7553V49.6953H128.532V44.0073C128.532 42.5433 127.944 41.8113 126.768 41.8113C126.516 41.8113 126.264 41.8473 126.012 41.9193C125.772 41.9793 125.556 42.0753 125.364 42.2073C125.172 42.3393 125.016 42.5073 124.896 42.7113C124.788 42.9153 124.734 43.1553 124.734 43.4313V49.6953H122.772ZM135.805 49.6953C135.121 49.6953 134.605 49.5213 134.257 49.1733C133.909 48.8133 133.735 48.3093 133.735 47.6613V41.9373H132.277V40.3353H133.069C133.393 40.3353 133.615 40.2633 133.735 40.1193C133.867 39.9753 133.933 39.7413 133.933 39.4173V37.7793H135.697V40.3353H137.659V41.9373H135.697V48.0933H137.515V49.6953H135.805ZM140.777 38.6613C140.369 38.6613 140.069 38.5653 139.877 38.3733C139.697 38.1813 139.607 37.9353 139.607 37.6353V37.3293C139.607 37.0293 139.697 36.7833 139.877 36.5913C140.069 36.3993 140.369 36.3033 140.777 36.3033C141.185 36.3033 141.479 36.3993 141.659 36.5913C141.839 36.7833 141.929 37.0293 141.929 37.3293V37.6353C141.929 37.9353 141.839 38.1813 141.659 38.3733C141.479 38.5653 141.185 38.6613 140.777 38.6613ZM139.787 40.3353H141.749V49.6953H139.787V40.3353ZM144.551 49.6953V40.3353H146.513V41.8833H146.603C146.807 41.3793 147.113 40.9593 147.521 40.6233C147.941 40.2873 148.511 40.1193 149.231 40.1193C150.191 40.1193 150.935 40.4373 151.463 41.0733C152.003 41.6973 152.273 42.5913 152.273 43.7553V49.6953H150.311V44.0073C150.311 42.5433 149.723 41.8113 148.547 41.8113C148.295 41.8113 148.043 41.8473 147.791 41.9193C147.551 41.9793 147.335 42.0753 147.143 42.2073C146.951 42.3393 146.795 42.5073 146.675 42.7113C146.567 42.9153 146.513 43.1553 146.513 43.4313V49.6953H144.551ZM160.662 48.1473H160.59C160.506 48.3753 160.392 48.5973 160.248 48.8133C160.116 49.0293 159.942 49.2213 159.726 49.3893C159.522 49.5453 159.27 49.6713 158.97 49.7673C158.682 49.8633 158.346 49.9113 157.962 49.9113C156.99 49.9113 156.234 49.5993 155.694 48.9753C155.166 48.3513 154.902 47.4573 154.902 46.2933V40.3353H156.864V46.0413C156.864 47.4933 157.464 48.2193 158.664 48.2193C158.916 48.2193 159.162 48.1893 159.402 48.1293C159.642 48.0573 159.852 47.9553 160.032 47.8233C160.224 47.6913 160.374 47.5233 160.482 47.3193C160.602 47.1153 160.662 46.8753 160.662 46.5993V40.3353H162.624V49.6953H160.662V48.1473ZM169.106 49.9113C168.434 49.9113 167.834 49.7973 167.306 49.5693C166.778 49.3413 166.328 49.0173 165.956 48.5973C165.584 48.1653 165.296 47.6493 165.092 47.0493C164.9 46.4373 164.804 45.7593 164.804 45.0153C164.804 44.2713 164.9 43.5993 165.092 42.9993C165.296 42.3873 165.584 41.8713 165.956 41.4513C166.328 41.0193 166.778 40.6893 167.306 40.4613C167.834 40.2333 168.434 40.1193 169.106 40.1193C169.79 40.1193 170.39 40.2393 170.906 40.4793C171.434 40.7193 171.872 41.0553 172.22 41.4873C172.568 41.9073 172.826 42.3993 172.994 42.9633C173.174 43.5273 173.264 44.1333 173.264 44.7813V45.5193H166.838V45.8253C166.838 46.5453 167.048 47.1393 167.468 47.6073C167.9 48.0633 168.512 48.2913 169.304 48.2913C169.88 48.2913 170.366 48.1653 170.762 47.9133C171.158 47.6613 171.494 47.3193 171.77 46.8873L172.922 48.0213C172.574 48.5973 172.07 49.0593 171.41 49.4073C170.75 49.7433 169.982 49.9113 169.106 49.9113ZM169.106 41.6493C168.77 41.6493 168.458 41.7093 168.17 41.8293C167.894 41.9493 167.654 42.1173 167.45 42.3333C167.258 42.5493 167.108 42.8073 167 43.1073C166.892 43.4073 166.838 43.7373 166.838 44.0973V44.2233H171.194V44.0433C171.194 43.3233 171.008 42.7473 170.636 42.3153C170.264 41.8713 169.754 41.6493 169.106 41.6493ZM178.754 40.3353H180.662L181.616 44.2593L182.462 47.8053H182.516L183.488 44.2593L184.622 40.3353H186.386L187.538 44.2593L188.528 47.8053H188.582L189.41 44.2593L190.382 40.3353H192.2L189.68 49.6953H187.466L186.242 45.4293L185.486 42.8013H185.45L184.712 45.4293L183.47 49.6953H181.31L178.754 40.3353ZM195.059 38.6613C194.651 38.6613 194.351 38.5653 194.159 38.3733C193.979 38.1813 193.889 37.9353 193.889 37.6353V37.3293C193.889 37.0293 193.979 36.7833 194.159 36.5913C194.351 36.3993 194.651 36.3033 195.059 36.3033C195.467 36.3033 195.761 36.3993 195.941 36.5913C196.121 36.7833 196.211 37.0293 196.211 37.3293V37.6353C196.211 37.9353 196.121 38.1813 195.941 38.3733C195.761 38.5653 195.467 38.6613 195.059 38.6613ZM194.069 40.3353H196.031V49.6953H194.069V40.3353ZM201.424 49.6953C200.74 49.6953 200.224 49.5213 199.876 49.1733C199.528 48.8133 199.354 48.3093 199.354 47.6613V41.9373H197.896V40.3353H198.688C199.012 40.3353 199.234 40.2633 199.354 40.1193C199.486 39.9753 199.552 39.7413 199.552 39.4173V37.7793H201.316V40.3353H203.278V41.9373H201.316V48.0933H203.134V49.6953H201.424ZM205.406 36.3753H207.368V41.8833H207.458C207.662 41.3793 207.968 40.9593 208.376 40.6233C208.796 40.2873 209.366 40.1193 210.086 40.1193C211.046 40.1193 211.79 40.4373 212.318 41.0733C212.858 41.6973 213.128 42.5913 213.128 43.7553V49.6953H211.166V43.9893C211.166 42.5373 210.578 41.8113 209.402 41.8113C209.15 41.8113 208.898 41.8473 208.646 41.9193C208.406 41.9793 208.19 42.0753 207.998 42.2073C207.806 42.3393 207.65 42.5073 207.53 42.7113C207.422 42.9153 207.368 43.1493 207.368 43.4133V49.6953H205.406V36.3753ZM228.328 47.7873H228.256C228.124 48.3993 227.764 48.9093 227.176 49.3173C226.6 49.7133 225.832 49.9113 224.872 49.9113C224.128 49.9113 223.438 49.7733 222.802 49.4973C222.166 49.2093 221.614 48.7953 221.146 48.2553C220.69 47.7033 220.33 47.0253 220.066 46.2213C219.814 45.4053 219.688 44.4693 219.688 43.4133C219.688 42.3693 219.82 41.4453 220.084 40.6413C220.348 39.8253 220.72 39.1413 221.2 38.5893C221.68 38.0373 222.256 37.6233 222.928 37.3473C223.6 37.0593 224.35 36.9153 225.178 36.9153C226.306 36.9153 227.26 37.1673 228.04 37.6713C228.82 38.1633 229.426 38.8533 229.858 39.7413L228.202 40.7133C227.962 40.1253 227.59 39.6513 227.086 39.2913C226.582 38.9193 225.946 38.7333 225.178 38.7333C224.182 38.7333 223.378 39.0513 222.766 39.6873C222.166 40.3233 221.866 41.2233 221.866 42.3873V44.4393C221.866 45.6033 222.166 46.5033 222.766 47.1393C223.378 47.7753 224.182 48.0933 225.178 48.0933C225.574 48.0933 225.952 48.0453 226.312 47.9493C226.672 47.8413 226.984 47.6913 227.248 47.4993C227.524 47.2953 227.74 47.0493 227.896 46.7613C228.064 46.4613 228.148 46.1133 228.148 45.7173V44.7453H225.556V42.9993H230.11V49.6953H228.328V47.7873ZM236.465 49.9113C235.817 49.9113 235.223 49.7973 234.683 49.5693C234.155 49.3413 233.705 49.0173 233.333 48.5973C232.961 48.1653 232.673 47.6493 232.469 47.0493C232.265 46.4373 232.163 45.7593 232.163 45.0153C232.163 44.2713 232.265 43.5993 232.469 42.9993C232.673 42.3873 232.961 41.8713 233.333 41.4513C233.705 41.0193 234.155 40.6893 234.683 40.4613C235.223 40.2333 235.817 40.1193 236.465 40.1193C237.113 40.1193 237.701 40.2333 238.229 40.4613C238.769 40.6893 239.225 41.0193 239.597 41.4513C239.969 41.8713 240.257 42.3873 240.461 42.9993C240.665 43.5993 240.767 44.2713 240.767 45.0153C240.767 45.7593 240.665 46.4373 240.461 47.0493C240.257 47.6493 239.969 48.1653 239.597 48.5973C239.225 49.0173 238.769 49.3413 238.229 49.5693C237.701 49.7973 237.113 49.9113 236.465 49.9113ZM236.465 48.2913C237.137 48.2913 237.677 48.0873 238.085 47.6793C238.493 47.2593 238.697 46.6353 238.697 45.8073V44.2233C238.697 43.3953 238.493 42.7773 238.085 42.3693C237.677 41.9493 237.137 41.7393 236.465 41.7393C235.793 41.7393 235.253 41.9493 234.845 42.3693C234.437 42.7773 234.233 43.3953 234.233 44.2233V45.8073C234.233 46.6353 234.437 47.2593 234.845 47.6793C235.253 48.0873 235.793 48.2913 236.465 48.2913ZM246.625 49.9113C245.977 49.9113 245.383 49.7973 244.843 49.5693C244.315 49.3413 243.865 49.0173 243.493 48.5973C243.121 48.1653 242.833 47.6493 242.629 47.0493C242.425 46.4373 242.323 45.7593 242.323 45.0153C242.323 44.2713 242.425 43.5993 242.629 42.9993C242.833 42.3873 243.121 41.8713 243.493 41.4513C243.865 41.0193 244.315 40.6893 244.843 40.4613C245.383 40.2333 245.977 40.1193 246.625 40.1193C247.273 40.1193 247.861 40.2333 248.389 40.4613C248.929 40.6893 249.385 41.0193 249.757 41.4513C250.129 41.8713 250.417 42.3873 250.621 42.9993C250.825 43.5993 250.927 44.2713 250.927 45.0153C250.927 45.7593 250.825 46.4373 250.621 47.0493C250.417 47.6493 250.129 48.1653 249.757 48.5973C249.385 49.0173 248.929 49.3413 248.389 49.5693C247.861 49.7973 247.273 49.9113 246.625 49.9113ZM246.625 48.2913C247.297 48.2913 247.837 48.0873 248.245 47.6793C248.653 47.2593 248.857 46.6353 248.857 45.8073V44.2233C248.857 43.3953 248.653 42.7773 248.245 42.3693C247.837 41.9493 247.297 41.7393 246.625 41.7393C245.953 41.7393 245.413 41.9493 245.005 42.3693C244.597 42.7773 244.393 43.3953 244.393 44.2233V45.8073C244.393 46.6353 244.597 47.2593 245.005 47.6793C245.413 48.0873 245.953 48.2913 246.625 48.2913ZM261.321 50.5773C261.321 51.5493 260.949 52.2813 260.205 52.7733C259.461 53.2653 258.249 53.5113 256.569 53.5113C255.801 53.5113 255.147 53.4573 254.607 53.3493C254.079 53.2533 253.641 53.1093 253.293 52.9173C252.957 52.7253 252.711 52.4913 252.555 52.2153C252.399 51.9393 252.321 51.6213 252.321 51.2613C252.321 50.7453 252.459 50.3433 252.735 50.0553C253.023 49.7673 253.419 49.5693 253.923 49.4613V49.2633C253.215 49.0353 252.861 48.5553 252.861 47.8233C252.861 47.3433 253.023 46.9773 253.347 46.7253C253.671 46.4613 254.061 46.2753 254.517 46.1673V46.0953C253.965 45.8313 253.539 45.4653 253.239 44.9973C252.951 44.5173 252.807 43.9593 252.807 43.3233C252.807 42.3633 253.125 41.5893 253.761 41.0013C254.409 40.4133 255.333 40.1193 256.533 40.1193C257.193 40.1193 257.757 40.2153 258.225 40.4073V40.1553C258.225 39.7353 258.321 39.4113 258.513 39.1833C258.717 38.9433 259.029 38.8233 259.449 38.8233H260.889V40.4073H258.981V40.7853C259.401 41.0613 259.725 41.4213 259.953 41.8653C260.181 42.2973 260.295 42.7833 260.295 43.3233C260.295 44.2713 259.971 45.0393 259.323 45.6273C258.675 46.2033 257.751 46.4913 256.551 46.4913C256.095 46.4913 255.687 46.4433 255.327 46.3473C255.087 46.4313 254.877 46.5513 254.697 46.7073C254.517 46.8513 254.427 47.0433 254.427 47.2833C254.427 47.5353 254.541 47.7153 254.769 47.8233C254.997 47.9313 255.321 47.9853 255.741 47.9853H258.045C259.197 47.9853 260.031 48.2193 260.547 48.6873C261.063 49.1433 261.321 49.7733 261.321 50.5773ZM259.485 50.7933C259.485 50.4693 259.359 50.2113 259.107 50.0193C258.867 49.8273 258.423 49.7313 257.775 49.7313H254.607C254.175 49.9833 253.959 50.3433 253.959 50.8113C253.959 51.1953 254.109 51.5013 254.409 51.7293C254.721 51.9693 255.243 52.0893 255.975 52.0893H257.199C258.723 52.0893 259.485 51.6573 259.485 50.7933ZM256.551 45.0693C257.127 45.0693 257.571 44.9433 257.883 44.6913C258.207 44.4273 258.369 44.0253 258.369 43.4853V43.1253C258.369 42.5853 258.207 42.1893 257.883 41.9373C257.571 41.6733 257.127 41.5413 256.551 41.5413C255.975 41.5413 255.525 41.6733 255.201 41.9373C254.889 42.1893 254.733 42.5853 254.733 43.1253V43.4853C254.733 44.0253 254.889 44.4273 255.201 44.6913C255.525 44.9433 255.975 45.0693 256.551 45.0693ZM264.779 49.6953C264.107 49.6953 263.603 49.5273 263.267 49.1913C262.943 48.8433 262.781 48.3633 262.781 47.7513V36.3753H264.743V48.0933H266.039V49.6953H264.779ZM271.586 49.9113C270.914 49.9113 270.314 49.7973 269.786 49.5693C269.258 49.3413 268.808 49.0173 268.436 48.5973C268.064 48.1653 267.776 47.6493 267.572 47.0493C267.38 46.4373 267.284 45.7593 267.284 45.0153C267.284 44.2713 267.38 43.5993 267.572 42.9993C267.776 42.3873 268.064 41.8713 268.436 41.4513C268.808 41.0193 269.258 40.6893 269.786 40.4613C270.314 40.2333 270.914 40.1193 271.586 40.1193C272.27 40.1193 272.87 40.2393 273.386 40.4793C273.914 40.7193 274.352 41.0553 274.7 41.4873C275.048 41.9073 275.306 42.3993 275.474 42.9633C275.654 43.5273 275.744 44.1333 275.744 44.7813V45.5193H269.318V45.8253C269.318 46.5453 269.528 47.1393 269.948 47.6073C270.38 48.0633 270.992 48.2913 271.784 48.2913C272.36 48.2913 272.846 48.1653 273.242 47.9133C273.638 47.6613 273.974 47.3193 274.25 46.8873L275.402 48.0213C275.054 48.5973 274.55 49.0593 273.89 49.4073C273.23 49.7433 272.462 49.9113 271.586 49.9113ZM271.586 41.6493C271.25 41.6493 270.938 41.7093 270.65 41.8293C270.374 41.9493 270.134 42.1173 269.93 42.3333C269.738 42.5493 269.588 42.8073 269.48 43.1073C269.372 43.4073 269.318 43.7373 269.318 44.0973V44.2233H273.674V44.0433C273.674 43.3233 273.488 42.7473 273.116 42.3153C272.744 41.8713 272.234 41.6493 271.586 41.6493Z" fill="#6D7781"/>
<path d="M300.196 41.9849L294.536 36.3349C294.443 36.2411 294.332 36.1667 294.21 36.116C294.088 36.0652 293.958 36.0391 293.826 36.0391C293.694 36.0391 293.563 36.0652 293.441 36.116C293.319 36.1667 293.209 36.2411 293.116 36.3349C292.929 36.5222 292.825 36.7757 292.825 37.0399C292.825 37.304 292.929 37.5575 293.116 37.7449L298.066 42.7449L293.116 47.6949C292.929 47.8822 292.825 48.1357 292.825 48.3999C292.825 48.664 292.929 48.9175 293.116 49.1049C293.208 49.1993 293.319 49.2745 293.441 49.326C293.563 49.3775 293.693 49.4043 293.826 49.4049C293.958 49.4043 294.089 49.3775 294.211 49.326C294.333 49.2745 294.443 49.1993 294.536 49.1049L300.196 43.4549C300.297 43.3612 300.378 43.2476 300.434 43.1211C300.489 42.9946 300.518 42.858 300.518 42.7199C300.518 42.5818 300.489 42.4452 300.434 42.3187C300.378 42.1922 300.297 42.0785 300.196 41.9849Z" fill="#6D7781"/>
<rect x="18.2634" y="10.5" width="313.392" height="64.3924" rx="32.1962" stroke="#00E6B2" stroke-width="2"/>
</g>
<defs>
<filter id="filter0_dd_102_7147" x="0.263428" y="0.5" width="349.392" height="100.391" filterUnits="userSpaceOnUse" color-interpolation-filters="sRGB">
<feFlood flood-opacity="0" result="BackgroundImageFix"/>
<feColorMatrix in="SourceAlpha" type="matrix" values="0 0 0 0 0 0 0 0 0 0 0 0 0 0 0 0 0 0 127 0" result="hardAlpha"/>
<feOffset dy="1.6"/>
<feGaussianBlur stdDeviation="1.38125"/>
<feColorMatrix type="matrix" values="0 0 0 0 0.415686 0 0 0 0 0.654902 0 0 0 0 0.772549 0 0 0 0.075 0"/>
<feBlend mode="normal" in2="BackgroundImageFix" result="effect1_dropShadow_102_7147"/>
<feColorMatrix in="SourceAlpha" type="matrix" values="0 0 0 0 0 0 0 0 0 0 0 0 0 0 0 0 0 0 127 0" result="hardAlpha"/>
<feOffset dy="8"/>
<feGaussianBlur stdDeviation="8.5"/>
<feColorMatrix type="matrix" values="0 0 0 0 0.415686 0 0 0 0 0.654902 0 0 0 0 0.772549 0 0 0 0.15 0"/>
<feBlend mode="normal" in2="effect1_dropShadow_102_7147" result="effect2_dropShadow_102_7147"/>
<feBlend mode="normal" in="SourceGraphic" in2="effect2_dropShadow_102_7147" result="shape"/>
</filter>
</defs>
</svg>
