<svg width="447" height="74" viewBox="0 0 447 74" fill="none" xmlns="http://www.w3.org/2000/svg">
<path d="M13.5354 59.172C11.1834 59.172 9.13009 58.7427 7.37543 57.884C5.65809 57.0253 4.14609 55.6813 2.83943 53.852L4.35143 52.732C5.62076 54.412 6.96476 55.6253 8.38343 56.372C9.83943 57.0813 11.5754 57.436 13.5914 57.436C16.1301 57.436 18.0528 56.9133 19.3594 55.868C20.6661 54.8227 21.3194 53.3107 21.3194 51.332C21.3194 49.428 20.7594 48.0093 19.6394 47.076C18.5568 46.1427 16.8768 45.4893 14.5994 45.116L12.1914 44.724C10.9221 44.5373 9.76476 44.2573 8.71943 43.884C7.71143 43.5107 6.83409 43.0253 6.08743 42.428C5.37809 41.7933 4.81809 41.028 4.40743 40.132C4.03409 39.236 3.84743 38.1533 3.84743 36.884C3.84743 35.652 4.07143 34.5693 4.51943 33.636C5.00476 32.7027 5.65809 31.9187 6.47943 31.284C7.33809 30.6493 8.32743 30.1827 9.44743 29.884C10.6048 29.548 11.8368 29.38 13.1434 29.38C15.5328 29.38 17.4741 29.8093 18.9674 30.668C20.4608 31.4893 21.6928 32.46 22.6634 33.58L21.2634 34.868C20.8528 34.3827 20.3861 33.916 19.8634 33.468C19.3781 33.02 18.8181 32.628 18.1834 32.292C17.5488 31.9187 16.8021 31.6387 15.9434 31.452C15.1221 31.228 14.1701 31.116 13.0874 31.116C10.8474 31.116 9.05543 31.6013 7.71143 32.572C6.40476 33.5427 5.75143 34.9613 5.75143 36.828C5.75143 38.732 6.31143 40.132 7.43143 41.028C8.55143 41.8867 10.2501 42.5027 12.5274 42.876L14.9354 43.268C17.5861 43.6787 19.6208 44.5 21.0394 45.732C22.4954 46.9267 23.2234 48.7373 23.2234 51.164C23.2234 53.7027 22.3648 55.6813 20.6474 57.1C18.9301 58.4813 16.5594 59.172 13.5354 59.172ZM41.6907 59.172C37.9574 59.172 35.0081 57.9027 32.8427 55.364C30.7147 52.8253 29.6507 49.1293 29.6507 44.276C29.6507 39.3853 30.7147 35.6893 32.8427 33.188C35.0081 30.6493 37.9574 29.38 41.6907 29.38C45.4241 29.38 48.3547 30.6493 50.4827 33.188C52.6481 35.6893 53.7307 39.3853 53.7307 44.276C53.7307 49.1293 52.6481 52.8253 50.4827 55.364C48.3547 57.9027 45.4241 59.172 41.6907 59.172ZM41.6907 57.436C44.8641 57.436 47.3094 56.4093 49.0267 54.356C50.7441 52.2653 51.6027 49.4093 51.6027 45.788V42.764C51.6027 39.1053 50.7441 36.2493 49.0267 34.196C47.3094 32.1427 44.8641 31.116 41.6907 31.116C38.5174 31.116 36.0721 32.1427 34.3547 34.196C32.6374 36.2493 31.7787 39.1053 31.7787 42.764V45.788C31.7787 49.4093 32.6374 52.2653 34.3547 54.356C36.0721 56.4093 38.5174 57.436 41.6907 57.436ZM79.433 30.052H81.393L67.505 67.852C67.2063 68.524 66.8517 68.9907 66.441 69.252C66.0303 69.5507 65.4143 69.7 64.593 69.7H60.449V67.964H65.489L68.849 59.06L58.153 30.052H60.225L69.745 56.372H69.913L79.433 30.052Z" fill="white"/>
<path d="M116.455 40.804L111.247 46.964V58.5H103.855V19.412H111.247V38.676H111.527L117.071 31.34L126.759 19.412H135.271L121.663 35.708L136.391 58.5H127.599L116.455 40.804ZM166.001 58.5L162.865 48.532H148.977L145.897 58.5H138.393L151.497 19.412H160.681L173.673 58.5H166.001ZM156.033 26.132H155.753L150.769 42.204H161.073L156.033 26.132ZM177.81 58.5V52.564H182.962V25.348H177.81V19.412H195.562V25.348H190.354V52.564H195.562V58.5H177.81Z" fill="white"/>
<path d="M230.663 59.172C226.893 59.172 223.906 57.9027 221.703 55.364C219.538 52.8253 218.455 49.1293 218.455 44.276C218.455 39.46 219.519 35.7827 221.647 33.244C223.775 30.668 226.706 29.38 230.439 29.38C232.194 29.38 233.781 29.716 235.199 30.388C236.655 31.06 237.887 32.012 238.895 33.244C239.941 34.476 240.743 35.9693 241.303 37.724C241.863 39.4413 242.143 41.364 242.143 43.492V44.388H220.527V45.9C220.527 47.6547 220.751 49.2413 221.199 50.66C221.647 52.0787 222.301 53.292 223.159 54.3C224.055 55.308 225.119 56.092 226.351 56.652C227.621 57.1747 229.058 57.436 230.663 57.436C235.181 57.436 238.298 55.2707 240.015 50.94L241.527 51.78C240.669 54.02 239.325 55.812 237.495 57.156C235.666 58.5 233.389 59.172 230.663 59.172ZM230.439 31.116C228.871 31.116 227.471 31.396 226.239 31.956C225.045 32.4787 224.018 33.244 223.159 34.252C222.301 35.26 221.647 36.4733 221.199 37.892C220.751 39.3107 220.527 40.8787 220.527 42.596V42.82H240.015V42.484C240.015 40.7667 239.773 39.2173 239.287 37.836C238.839 36.4173 238.186 35.2227 237.327 34.252C236.506 33.244 235.498 32.4787 234.303 31.956C233.146 31.396 231.858 31.116 230.439 31.116ZM253.35 58.5C251.744 58.5 250.942 57.716 250.942 56.148V17.06H252.902V56.764H257.55V58.5H253.35ZM278.449 17.06H280.409V34.42H280.577C281.137 33.0387 282.108 31.8627 283.489 30.892C284.908 29.884 286.849 29.38 289.313 29.38C292.449 29.38 294.839 30.3133 296.481 32.18C298.161 34.0093 299.001 36.6973 299.001 40.244V58.5H297.041V40.58C297.041 37.2947 296.332 34.9053 294.913 33.412C293.532 31.8813 291.516 31.116 288.865 31.116C287.783 31.116 286.719 31.2653 285.673 31.564C284.665 31.8627 283.769 32.3107 282.985 32.908C282.201 33.5053 281.567 34.252 281.081 35.148C280.633 36.044 280.409 37.0893 280.409 38.284V58.5H278.449V17.06ZM327.875 54.132H327.651C327.389 54.7667 327.016 55.4013 326.531 56.036C326.083 56.6333 325.504 57.1747 324.795 57.66C324.123 58.108 323.301 58.4627 322.331 58.724C321.36 59.0227 320.24 59.172 318.971 59.172C315.835 59.172 313.427 58.2573 311.747 56.428C310.067 54.5613 309.227 51.8547 309.227 48.308V30.052H311.187V47.972C311.187 51.2573 311.896 53.6653 313.315 55.196C314.733 56.6893 316.768 57.436 319.419 57.436C320.501 57.436 321.547 57.2867 322.555 56.988C323.6 56.6893 324.515 56.26 325.299 55.7C326.083 55.1027 326.699 54.356 327.147 53.46C327.632 52.5267 327.875 51.444 327.875 50.212V30.052H329.835V58.5H327.875V54.132ZM348.684 59.172C346.332 59.172 344.279 58.7427 342.524 57.884C340.807 57.0253 339.295 55.6813 337.988 53.852L339.5 52.732C340.769 54.412 342.113 55.6253 343.532 56.372C344.988 57.0813 346.724 57.436 348.74 57.436C351.279 57.436 353.201 56.9133 354.508 55.868C355.815 54.8227 356.468 53.3107 356.468 51.332C356.468 49.428 355.908 48.0093 354.788 47.076C353.705 46.1427 352.025 45.4893 349.748 45.116L347.34 44.724C346.071 44.5373 344.913 44.2573 343.868 43.884C342.86 43.5107 341.983 43.0253 341.236 42.428C340.527 41.7933 339.967 41.028 339.556 40.132C339.183 39.236 338.996 38.1533 338.996 36.884C338.996 35.652 339.22 34.5693 339.668 33.636C340.153 32.7027 340.807 31.9187 341.628 31.284C342.487 30.6493 343.476 30.1827 344.596 29.884C345.753 29.548 346.985 29.38 348.292 29.38C350.681 29.38 352.623 29.8093 354.116 30.668C355.609 31.4893 356.841 32.46 357.812 33.58L356.412 34.868C356.001 34.3827 355.535 33.916 355.012 33.468C354.527 33.02 353.967 32.628 353.332 32.292C352.697 31.9187 351.951 31.6387 351.092 31.452C350.271 31.228 349.319 31.116 348.236 31.116C345.996 31.116 344.204 31.6013 342.86 32.572C341.553 33.5427 340.9 34.9613 340.9 36.828C340.9 38.732 341.46 40.132 342.58 41.028C343.7 41.8867 345.399 42.5027 347.676 42.876L350.084 43.268C352.735 43.6787 354.769 44.5 356.188 45.732C357.644 46.9267 358.372 48.7373 358.372 51.164C358.372 53.7027 357.513 55.6813 355.796 57.1C354.079 58.4813 351.708 59.172 348.684 59.172ZM367.207 17.06H369.167V34.42H369.335C369.895 33.0387 370.866 31.8627 372.247 30.892C373.666 29.884 375.607 29.38 378.071 29.38C381.207 29.38 383.597 30.3133 385.239 32.18C386.919 34.0093 387.759 36.6973 387.759 40.244V58.5H385.799V40.58C385.799 37.2947 385.09 34.9053 383.671 33.412C382.29 31.8813 380.274 31.116 377.623 31.116C376.541 31.116 375.477 31.2653 374.431 31.564C373.423 31.8627 372.527 32.3107 371.743 32.908C370.959 33.5053 370.325 34.252 369.839 35.148C369.391 36.044 369.167 37.0893 369.167 38.284V58.5H367.207V17.06ZM398.488 17.06H400.448V45.508H400.616L405.096 40.972L415.904 30.052H418.368L406.664 41.868L419.768 58.5H417.36L405.264 43.156L400.448 47.916V58.5H398.488V17.06ZM442.964 30.052H444.924L431.036 67.852C430.738 68.524 430.383 68.9907 429.972 69.252C429.562 69.5507 428.946 69.7 428.124 69.7H423.98V67.964H429.02L432.38 59.06L421.684 30.052H423.756L433.276 56.372H433.444L442.964 30.052Z" fill="white"/>
</svg>
