<svg width="715" height="157" viewBox="0 0 715 157" fill="none" xmlns="http://www.w3.org/2000/svg">
<path d="M85.3834 103.204C85.3834 108.665 83.8901 113.103 80.9034 116.516C78.0021 119.929 74.0768 122.447 69.1274 124.068C64.1781 125.689 58.7168 126.5 52.7434 126.5H8.07143V35.62H60.8074C65.0741 35.62 68.7434 36.772 71.8154 39.076C74.9728 41.2947 77.3621 44.196 78.9834 47.78C80.6901 51.364 81.5434 55.076 81.5434 58.916C81.5434 63.0973 80.4341 67.1507 78.2154 71.076C76.0821 75.0013 72.8394 77.9453 68.4874 79.908C73.6928 81.444 77.7888 84.132 80.7754 87.972C83.8474 91.812 85.3834 96.8893 85.3834 103.204ZM60.0394 98.084C60.0394 96.548 59.7408 95.2253 59.1434 94.116C58.6314 92.9213 57.9061 91.9827 56.9674 91.3C56.0288 90.6173 54.9194 90.276 53.6394 90.276H33.0314V105.508H52.7434C54.1088 105.508 55.3461 105.209 56.4554 104.612C57.5648 104.015 58.4181 103.161 59.0154 102.052C59.6981 100.943 60.0394 99.62 60.0394 98.084ZM33.0314 56.868V70.82H50.0554C51.1648 70.82 52.2314 70.6493 53.2554 70.308C54.2794 69.8813 55.1328 69.156 55.8154 68.132C56.4981 67.108 56.8394 65.6573 56.8394 63.78C56.8394 62.0733 56.5408 60.7507 55.9434 59.812C55.4314 58.788 54.7061 58.0627 53.7674 57.636C52.9141 57.124 51.9328 56.868 50.8234 56.868H33.0314ZM94.7824 126.5V59.172H119.102V126.5H94.7824ZM94.7824 53.54V33.06H119.102V53.54H94.7824ZM164.559 127.78C158.671 127.78 153.423 126.884 148.815 125.092C144.207 123.215 140.325 120.697 137.167 117.54C134.095 114.383 131.749 110.756 130.127 106.66C128.506 102.564 127.695 98.2547 127.695 93.732C127.695 87.2467 129.103 81.316 131.919 75.94C134.735 70.4787 138.874 66.1267 144.335 62.884C149.797 59.556 156.538 57.892 164.559 57.892C172.581 57.892 179.322 59.5133 184.783 62.756C190.245 65.9987 194.383 70.2653 197.199 75.556C200.015 80.8467 201.423 86.6067 201.423 92.836C201.423 94.116 201.338 95.4387 201.167 96.804C201.082 98.084 200.954 99.236 200.783 100.26H153.551C153.722 102.649 154.362 104.612 155.471 106.148C156.666 107.599 158.117 108.665 159.823 109.348C161.615 110.031 163.45 110.372 165.327 110.372C167.973 110.372 170.447 109.775 172.751 108.58C175.141 107.385 176.719 105.721 177.487 103.588L198.095 109.476C196.303 113.06 193.786 116.217 190.543 118.948C187.386 121.679 183.631 123.855 179.279 125.476C174.927 127.012 170.021 127.78 164.559 127.78ZM153.039 85.668H175.311C175.055 83.4493 174.415 81.572 173.391 80.036C172.453 78.5 171.173 77.3053 169.551 76.452C168.015 75.5987 166.223 75.172 164.175 75.172C162.127 75.172 160.293 75.5987 158.671 76.452C157.135 77.3053 155.855 78.5 154.831 80.036C153.893 81.572 153.295 83.4493 153.039 85.668ZM277.119 126.5H252.799V88.612C252.799 85.284 252.031 82.8947 250.495 81.444C249.045 79.908 247.338 79.14 245.375 79.14C244.01 79.14 242.559 79.5667 241.023 80.42C239.487 81.188 238.079 82.2973 236.799 83.748C235.519 85.1987 234.495 86.8627 233.727 88.74V126.5H209.407V59.172H231.295V69.156C232.917 66.6813 234.965 64.6333 237.439 63.012C239.914 61.3053 242.773 60.0253 246.015 59.172C249.258 58.3187 252.799 57.892 256.639 57.892C261.247 57.892 264.917 58.7027 267.647 60.324C270.378 61.9453 272.426 64.036 273.791 66.596C275.157 69.156 276.053 71.844 276.479 74.66C276.906 77.3907 277.119 79.908 277.119 82.212V126.5ZM304.672 126.5L282.016 59.172H306.976L319.008 104.868L331.168 59.172H353.824L331.168 126.5H304.672ZM391.059 127.78C385.171 127.78 379.923 126.884 375.315 125.092C370.707 123.215 366.825 120.697 363.667 117.54C360.595 114.383 358.249 110.756 356.627 106.66C355.006 102.564 354.195 98.2547 354.195 93.732C354.195 87.2467 355.603 81.316 358.419 75.94C361.235 70.4787 365.374 66.1267 370.835 62.884C376.297 59.556 383.038 57.892 391.059 57.892C399.081 57.892 405.822 59.5133 411.283 62.756C416.745 65.9987 420.883 70.2653 423.699 75.556C426.515 80.8467 427.923 86.6067 427.923 92.836C427.923 94.116 427.838 95.4387 427.667 96.804C427.582 98.084 427.454 99.236 427.283 100.26H380.051C380.222 102.649 380.862 104.612 381.971 106.148C383.166 107.599 384.617 108.665 386.323 109.348C388.115 110.031 389.95 110.372 391.827 110.372C394.473 110.372 396.947 109.775 399.251 108.58C401.641 107.385 403.219 105.721 403.987 103.588L424.595 109.476C422.803 113.06 420.286 116.217 417.043 118.948C413.886 121.679 410.131 123.855 405.779 125.476C401.427 127.012 396.521 127.78 391.059 127.78ZM379.539 85.668H401.811C401.555 83.4493 400.915 81.572 399.891 80.036C398.953 78.5 397.673 77.3053 396.051 76.452C394.515 75.5987 392.723 75.172 390.675 75.172C388.627 75.172 386.793 75.5987 385.171 76.452C383.635 77.3053 382.355 78.5 381.331 80.036C380.393 81.572 379.795 83.4493 379.539 85.668ZM503.619 126.5H479.299V88.612C479.299 85.284 478.531 82.8947 476.995 81.444C475.545 79.908 473.838 79.14 471.875 79.14C470.51 79.14 469.059 79.5667 467.523 80.42C465.987 81.188 464.579 82.2973 463.299 83.748C462.019 85.1987 460.995 86.8627 460.227 88.74V126.5H435.907V59.172H457.795V69.156C459.417 66.6813 461.465 64.6333 463.939 63.012C466.414 61.3053 469.273 60.0253 472.515 59.172C475.758 58.3187 479.299 57.892 483.139 57.892C487.747 57.892 491.417 58.7027 494.147 60.324C496.878 61.9453 498.926 64.036 500.291 66.596C501.657 69.156 502.553 71.844 502.979 74.66C503.406 77.3907 503.619 79.908 503.619 82.212V126.5ZM515.407 126.5V59.172H539.727V126.5H515.407ZM515.407 53.54V33.06H539.727V53.54H515.407ZM548.448 92.708C548.448 86.052 549.686 80.1213 552.16 74.916C554.72 69.6253 558.219 65.4867 562.656 62.5C567.094 59.428 572.171 57.892 577.888 57.892C582.24 57.892 586.251 58.916 589.92 60.964C593.59 62.9267 596.363 65.6573 598.24 69.156V33.06H622.56V99.62C622.56 101.924 622.902 103.545 623.584 104.484C624.267 105.337 625.462 105.849 627.168 106.02V126.5C622.987 127.353 619.574 127.78 616.928 127.78C612.832 127.78 609.59 127.012 607.2 125.476C604.811 123.94 603.275 121.593 602.592 118.436L602.08 116.004C599.776 120.1 596.662 123.087 592.736 124.964C588.811 126.841 584.63 127.78 580.192 127.78C575.584 127.78 571.318 126.927 567.392 125.22C563.552 123.513 560.182 121.124 557.28 118.052C554.464 114.895 552.288 111.183 550.752 106.916C549.216 102.564 548.448 97.828 548.448 92.708ZM598.368 100.388V88.356C597.6 86.3933 596.534 84.6867 595.168 83.236C593.888 81.7 592.438 80.5053 590.816 79.652C589.195 78.7987 587.531 78.372 585.824 78.372C584.032 78.372 582.368 78.756 580.832 79.524C579.382 80.292 578.102 81.3587 576.992 82.724C575.883 84.0893 575.03 85.668 574.432 87.46C573.835 89.252 573.536 91.172 573.536 93.22C573.536 95.3533 573.835 97.2733 574.432 98.98C575.115 100.687 576.054 102.18 577.248 103.46C578.443 104.655 579.851 105.593 581.472 106.276C583.094 106.959 584.886 107.3 586.848 107.3C588.043 107.3 589.152 107.172 590.176 106.916C591.2 106.575 592.182 106.148 593.12 105.636C594.059 105.039 594.955 104.313 595.808 103.46C596.747 102.521 597.6 101.497 598.368 100.388ZM670.309 127.78C664.336 127.78 659.045 126.841 654.437 124.964C649.829 123.087 645.947 120.527 642.789 117.284C639.717 113.956 637.371 110.201 635.749 106.02C634.213 101.839 633.445 97.444 633.445 92.836C633.445 88.228 634.213 83.8333 635.749 79.652C637.371 75.3853 639.717 71.6307 642.789 68.388C645.947 65.1453 649.829 62.5853 654.437 60.708C659.045 58.8307 664.336 57.892 670.309 57.892C676.368 57.892 681.659 58.8307 686.181 60.708C690.789 62.5853 694.629 65.1453 697.701 68.388C700.859 71.6307 703.205 75.3853 704.741 79.652C706.363 83.8333 707.173 88.228 707.173 92.836C707.173 97.444 706.363 101.839 704.741 106.02C703.205 110.201 700.859 113.956 697.701 117.284C694.629 120.527 690.789 123.087 686.181 124.964C681.659 126.841 676.368 127.78 670.309 127.78ZM658.405 92.836C658.405 95.8227 658.917 98.4253 659.941 100.644C660.965 102.777 662.373 104.441 664.165 105.636C665.957 106.745 668.005 107.3 670.309 107.3C672.613 107.3 674.661 106.745 676.453 105.636C678.245 104.441 679.653 102.777 680.677 100.644C681.701 98.4253 682.213 95.8227 682.213 92.836C682.213 89.8493 681.701 87.2893 680.677 85.156C679.653 82.9373 678.245 81.2733 676.453 80.164C674.661 78.9693 672.613 78.372 670.309 78.372C668.005 78.372 665.957 78.9693 664.165 80.164C662.373 81.2733 660.965 82.9373 659.941 85.156C658.917 87.2893 658.405 89.8493 658.405 92.836Z" fill="#00E6B2"/>
<path d="M89.3834 97.204C89.3834 102.665 87.8901 107.103 84.9034 110.516C82.0021 113.929 78.0768 116.447 73.1274 118.068C68.1781 119.689 62.7168 120.5 56.7434 120.5H12.0714V29.62H64.8074C69.0741 29.62 72.7434 30.772 75.8154 33.076C78.9728 35.2947 81.3621 38.196 82.9834 41.78C84.6901 45.364 85.5434 49.076 85.5434 52.916C85.5434 57.0973 84.4341 61.1507 82.2154 65.076C80.0821 69.0013 76.8394 71.9453 72.4874 73.908C77.6928 75.444 81.7888 78.132 84.7754 81.972C87.8474 85.812 89.3834 90.8893 89.3834 97.204ZM64.0394 92.084C64.0394 90.548 63.7408 89.2253 63.1434 88.116C62.6314 86.9213 61.9061 85.9827 60.9674 85.3C60.0288 84.6173 58.9194 84.276 57.6394 84.276H37.0314V99.508H56.7434C58.1088 99.508 59.3461 99.2093 60.4554 98.612C61.5648 98.0147 62.4181 97.1613 63.0154 96.052C63.6981 94.9427 64.0394 93.62 64.0394 92.084ZM37.0314 50.868V64.82H54.0554C55.1648 64.82 56.2314 64.6493 57.2554 64.308C58.2794 63.8813 59.1328 63.156 59.8154 62.132C60.4981 61.108 60.8394 59.6573 60.8394 57.78C60.8394 56.0733 60.5408 54.7507 59.9434 53.812C59.4314 52.788 58.7061 52.0627 57.7674 51.636C56.9141 51.124 55.9328 50.868 54.8234 50.868H37.0314ZM98.7824 120.5V53.172H123.102V120.5H98.7824ZM98.7824 47.54V27.06H123.102V47.54H98.7824ZM168.559 121.78C162.671 121.78 157.423 120.884 152.815 119.092C148.207 117.215 144.325 114.697 141.167 111.54C138.095 108.383 135.749 104.756 134.127 100.66C132.506 96.564 131.695 92.2547 131.695 87.732C131.695 81.2467 133.103 75.316 135.919 69.94C138.735 64.4787 142.874 60.1267 148.335 56.884C153.797 53.556 160.538 51.892 168.559 51.892C176.581 51.892 183.322 53.5133 188.783 56.756C194.245 59.9987 198.383 64.2653 201.199 69.556C204.015 74.8467 205.423 80.6067 205.423 86.836C205.423 88.116 205.338 89.4387 205.167 90.804C205.082 92.084 204.954 93.236 204.783 94.26H157.551C157.722 96.6493 158.362 98.612 159.471 100.148C160.666 101.599 162.117 102.665 163.823 103.348C165.615 104.031 167.45 104.372 169.327 104.372C171.973 104.372 174.447 103.775 176.751 102.58C179.141 101.385 180.719 99.7213 181.487 97.588L202.095 103.476C200.303 107.06 197.786 110.217 194.543 112.948C191.386 115.679 187.631 117.855 183.279 119.476C178.927 121.012 174.021 121.78 168.559 121.78ZM157.039 79.668H179.311C179.055 77.4493 178.415 75.572 177.391 74.036C176.453 72.5 175.173 71.3053 173.551 70.452C172.015 69.5987 170.223 69.172 168.175 69.172C166.127 69.172 164.293 69.5987 162.671 70.452C161.135 71.3053 159.855 72.5 158.831 74.036C157.893 75.572 157.295 77.4493 157.039 79.668ZM281.119 120.5H256.799V82.612C256.799 79.284 256.031 76.8947 254.495 75.444C253.045 73.908 251.338 73.14 249.375 73.14C248.01 73.14 246.559 73.5667 245.023 74.42C243.487 75.188 242.079 76.2973 240.799 77.748C239.519 79.1987 238.495 80.8627 237.727 82.74V120.5H213.407V53.172H235.295V63.156C236.917 60.6813 238.965 58.6333 241.439 57.012C243.914 55.3053 246.773 54.0253 250.015 53.172C253.258 52.3187 256.799 51.892 260.639 51.892C265.247 51.892 268.917 52.7027 271.647 54.324C274.378 55.9453 276.426 58.036 277.791 60.596C279.157 63.156 280.053 65.844 280.479 68.66C280.906 71.3907 281.119 73.908 281.119 76.212V120.5ZM308.672 120.5L286.016 53.172H310.976L323.008 98.868L335.168 53.172H357.824L335.168 120.5H308.672ZM395.059 121.78C389.171 121.78 383.923 120.884 379.315 119.092C374.707 117.215 370.825 114.697 367.667 111.54C364.595 108.383 362.249 104.756 360.627 100.66C359.006 96.564 358.195 92.2547 358.195 87.732C358.195 81.2467 359.603 75.316 362.419 69.94C365.235 64.4787 369.374 60.1267 374.835 56.884C380.297 53.556 387.038 51.892 395.059 51.892C403.081 51.892 409.822 53.5133 415.283 56.756C420.745 59.9987 424.883 64.2653 427.699 69.556C430.515 74.8467 431.923 80.6067 431.923 86.836C431.923 88.116 431.838 89.4387 431.667 90.804C431.582 92.084 431.454 93.236 431.283 94.26H384.051C384.222 96.6493 384.862 98.612 385.971 100.148C387.166 101.599 388.617 102.665 390.323 103.348C392.115 104.031 393.95 104.372 395.827 104.372C398.473 104.372 400.947 103.775 403.251 102.58C405.641 101.385 407.219 99.7213 407.987 97.588L428.595 103.476C426.803 107.06 424.286 110.217 421.043 112.948C417.886 115.679 414.131 117.855 409.779 119.476C405.427 121.012 400.521 121.78 395.059 121.78ZM383.539 79.668H405.811C405.555 77.4493 404.915 75.572 403.891 74.036C402.953 72.5 401.673 71.3053 400.051 70.452C398.515 69.5987 396.723 69.172 394.675 69.172C392.627 69.172 390.793 69.5987 389.171 70.452C387.635 71.3053 386.355 72.5 385.331 74.036C384.393 75.572 383.795 77.4493 383.539 79.668ZM507.619 120.5H483.299V82.612C483.299 79.284 482.531 76.8947 480.995 75.444C479.545 73.908 477.838 73.14 475.875 73.14C474.51 73.14 473.059 73.5667 471.523 74.42C469.987 75.188 468.579 76.2973 467.299 77.748C466.019 79.1987 464.995 80.8627 464.227 82.74V120.5H439.907V53.172H461.795V63.156C463.417 60.6813 465.465 58.6333 467.939 57.012C470.414 55.3053 473.273 54.0253 476.515 53.172C479.758 52.3187 483.299 51.892 487.139 51.892C491.747 51.892 495.417 52.7027 498.147 54.324C500.878 55.9453 502.926 58.036 504.291 60.596C505.657 63.156 506.553 65.844 506.979 68.66C507.406 71.3907 507.619 73.908 507.619 76.212V120.5ZM519.407 120.5V53.172H543.727V120.5H519.407ZM519.407 47.54V27.06H543.727V47.54H519.407ZM552.448 86.708C552.448 80.052 553.686 74.1213 556.16 68.916C558.72 63.6253 562.219 59.4867 566.656 56.5C571.094 53.428 576.171 51.892 581.888 51.892C586.24 51.892 590.251 52.916 593.92 54.964C597.59 56.9267 600.363 59.6573 602.24 63.156V27.06H626.56V93.62C626.56 95.924 626.902 97.5453 627.584 98.484C628.267 99.3373 629.462 99.8493 631.168 100.02V120.5C626.987 121.353 623.574 121.78 620.928 121.78C616.832 121.78 613.59 121.012 611.2 119.476C608.811 117.94 607.275 115.593 606.592 112.436L606.08 110.004C603.776 114.1 600.662 117.087 596.736 118.964C592.811 120.841 588.63 121.78 584.192 121.78C579.584 121.78 575.318 120.927 571.392 119.22C567.552 117.513 564.182 115.124 561.28 112.052C558.464 108.895 556.288 105.183 554.752 100.916C553.216 96.564 552.448 91.828 552.448 86.708ZM602.368 94.388V82.356C601.6 80.3933 600.534 78.6867 599.168 77.236C597.888 75.7 596.438 74.5053 594.816 73.652C593.195 72.7987 591.531 72.372 589.824 72.372C588.032 72.372 586.368 72.756 584.832 73.524C583.382 74.292 582.102 75.3587 580.992 76.724C579.883 78.0893 579.03 79.668 578.432 81.46C577.835 83.252 577.536 85.172 577.536 87.22C577.536 89.3533 577.835 91.2733 578.432 92.98C579.115 94.6867 580.054 96.18 581.248 97.46C582.443 98.6547 583.851 99.5933 585.472 100.276C587.094 100.959 588.886 101.3 590.848 101.3C592.043 101.3 593.152 101.172 594.176 100.916C595.2 100.575 596.182 100.148 597.12 99.636C598.059 99.0387 598.955 98.3133 599.808 97.46C600.747 96.5213 601.6 95.4973 602.368 94.388ZM674.309 121.78C668.336 121.78 663.045 120.841 658.437 118.964C653.829 117.087 649.947 114.527 646.789 111.284C643.717 107.956 641.371 104.201 639.749 100.02C638.213 95.8387 637.445 91.444 637.445 86.836C637.445 82.228 638.213 77.8333 639.749 73.652C641.371 69.3853 643.717 65.6307 646.789 62.388C649.947 59.1453 653.829 56.5853 658.437 54.708C663.045 52.8307 668.336 51.892 674.309 51.892C680.368 51.892 685.659 52.8307 690.181 54.708C694.789 56.5853 698.629 59.1453 701.701 62.388C704.859 65.6307 707.205 69.3853 708.741 73.652C710.363 77.8333 711.173 82.228 711.173 86.836C711.173 91.444 710.363 95.8387 708.741 100.02C707.205 104.201 704.859 107.956 701.701 111.284C698.629 114.527 694.789 117.087 690.181 118.964C685.659 120.841 680.368 121.78 674.309 121.78ZM662.405 86.836C662.405 89.8227 662.917 92.4253 663.941 94.644C664.965 96.7773 666.373 98.4413 668.165 99.636C669.957 100.745 672.005 101.3 674.309 101.3C676.613 101.3 678.661 100.745 680.453 99.636C682.245 98.4413 683.653 96.7773 684.677 94.644C685.701 92.4253 686.213 89.8227 686.213 86.836C686.213 83.8493 685.701 81.2893 684.677 79.156C683.653 76.9373 682.245 75.2733 680.453 74.164C678.661 72.9693 676.613 72.372 674.309 72.372C672.005 72.372 669.957 72.9693 668.165 74.164C666.373 75.2733 664.965 76.9373 663.941 79.156C662.917 81.2893 662.405 83.8493 662.405 86.836Z" fill="white"/>
</svg>
